/* XPM */
static char * dmmShelfAddSplinterCage_xpm[] = {
"32 32 289 2",
"  	c #BF743A",
". 	c #B87C4D",
"+ 	c #B97C4E",
"@ 	c #B97D4E",
"# 	c #BA7D4F",
"$ 	c #BA7E4F",
"% 	c #CF6513",
"& 	c #000000",
"* 	c #A98B74",
"= 	c #979797",
"- 	c #FFFFFF",
"; 	c #989898",
"> 	c #999999",
", 	c #9A9A9A",
"' 	c #9B9B9B",
") 	c #9C9C9C",
"! 	c #9D9D9D",
"~ 	c #9E9E9E",
"{ 	c #C86D27",
"] 	c #AA8C75",
"^ 	c #FF0000",
"/ 	c #8989A9",
"( 	c #AC8D76",
"_ 	c #3131E0",
": 	c #0000FF",
"< 	c #3232E1",
"[ 	c #6363C3",
"} 	c #9595A5",
"| 	c #9F9F9F",
"1 	c #C86D28",
"2 	c #AE9078",
"3 	c #8282B2",
"4 	c #3C3CDB",
"5 	c #2828F7",
"6 	c #BDBDDC",
"7 	c #8787E6",
"8 	c #5151F0",
"9 	c #0D0DFC",
"0 	c #1E1EED",
"a 	c #5050D0",
"b 	c #7878B7",
"c 	c #8C8CAB",
"d 	c #C86E28",
"e 	c #B0927A",
"f 	c #A0A0A0",
"g 	c #A1A1A1",
"h 	c #A2A2A2",
"i 	c #6565C4",
"j 	c #1414F3",
"k 	c #4747E7",
"l 	c #CACADA",
"m 	c #D8D8D8",
"n 	c #D9D9D9",
"o 	c #7A7AE9",
"p 	c #0C0CFB",
"q 	c #3333F2",
"r 	c #1919F8",
"s 	c #C96E28",
"t 	c #B1937B",
"u 	c #A3A3A3",
"v 	c #6565C5",
"w 	c #5F5FDF",
"x 	c #0B0BFB",
"y 	c #A2A2E2",
"z 	c #DADADA",
"A 	c #3636F6",
"B 	c #7272E2",
"C 	c #CCCCCC",
"D 	c #4C4CEC",
"E 	c #A4A4A4",
"F 	c #8585B5",
"G 	c #7777D7",
"H 	c #2323F3",
"I 	c #7A7AEA",
"J 	c #DBDBDB",
"K 	c #A5A5E4",
"L 	c #CDCDCD",
"M 	c #C1C1D1",
"N 	c #3D3DDC",
"O 	c #C96E29",
"P 	c #A5A5A5",
"Q 	c #8686B5",
"R 	c #0A0AF9",
"S 	c #4848E7",
"T 	c #5252F1",
"U 	c #DCDCDC",
"V 	c #DDDDDD",
"W 	c #1B1BFA",
"X 	c #9999D9",
"Y 	c #CECECE",
"Z 	c #8181E1",
"` 	c #1E1EEE",
" .	c #C96F29",
"..	c #B2937C",
"+.	c #A6A6A6",
"@.	c #9B9BAB",
"#.	c #3030EF",
"$.	c #6C6CDC",
"%.	c #2929F8",
"&.	c #7C7CEC",
"*.	c #CFCFCF",
"=.	c #D0D0D0",
"-.	c #4141F0",
";.	c #1C1CFB",
">.	c #CA6F29",
",.	c #A8A8A8",
"'.	c #A7A7A7",
").	c #9C9CAC",
"!.	c #1F1FEE",
"~.	c #2424F3",
"{.	c #A9A9C9",
"].	c #5353F2",
"^.	c #9898E8",
"/.	c #DEDEDE",
"(.	c #DFDFDF",
"_.	c #D1D1E1",
":.	c #0D0DFD",
"<.	c #B5B5D5",
"[.	c #B6B6D6",
"}.	c #4646F5",
"|.	c #B2947D",
"1.	c #A9A9A9",
"2.	c #3F3FDE",
"3.	c #6D6DDC",
"4.	c #9292D2",
"5.	c #0B0BEA",
"6.	c #3333A2",
"7.	c #1616D6",
"8.	c #4545F5",
"9.	c #7E7EED",
"0.	c #C4C4E3",
"a.	c #6262F1",
"b.	c #5A5AEA",
"c.	c #D1D1D1",
"d.	c #D2D2D2",
"e.	c #7676E5",
"f.	c #5454F4",
"g.	c #CA6F2A",
"h.	c #AAAAAA",
"i.	c #1010E0",
"j.	c #1616D5",
"k.	c #2D2DAD",
"l.	c #4F4F6F",
"m.	c #3E3E8E",
"n.	c #2222C1",
"o.	c #2727F6",
"p.	c #4E4EED",
"q.	c #6969E8",
"r.	c #8383E2",
"s.	c #9E9EDE",
"t.	c #1A1AF9",
"u.	c #4646F6",
"v.	c #CA702A",
"w.	c #B3957E",
"x.	c #ABABAB",
"y.	c #8080BF",
"z.	c #1C1CCB",
"A.	c #545464",
"B.	c #5A5A5A",
"C.	c #4F4F6E",
"D.	c #0505F4",
"E.	c #1111E0",
"F.	c #3333A3",
"G.	c #2E2EAD",
"H.	c #1C1CCC",
"I.	c #1717D6",
"J.	c #6363F3",
"K.	c #2A2AE9",
"L.	c #CB702A",
"M.	c #8B8BBB",
"N.	c #1010DF",
"O.	c #535363",
"P.	c #2C2CAC",
"Q.	c #383897",
"R.	c #444484",
"S.	c #393999",
"T.	c #454584",
"U.	c #5555F5",
"V.	c #5555D5",
"W.	c #B4967E",
"X.	c #ACACAC",
"Y.	c #595959",
"Z.	c #3D3D8C",
"`.	c #5B5B5B",
" +	c #494979",
".+	c #0E0EFD",
"++	c #7373F2",
"@+	c #5656F5",
"#+	c #8181C0",
"$+	c #CB702B",
"%+	c #2B2BEA",
"&+	c #2121C0",
"*+	c #373797",
"=+	c #3232A1",
"-+	c #3D3D8D",
";+	c #2121C1",
">+	c #1C1CFC",
",+	c #8181F1",
"'+	c #CACAEA",
")+	c #2B2BFA",
"!+	c #ADADAD",
"~+	c #CB712B",
"{+	c #B5967F",
"]+	c #2C2CAB",
"^+	c #555565",
"/+	c #AEAEAE",
"(+	c #585858",
"_+	c #4C4CDC",
":+	c #AFAFAF",
"<+	c #CC712B",
"[+	c #B59780",
"}+	c #575757",
"|+	c #2D2DAC",
"1+	c #2727B7",
"2+	c #6E6ECD",
"3+	c #B0B0B0",
"4+	c #424282",
"5+	c #484878",
"6+	c #434383",
"7+	c #0909F8",
"8+	c #A5A5B5",
"9+	c #B1B1B1",
"0+	c #CC712C",
"a+	c #B69881",
"b+	c #474777",
"c+	c #2C2CEB",
"d+	c #B2B2B2",
"e+	c #CC722C",
"f+	c #A4A4B4",
"g+	c #2B2BAB",
"h+	c #373796",
"i+	c #424281",
"j+	c #525262",
"k+	c #5959D9",
"l+	c #B3B3B3",
"m+	c #CD722C",
"n+	c #B79981",
"o+	c #6363D2",
"p+	c #0A0AEA",
"q+	c #1515D5",
"r+	c #1B1BCA",
"s+	c #434382",
"t+	c #9292C2",
"u+	c #B4B4B4",
"v+	c #7979C8",
"w+	c #2626B5",
"x+	c #4D4D6C",
"y+	c #3131A1",
"z+	c #B6B6B6",
"A+	c #CD722D",
"B+	c #B89982",
"C+	c #8585C5",
"D+	c #7A7ACA",
"E+	c #4242E2",
"F+	c #1616F5",
"G+	c #0B0BFA",
"H+	c #AAAABA",
"I+	c #8888C8",
"J+	c #8989C9",
"K+	c #B7B7B7",
"L+	c #CD732D",
"M+	c #3838E7",
"N+	c #5B5BDA",
"O+	c #B8B8B8",
"P+	c #CE732D",
"Q+	c #B89A83",
"R+	c #4E4EDE",
"S+	c #9F9FBF",
"T+	c #B9B9B9",
"U+	c #B5B5B5",
"V+	c #9393C3",
"W+	c #6666D5",
"X+	c #7272D2",
"Y+	c #CE732E",
"Z+	c #B99B84",
"`+	c #CE742E",
" @	c #C77C42",
".@	c #C38758",
"+@	c #C48759",
"@@	c #C48859",
"#@	c #C5885A",
"$@	c #C5895A",
"%@	c #C6895B",
"&@	c #C68A5B",
"*@	c #C78A5C",
"=@	c #C78B5C",
"-@	c #C88B5D",
";@	c #D26817",
">@	c #351700",
"  . . . . . . . . . . + + + + + + + @ @ @ @ @ @ @ # # # $ $ % & ",
"* = = - - - - ; ; ; > > > > , , , , , ' ' ' ' ) ) ) ! ~ ~ ~ { & ",
"] > > - ^ ^ - , , , ' ' ' ' ' ) ) ) ) / ! ! ! ~ ~ ~ ~ ~ ~ ~ { & ",
"( - - - ^ ^ - - - ) ! ! ! ! ! ~ ~ ~ _ : < [ } | | | | | | | 1 & ",
"2 - ^ ^ ^ ^ ^ ^ - ~ | | | | | 3 4 4 5 6 7 8 9 0 a b b b b c d & ",
"e - ^ ^ ^ ^ ^ ^ - f g g g h i j k 9 l m m n n o p q q q r < s & ",
"t - - - ^ ^ - - - h u u u v : w x y n n z z z A B C C C D 0 s & ",
"t h u - ^ ^ - E E E E E F : G H I z z z J J K r C L L M p N O & ",
"t E P - - - - P P P P Q R k S T J J U U U V W X L Y Y Z : `  .& ",
"..+.+.+.+.+.+.+.+.+.@.j #.$.%.U V V V V V &.q Y *.*.=.-.;.: >.& ",
"..,.'.'.'.'.'.'.'.).!.~.{.: ].^./././.(._.:.<.*.=.=.[.: }.: >.& ",
"|.,.1.,.,.,.,.,.,.2.: 3.4.5.6.7.: 8.9.0.a.b.=.c.c.d.e.: f.: g.& ",
"|.1.1.1.h.1.1.1.2.: i.j.j.5.5.k.l.m.n.5.: o.p.q.r.s.t.;.u.: v.& ",
"w.1.1.h.h.h.x.y.: : z.A.B.B.C.n.D.E.7.E.D.F.F.G.H.I.: J.: K.L.& ",
"w.1.h.h.x.x.x.M.N.O.P.D.Q.B.B.B.7.6.R.R.k.5.5.G.S.T.: U.: V.L.& ",
"W.h.h.x.x.x.X.X.R O.Y.Z.D.j.j.j.5.7.6.l.`.`. +7..+++++@+: #+$+& ",
"W.h.x.x.x.X.X.X.%+&+*+=+j.Y.Y.Y.O.-+;+5.5.7.7.5.>+,+'+)+: !+~+& ",
"{+x.x.x.X.X.X.!+: ]+&+N.5.O.Y.Y.Y.Y.B.B.7.`.`.^+m.n.5.: %+/+~+& ",
"{+x.x.X.X.X.!+!+: (+(+(+]+N.O.Y.Y.Y.B.B.E. +`.`.`.`.`.: _+:+<+& ",
"[+X.X.X.!+!+!+/+: }+(+(+(+&+N.O.Y.Y.B.|+5.i.: 7.1+m.R.: 2+3+<+& ",
"[+X.X.!+!+!+/+/+: }+(+(+(+(+&+j.4+O.5+D.O.Y.A.6+|+z.7+: 8+9+0+& ",
"a+X.!+!+!+/+/+/+: }+(+(+(+(+b+D.j.D.: *+Y.Y.B.B.B.B.: c+d+d+e+& ",
"a+!+!+!+/+/+/+f+: g+h+i+j+j+N.h+(+(+&+*+Y.Y.Y.B.B.B.: k+l+l+m+& ",
"n+!+!+/+/+:+:+:+o+c+p+q+: : &+(+(+(+r+5.&+=+s+A.B.B.: t+u+u+m+& ",
"n+/+/+/+:+:+:+3+3+v+: : q+p+w+x+(+y+N.b+h+w+: : D.j.: z+z+z+A+& ",
"B+/+/+:+:+:+3+3+3+9+9+9+C+D+E+F+5.D.x+(+(+x+G+z+H+I+J+K+K+K+L+& ",
"B+/+:+:+:+3+3+3+9+9+9+d+d+l+l+l+M+r+b+(+(+&+N+z+z+K+K+K+O+O+P+& ",
"Q+:+:+:+3+3+9+9+9+9+d+d+l+l+l+u+t+R+F+5.w+D.S+z+K+K+K+O+O+T+P+& ",
"Q+:+3+3+3+9+9+9+d+d+d+l+l+l+u+u+u+U+U+V+W+X+K+K+K+O+O+O+T+T+Y+& ",
"Z+3+3+3+9+9+9+d+d+d+l+l+l+u+U+U+U+U+z+z+z+K+K+K+K+O+O+O+T+T+`+& ",
" @.@.@.@+@+@+@@@@@@@#@#@#@#@$@$@$@%@%@%@&@&@&@*@*@*@=@=@=@-@;@& ",
">@>@>@>@>@>@>@>@>@>@>@>@>@>@>@>@>@>@>@>@>@>@>@>@>@>@>@>@>@>@>@& "};
