/* XPM */
static char * dmmShelfAddDrivenRegion_xpm[] = {
"32 32 367 2",
"  	c #DC8A51",
". 	c #D08F61",
"+ 	c #D18F62",
"@ 	c #F38031",
"# 	c #000000",
"$ 	c #B99881",
"% 	c #A2A2A2",
"& 	c #A3A3A3",
"* 	c #A87171",
"= 	c #C05E5E",
"- 	c #E88541",
"; 	c #9E9FA8",
"> 	c #808BCB",
", 	c #7B88D1",
"' 	c #B46561",
") 	c #F21313",
"! 	c #E22E2E",
"~ 	c #A78787",
"{ 	c #A0A0A0",
"] 	c #BA9982",
"^ 	c #A4A4A4",
"/ 	c #868FC6",
"( 	c #6D7EE2",
"_ 	c #4E66F8",
": 	c #3444DA",
"< 	c #7281DC",
"[ 	c #B59C8B",
"} 	c #D63333",
"| 	c #F80C0C",
"1 	c #C55757",
"2 	c #9E9A9A",
"3 	c #E88641",
"4 	c #BA9A83",
"5 	c #9A9DAF",
"6 	c #818BCB",
"7 	c #687BE8",
"8 	c #5970F9",
"9 	c #394AE0",
"0 	c #1F28C2",
"a 	c #00009E",
"b 	c #0506A4",
"c 	c #2A36CE",
"d 	c #495FF2",
"e 	c #8B93C1",
"f 	c #A5A5A5",
"g 	c #B36464",
"h 	c #F21111",
"i 	c #E72727",
"j 	c #AB7F7F",
"k 	c #9F9F9F",
"l 	c #A1A1A1",
"m 	c #A08484",
"n 	c #E88642",
"o 	c #546DFF",
"p 	c #0A0DAA",
"q 	c #00009F",
"r 	c #0000A0",
"s 	c #2F3DD5",
"t 	c #A6A6A6",
"u 	c #D43939",
"v 	c #FB0808",
"w 	c #CB4E4E",
"x 	c #9F9999",
"y 	c #C65B5B",
"z 	c #BB9A84",
"A 	c #2F3D9C",
"B 	c #4E66F0",
"C 	c #3444DB",
"D 	c #0A0DAB",
"E 	c #0000A1",
"F 	c #0506A6",
"G 	c #1F28C4",
"H 	c #4458ED",
"I 	c #495FEC",
"J 	c #2A36B6",
"K 	c #687BE9",
"L 	c #A7A7A7",
"M 	c #969696",
"N 	c #AE6C6C",
"O 	c #F11313",
"P 	c #EC1E1E",
"Q 	c #AD7E7E",
"R 	c #A09A9A",
"S 	c #ED2222",
"T 	c #E98642",
"U 	c #BC9B84",
"V 	c #6D7EE3",
"W 	c #1A2263",
"X 	c #05062B",
"Y 	c #2A368E",
"Z 	c #2A36D0",
"` 	c #0506A7",
" .	c #151BBA",
"..	c #3444DC",
"+.	c #3444C8",
"@.	c #1A229A",
"#.	c #00006C",
"$.	c #697BE9",
"%.	c #A8A8A8",
"&.	c #988F8F",
"*.	c #CF4141",
"=.	c #FE0303",
"-.	c #E22929",
";.	c #FD0505",
">.	c #B85B5B",
",.	c #E98742",
"'.	c #BD9C85",
").	c #7D8AD3",
"!.	c #2A368D",
"~.	c #00001C",
"{.	c #00001D",
"].	c #3444AA",
"^.	c #4458E3",
"/.	c #242FAD",
"(.	c #050676",
"_.	c #00006D",
":.	c #00006B",
"<.	c #697CE9",
"[.	c #A9A9A9",
"}.	c #999999",
"|.	c #B46262",
"1.	c #FF0000",
"2.	c #E62020",
"3.	c #E98743",
"4.	c #BD9D86",
"5.	c #838ECE",
"6.	c #2F3D9B",
"7.	c #3F51C6",
"8.	c #151B92",
"9.	c #00006A",
"0.	c #AAAAAA",
"a.	c #A6B26F",
"b.	c #B89347",
"c.	c #AFA7A1",
"d.	c #AB9090",
"e.	c #EB1F1F",
"f.	c #FC0505",
"g.	c #BE9D87",
"h.	c #151B91",
"i.	c #000069",
"j.	c #A4A6AF",
"k.	c #8AB560",
"l.	c #A88D2F",
"m.	c #A58B30",
"n.	c #B3800D",
"o.	c #A1943B",
"p.	c #A8833A",
"q.	c #B4A498",
"r.	c #B9A08F",
"s.	c #4458D4",
"t.	c #151B90",
"u.	c #0F0764",
"v.	c #4E8CAA",
"w.	c #79AB80",
"x.	c #A97D2D",
"y.	c #B87D05",
"z.	c #B37904",
"A.	c #17620B",
"B.	c #B47A04",
"C.	c #F18B15",
"D.	c #A0943B",
"E.	c #A48B3A",
"F.	c #B5A885",
"G.	c #ABABAB",
"H.	c #EA8743",
"I.	c #8A6952",
"J.	c #353535",
"K.	c #2A367F",
"L.	c #050774",
"M.	c #111689",
"N.	c #063654",
"O.	c #A87E2D",
"P.	c #E4800D",
"Q.	c #F08B13",
"R.	c #A48F30",
"S.	c #A2923B",
"T.	c #A4B670",
"U.	c #ACACAC",
"V.	c #EA8843",
"W.	c #5F3F28",
"X.	c #242F6F",
"Y.	c #0F1446",
"Z.	c #2A36B5",
"`.	c #0E1283",
" +	c #D49232",
".+	c #E37F0C",
"++	c #B37A04",
"@+	c #E08111",
"#+	c #E58511",
"$+	c #A5852F",
"%+	c #A89232",
"&+	c #EA8844",
"*+	c #B5947D",
"=+	c #202020",
"-+	c #242F7D",
";+	c #05062A",
">+	c #2A36B4",
",+	c #2A36B3",
"'+	c #E1890F",
")+	c #B18108",
"!+	c #2F760C",
"~+	c #17630B",
"{+	c #A97724",
"]+	c #E08414",
"^+	c #E28911",
"/+	c #C0A089",
"(+	c #8B8B8B",
"_+	c #0A0A0A",
":+	c #0A0D1F",
"<+	c #3444A2",
"[+	c #151B54",
"}+	c #1F28A0",
"|+	c #105D06",
"1+	c #E17E0D",
"2+	c #E77F0F",
"3+	c #E08B0F",
"4+	c #0D9F2D",
"5+	c #266D0C",
"6+	c #D69333",
"7+	c #167B15",
"8+	c #1F6613",
"9+	c #E1820F",
"0+	c #EB8844",
"a+	c #C1A08A",
"b+	c #ADADAD",
"c+	c #8D8D8D",
"d+	c #1A224F",
"e+	c #4458D2",
"f+	c #3F51D9",
"g+	c #3444AC",
"h+	c #352508",
"i+	c #1B550D",
"j+	c #E57E0E",
"k+	c #204F13",
"l+	c #225514",
"m+	c #E78110",
"n+	c #0CAC2E",
"o+	c #20660B",
"p+	c #B78125",
"q+	c #A68F2F",
"r+	c #107912",
"s+	c #346815",
"t+	c #306515",
"u+	c #E08910",
"v+	c #EB8944",
"w+	c #C2A18A",
"x+	c #AEAEAE",
"y+	c #AFAFAF",
"z+	c #4C4C4C",
"A+	c #05060F",
"B+	c #0F142F",
"C+	c #0B0B0B",
"D+	c #115C0F",
"E+	c #225214",
"F+	c #235615",
"G+	c #E48112",
"H+	c #DD8A11",
"I+	c #256D15",
"J+	c #1B650A",
"K+	c #AC7824",
"L+	c #128415",
"M+	c #3C6F14",
"N+	c #E08C11",
"O+	c #EB8945",
"P+	c #C3A28B",
"Q+	c #B0B0B0",
"R+	c #848484",
"S+	c #161616",
"T+	c #585858",
"U+	c #62B255",
"V+	c #DF7D0F",
"W+	c #235515",
"X+	c #19460D",
"Y+	c #DD7F0F",
"Z+	c #DE8913",
"`+	c #148116",
" @	c #2D6D22",
".@	c #E28811",
"+@	c #B1B1B1",
"@@	c #B2B2B2",
"#@	c #DD8112",
"$@	c #326615",
"%@	c #B3B3B3",
"&@	c #EC8945",
"*@	c #C3A38C",
"=@	c #40913B",
"-@	c #DE7D0F",
";@	c #DC8211",
">@	c #396D14",
",@	c #E38611",
"'@	c #B4B4B4",
")@	c #EC8A45",
"!@	c #C4A38D",
"~@	c #9C9C9C",
"{@	c #2C2C2C",
"]@	c #DC8411",
"^@	c #E48411",
"/@	c #B5B5B5",
"(@	c #EC8A46",
"_@	c #C5A48D",
":@	c #9D9D9D",
"<@	c #DC8310",
"[@	c #EC8A17",
"}@	c #B6B6B6",
"|@	c #4F4F4F",
"1@	c #39340B",
"2@	c #DD8910",
"3@	c #118414",
"4@	c #F08A17",
"5@	c #C6A58E",
"6@	c #222222",
"7@	c #DC8A10",
"8@	c #DC8811",
"9@	c #A5942E",
"0@	c #E88918",
"a@	c #B7B7B7",
"b@	c #ED8A46",
"c@	c #C6A68F",
"d@	c #939393",
"e@	c #0F0702",
"f@	c #DD7E0E",
"g@	c #DC8C10",
"h@	c #DF8813",
"i@	c #D27F24",
"j@	c #B8B8B8",
"k@	c #ED8B46",
"l@	c #C7A690",
"m@	c #949494",
"n@	c #DD8B11",
"o@	c #A1972D",
"p@	c #49413B",
"q@	c #B9B9B9",
"r@	c #ED8B47",
"s@	c #C8A790",
"t@	c #5C5C5C",
"u@	c #DC7E0E",
"v@	c #DF8812",
"w@	c #CA822E",
"x@	c #A1992B",
"y@	c #B7750A",
"z@	c #686868",
"A@	c #BABABA",
"B@	c #979797",
"C@	c #171717",
"D@	c #E37B0F",
"E@	c #DF8711",
"F@	c #AB8106",
"G@	c #C46D0E",
"H@	c #BBBBBB",
"I@	c #EE8B47",
"J@	c #C9A891",
"K@	c #515151",
"L@	c #1F0F04",
"M@	c #E37E0D",
"N@	c #625A54",
"O@	c #BCBCBC",
"P@	c #EE8C47",
"Q@	c #E49259",
"R@	c #DB9A6C",
"S@	c #DC9A6D",
"T@	c #DC9B6D",
"U@	c #DD9B6E",
"V@	c #DD9C6E",
"W@	c #AE6D3F",
"X@	c #3F1F08",
"Y@	c #DE9C6F",
"Z@	c #F68434",
"  . + + + + + + + + + + + + + + + + + + + + + + + + + + + + @ # ",
"$ % % & & & & & & & & & & & & * = & & & & & & & & & & & & & - # ",
"$ % & & & & & ; > , ; & & & & ' ) ! ~ { & & & & & & & & & & - # ",
"] & & ^ ^ / ( _ : : _ < [ ^ ^ ^ ^ } | 1 2 ^ ^ ^ ^ ^ ^ ^ ^ ^ 3 # ",
"4 5 6 7 8 9 0 a a a b c d 7 e f f f g h i j k f f l m f f f n # ",
"4 8 o c p a a a q q q r r s o 7 t t t t u v w x f ^ y t t t n # ",
"z 7 A B C D r r E E F G H I J K L L L L M N O P Q R S L L L T # ",
"U V W X Y B Z `  ...o +.@.#.#.$.%.%.%.%.%.%.&.*.=.-.;.>.%.%.,.# ",
"'.).!.~.{.X ].o ^./.(._.#.#.:.<.[.[.[.[.[.[.[.}.|.1.1.2.[.[.3.# ",
"4.5.6.~.{.{.{.7.8._.#.#.:.:.9.<.0.0.0.a.b.c.0.d.e.f.=.1.0.0.3.# ",
"4.g.7.~.~.{.{.7.h.#.#.:.:.9.i.<.j.k.l.m.n.o.p.q.0.0.0.0.0.0.3.# ",
"g.r.s.~.~.~.{.7.t.#.:.9.9.i.u.v.w.x.y.z.A.B.C.D.E.F.G.G.G.G.H.# ",
"I.J.K.~.~.~.{.7.t.:.9.9.L.M.N.O.P.z.A.A.A.A.A.z.Q.R.S.T.U.0.V.# ",
"W.# X.Y.~.~.~.Y Z.9.i.`.N. +.+++A.A.A.A.A.A.A.A.A.@+#+$+%+0.&+# ",
"*+=+# X.-+;+~.Y >+i.i.,+'+)+!+~+A.A.A.A.A.A.A.A.A.A.{+]+^+0.&+# ",
"/+(+_+# :+<+[+!.>+i.}+|+1+2+3+4+5+A.A.A.A.A.A.A.A.6+7+8+9+0.0+# ",
"a+b+c+=+# # d+e+f+g+h+i+j+k+l+m+3+n+o+A.A.A.A.p+q+r+s+t+u+0.v+# ",
"w+x+x+y+z+# # A+B+# C+D+2+E+F+F+F+G+H+I+J+K+$+L+M+t+t+t+N+0.O+# ",
"P+y+y+y+Q+R+S+# C+T+f U+V+E+W+X+X+X+X+Y+Z+`+ @t+t+t+t+t+.@0.O+# ",
"P+Q+Q+Q+Q++@f R+f @@@@U+V+X+X+X+X+X+X+X+#@X+X+t+t+t+t+$@.@%@&@# ",
"*@Q++@+@+@+@@@@@@@@@%@=@-@X+X+X+X+X+X+X+;@X+X+X+t+t+t+>@,@'@)@# ",
"!@+@+@@@@@@@@@%@%@~@{@i+-@X+X+X+X+X+X+X+]@X+X+X+X+X+X+M+^@/@(@# ",
"_@@@@@@@%@%@%@%@:@# # i+-@X+X+X+X+X+X+X+<@X+X+X+X+X+X+8+[@}@(@# ",
"_@%@%@%@%@'@'@'@'@|@# 1@2@X+X+X+X+X+X+X+]@X+X+X+X+X+X+3@4@}@(@# ",
"5@%@'@'@'@'@/@/@/@[.6@# h+7@X+X+X+X+X+X+8@X+X+X+X+X+9@0@a@a@b@# ",
"c@'@/@/@/@/@/@}@}@}@d@C+# e@f@g@X+X+X+X+h@X+X+X+X+7@i@j@j@j@k@# ",
"l@/@/@}@}@}@}@}@a@a@a@m@6@# # 1@n@X+X+X+h@X+X+o@f@p@b+q@q@q@r@# ",
"s@}@}@}@a@a@a@a@a@j@j@j@j@t@# # e@u@X+X+v@w@x@y@z@A@A@A@A@A@r@# ",
"s@a@a@a@a@j@j@j@j@j@q@q@q@A@B@C@# # D@n@E@F@G@B@H@H@H@H@H@H@I@# ",
"J@a@j@j@j@j@q@q@q@q@A@A@A@A@H@y+K@# # L@M@N@O@O@O@O@O@O@O@O@P@# ",
"Q@R@R@S@S@S@S@T@T@T@T@U@U@U@U@V@V@W@X@X@W@Y@Y@Y@Y@Y@Y@Y@Y@Y@Z@# ",
"# # # # # # # # # # # # # # # # # # # # # # # # # # # # # # # # "};
