/* XPM */
static char * dmmShelfPolyCube_xpm[] = {
"32 32 261 2",
"  	c #E17E41",
". 	c #D78857",
"+ 	c #EB742B",
"@ 	c #3F1800",
"# 	c #C39B83",
"$ 	c #AFAFAF",
"% 	c #BEA08E",
"& 	c #CD916D",
"* 	c #B4AAA4",
"= 	c #C89678",
"- 	c #FA650A",
"; 	c #F55E03",
"> 	c #FF6100",
", 	c #EC5B06",
"' 	c #883725",
") 	c #760600",
"! 	c #CA4200",
"~ 	c #E3580A",
"{ 	c #7F3B2F",
"] 	c #6D3636",
"^ 	c #763832",
"/ 	c #914028",
"( 	c #AC481E",
"_ 	c #B64B1B",
": 	c #DA560D",
"< 	c #F56A15",
"[ 	c #D28C62",
"} 	c #C85014",
"| 	c #773832",
"1 	c #6A1717",
"2 	c #6D0000",
"3 	c #5F0000",
"4 	c #AB3000",
"5 	c #883E2B",
"6 	c #D15310",
"7 	c #924028",
"8 	c #6E3636",
"9 	c #670606",
"0 	c #660000",
"a 	c #580000",
"b 	c #962400",
"c 	c #EB5803",
"d 	c #A34621",
"e 	c #803B2F",
"f 	c #6D2F2F",
"g 	c #670000",
"h 	c #590000",
"i 	c #771200",
"j 	c #F45A00",
"k 	c #672525",
"l 	c #AD3303",
"m 	c #D9560D",
"n 	c #B9A599",
"o 	c #9B4325",
"p 	c #6A1E1E",
"q 	c #6F0000",
"r 	c #600000",
"s 	c #620600",
"t 	c #DF4E00",
"u 	c #6C3232",
"v 	c #611010",
"w 	c #781200",
"x 	c #964325",
"y 	c #D54800",
"z 	c #BC3903",
"A 	c #B33000",
"B 	c #A42400",
"C 	c #8A1200",
"D 	c #C03C00",
"E 	c #712721",
"F 	c #5D0303",
"G 	c #A04621",
"H 	c #E67936",
"I 	c #E1580A",
"J 	c #AD3000",
"K 	c #5D0600",
"L 	c #7C1800",
"M 	c #AE3000",
"N 	c #CD4200",
"O 	c #E14E00",
"P 	c #811800",
"Q 	c #6C0C00",
"R 	c #A42A00",
"S 	c #E04E00",
"T 	c #630600",
"U 	c #A12A00",
"V 	c #673636",
"W 	c #B34B1B",
"X 	c #6D3832",
"Y 	c #DE5506",
"Z 	c #992400",
"` 	c #5C0000",
" .	c #5E0000",
"..	c #610000",
"+.	c #630000",
"@.	c #851800",
"#.	c #942400",
"$.	c #A93000",
"%.	c #D44800",
"&.	c #7A3B2F",
"*.	c #591D10",
"=.	c #480C00",
"-.	c #F15A00",
";.	c #650000",
">.	c #6A0000",
",.	c #540000",
"'.	c #550000",
").	c #C94200",
"!.	c #C65014",
"~.	c #A4A4A4",
"{.	c #D55E15",
"].	c #621800",
"^.	c #2E0000",
"/.	c #551200",
"(.	c #E75400",
"_.	c #851200",
":.	c #6C0000",
"<.	c #5B0000",
"[.	c #5A0000",
"}.	c #570000",
"|.	c #530000",
"1.	c #9E2A00",
"2.	c #B1B1B1",
"3.	c #DA8B5A",
"4.	c #202020",
"5.	c #BF4800",
"6.	c #711E00",
"7.	c #E34E00",
"8.	c #730600",
"9.	c #710000",
"0.	c #B33600",
"a.	c #683737",
"b.	c #C3AFA3",
"c.	c #BCBCBC",
"d.	c #DD8E5E",
"e.	c #8E8E8E",
"f.	c #0A0A0A",
"g.	c #000000",
"h.	c #9F3C00",
"i.	c #892A00",
"j.	c #430000",
"k.	c #7C0C00",
"l.	c #700000",
"m.	c #720000",
"n.	c #922400",
"o.	c #743C36",
"p.	c #787878",
"q.	c #7F3000",
"r.	c #963000",
"s.	c #520000",
"t.	c #D04200",
"u.	c #7B0500",
"v.	c #620000",
"w.	c #BE3C00",
"x.	c #871E00",
"y.	c #BD3C00",
"z.	c #BE4F19",
"A.	c #FA660B",
"B.	c #815941",
"C.	c #350000",
"D.	c #C13C00",
"E.	c #C93C00",
"F.	c #6B0000",
"G.	c #680000",
"H.	c #660C00",
"I.	c #EE772F",
"J.	c #A27A62",
"K.	c #4F1E00",
"L.	c #CA4800",
"M.	c #450000",
"N.	c #CB4200",
"O.	c #C73C00",
"P.	c #690000",
"Q.	c #5D0000",
"R.	c #D74800",
"S.	c #811200",
"T.	c #CAA28A",
"U.	c #979797",
"V.	c #0B0B0B",
"W.	c #AB2A00",
"X.	c #D84900",
"Y.	c #740900",
"Z.	c #7D0E00",
"`.	c #C93E00",
" +	c #E58346",
".+	c #CCA58D",
"++	c #989898",
"@+	c #D74E00",
"#+	c #3B0000",
"$+	c #EA5400",
"%+	c #A12400",
"&+	c #6D0300",
"*+	c #6C0600",
"=+	c #720900",
"-+	c #7A0E00",
";+	c #EA5600",
">+	c #690F00",
",+	c #580A00",
"'+	c #C4B0A4",
")+	c #232323",
"!+	c #480000",
"~+	c #600300",
"{+	c #891A00",
"]+	c #F85C00",
"^+	c #981A00",
"/+	c #850D00",
"(+	c #820C00",
"_+	c #660600",
":+	c #590300",
"<+	c #500000",
"[+	c #CC4800",
"}+	c #340000",
"|+	c #802400",
"1+	c #B0B0B0",
"2+	c #630400",
"3+	c #710A00",
"4+	c #7A0F00",
"5+	c #841500",
"6+	c #821700",
"7+	c #6A1100",
"8+	c #7D2000",
"9+	c #F75B00",
"0+	c #7D1300",
"a+	c #E55400",
"b+	c #821500",
"c+	c #7F1200",
"d+	c #891900",
"e+	c #761400",
"f+	c #5E0E00",
"g+	c #4E0900",
"h+	c #3A0300",
"i+	c #300000",
"j+	c #7D2400",
"k+	c #670600",
"l+	c #701200",
"m+	c #D84E00",
"n+	c #661800",
"o+	c #F27223",
"p+	c #F75C00",
"q+	c #C54200",
"r+	c #822500",
"s+	c #490C00",
"t+	c #8A2A00",
"u+	c #7B1800",
"v+	c #D59975",
"w+	c #B13C00",
"x+	c #701E00",
"y+	c #3C0600",
"z+	c #D64800",
"A+	c #861E00",
"B+	c #F66C17",
"C+	c #C8AA98",
"D+	c #D99469",
"E+	c #EA7D3A",
"F+	c #A43600",
"G+	c #CB4800",
"H+	c #F25A00",
"I+	c #DE4E00",
"J+	c #C0B6B0",
"K+	c #E18852",
"L+	c #1F0C00",
"  . . . . . . . . . . . . . . . . . . . . . . . . . . . . . + @ ",
"# $ $ $ $ $ $ $ $ $ $ $ $ $ $ $ $ $ $ $ $ $ $ $ $ $ $ $ $ $ . @ ",
"# $ $ $ $ $ $ $ $ $ $ $ $ $ $ $ $ $ $ $ $ $ $ $ $ $ $ $ $ $ . @ ",
"# $ $ $ $ $ $ $ $ $ $ $ % & # $ * * $ $ $ $ $ $ $ $ $ $ $ $ . @ ",
"# $ $ $ $ $ $ $ $ $ $ = - ; > > > > - +   . # % $ $ $ $ $ $ . @ ",
"# $ $ $ $ $ $ $ $ *   , ' ) ! ~ { ] ^ / ( _ : ~ > < + . [ $ . @ ",
"# $ $ $ $ $ $ $ # < } | 1 2 3 4 , 5 ] ] ] ] ] ] ] 5 / 6 > * . @ ",
"# $ $ $ $ $ $ [ ; 7 8 8 9 2 0 a b c d ] ] ] ] ] ] ] ^ , > $ . @ ",
"# $ $ $ $ *   ~ e 8 8 f g 2 2 h a i j _ ] ] ] ] ] k l m < $ . @ ",
"# $ $ $ n < ; o e 8 8 p g 2 q r a a s t } ^ ] u v w ; x + $ . @ ",
"# $ $ $ $ > j y j ; : z A B C g a a a a D ~ E F h y G x H $ . @ ",
"# $ $ $ $ > I J h K L M M N O > t D 4 P Q R S T U m V W . $ . @ ",
"# $ $ $ $ > X Y Z `  ... .r +.+.@.#.$.%.j O j t c &.V W . $ . @ ",
"# $ $ $ $ - *.=.-.Z ;.>.g ;.+.+...,.'.h a P #.).!.V V m = $ . @ ",
"# $ $ $ ~.{.].^./.(._.>.>.:.2 g +.<.[.}.'.|.|.1.> &.V m # 2.3.@ ",
"# $ $ ~.4.5.].^.^.6.7.8.>.:.q q 9.g ,.|.|.|.|.0.> W a., b.c.d.@ ",
"# $ e.f.g.h.i.^.^.j.b 7.k.2 l.m.9.l...a |.|.|.$.n.; o.> c.c.d.@ ",
"# p.f.g.g.q.r.^.^.s.a 4 t.u.m.9.l.l.0 v.r a |.w.x.y.z.A.c.c.d.@ ",
"B.g.g.g.g.q.r.^.C.a a a D.E.2 >.F.:.G.r v.v.r t L H.> I.c.c.d.@ ",
"J.f.g.g.g.K.L.^.M.a a h r N.O.>.>.>.P.Q.Q.Q. .R.S.` y I.c.c.d.@ ",
"T.U.V.g.g.@ L.^.s.a h 3 [.T t W.>.>.>...Q.Q.Q.X.Y.Z.`. +c.c.d.@ ",
".+c.++V.g.@ @+#+a a Q.h h h T $+%+>.>.&+*+=+-+;+>+,+;+'+c.c.d.@ ",
".+c.c.~.)+g.> !+a <.h h h h ~+{+]+^+/+(+_+:+<+[+}+|+I.c.c.c.d.@ ",
".+c.c.c.1+)+> '.h h 2+3+4+5+6+7+8+9+0+Q.a <+<+[+}+a+.+c.c.c.d.@ ",
".+c.c.c.c.1+A.b+c+d+e+f+g+h+i+i+i+j+$+k+` <+l+m+n+o+c.c.c.c.d.@ ",
".+c.c.c.c.c.I.p+q+r+s+i+i+i+i+i+i+i+t+S k+,.u+[+[+v+c.c.c.c.d.@ ",
".+c.c.c.c.c.c.'+v+ +A.a+w+x+y+i+i+i+i+w+z+a A+m+B+c.c.c.c.c.d.@ ",
".+c.c.c.c.c.c.c.c.c.c.C+D+E+A.m+F+x+y+i+w+D.u+> D+c.c.c.c.c.d.@ ",
".+c.c.c.c.c.c.c.c.c.c.c.c.c.c.C+d.I.> G+F+H+I+A.J+c.c.c.c.c.d.@ ",
".+c.c.c.c.c.c.c.c.c.c.c.c.c.c.c.c.c.c..+K+o+A.v+c.c.c.c.c.c.d.@ ",
"D+.+.+.+.+.+.+.+.+.+.+.+.+.+.+.+.+.+.+.+.+.+.+.+.+.+.+.+.+.+ +@ ",
"q.q.q.q.q.q.q.q.q.q.q.q.q.q.q.q.q.q.q.q.q.q.q.q.q.q.q.q.q.q.q.L+"};
