/* XPM */
static char * dmmShelfEnableDMMobject_xpm[] = {
"32 32 106 2",
"  	c #E17E41",
". 	c #D78857",
"+ 	c #EB742B",
"@ 	c #3F1800",
"# 	c #C39B83",
"$ 	c #AFAFAF",
"% 	c #66BA7B",
"& 	c #5CB572",
"* 	c #62B877",
"= 	c #B4AAA4",
"- 	c #60B776",
"; 	c #3BA154",
"> 	c #359D4F",
", 	c #3AA053",
"' 	c #47A85F",
") 	c #4CAB64",
"! 	c #53B06A",
"~ 	c #329B4C",
"{ 	c #13832F",
"] 	c #066C1F",
"^ 	c #208D3B",
"/ 	c #319A4B",
"( 	c #148430",
"_ 	c #0F7F2A",
": 	c #12822E",
"< 	c #178632",
"[ 	c #228F3D",
"} 	c #2E9848",
"| 	c #40A459",
"1 	c #59B36F",
"2 	c #269341",
"3 	c #066F20",
"4 	c #06651D",
"5 	c #055C1B",
"6 	c #2B9645",
"7 	c #188733",
"8 	c #10802C",
"9 	c #05611C",
"0 	c #055B1A",
"a 	c #0A7B26",
"b 	c #1D8B38",
"c 	c #0D7D28",
"d 	c #349C4D",
"e 	c #077823",
"f 	c #78C088",
"g 	c #1B8936",
"h 	c #077522",
"i 	c #055E1B",
"j 	c #05601C",
"k 	c #299544",
"l 	c #0E7E29",
"m 	c #06681E",
"n 	c #24903F",
"o 	c #198835",
"p 	c #077722",
"q 	c #097A25",
"r 	c #4AAA62",
"s 	c #218E3C",
"t 	c #2C9746",
"u 	c #0B7C27",
"v 	c #067321",
"w 	c #06631D",
"x 	c #044F17",
"y 	c #055719",
"z 	c #1E8C3A",
"A 	c #A4A4A4",
"B 	c #044413",
"C 	c #05591A",
"D 	c #055619",
"E 	c #B1B1B1",
"F 	c #DA8B5A",
"G 	c #044C16",
"H 	c #ABC9AA",
"I 	c #BCBCBC",
"J 	c #DD8E5E",
"K 	c #033910",
"L 	c #03310E",
"M 	c #044E16",
"N 	c #815941",
"O 	c #044714",
"P 	c #A27A62",
"Q 	c #055418",
"R 	c #CAA28A",
"S 	c #259240",
"T 	c #066A1F",
"U 	c #51AF68",
"V 	c #CCA58D",
"W 	c #55B16C",
"X 	c #044915",
"Y 	c #9AC8A0",
"Z 	c #64B979",
"` 	c #067121",
" .	c #B0B0B0",
"..	c #70BF84",
"+.	c #044514",
"@.	c #44A65C",
"#.	c #7AC58D",
"$.	c #044B16",
"%.	c #74C287",
"&.	c #4EAC65",
"*.	c #C5C4BB",
"=.	c #57B26D",
"-.	c #D99469",
";.	c #E58346",
">.	c #7F3000",
",.	c #1F0C00",
"  . . . . . . . . . . . . . . . . . . . . . . . . . . . . . + @ ",
"# $ $ $ $ $ $ $ $ $ $ $ $ $ $ $ $ $ $ $ $ $ $ $ $ $ $ $ $ $ . @ ",
"# $ $ $ $ $ $ $ $ $ $ $ $ $ $ $ $ $ $ $ $ $ $ $ $ $ $ $ $ $ . @ ",
"# $ $ $ $ $ $ $ $ $ $ $ % & * $ = = $ $ $ $ $ $ $ $ $ $ $ $ . @ ",
"# $ $ $ $ $ $ $ $ $ $ - ; > , , , , ; ' ) ! * % $ $ $ $ $ $ . @ ",
"# $ $ $ $ $ $ $ $ = ) ~ { ] ^ / ( _ : < ^ [ } / , | ' ! 1 $ . @ ",
"# $ $ $ $ $ $ $ * | 2 : 3 4 5 : ~ ( _ _ _ _ _ _ _ ( < 6 , = . @ ",
"# $ $ $ $ $ $ 1 > 7 8 8 4 4 9 0 a / b _ _ _ _ _ _ _ : ~ , $ . @ ",
"# $ $ $ $ = ) / ( 8 8 c 9 4 4 0 0 ] d [ _ _ _ _ _ e ( } | $ . @ ",
"# $ $ $ f | > g ( 8 8 h 9 4 4 i 0 0 j k 2 : _ l m ] > 7 ' $ . @ ",
"# $ $ $ $ , d n d > } o ( 8 p 9 0 0 0 0 g / q i 0 n g 7 r $ . @ ",
"# $ $ $ $ , } { 0 0 3 ( ( ^ 6 , k g : 3 4 8 6 j _ } c s ! $ . @ ",
"# $ $ $ $ , l t u 0 5 i 5 i j j v q : n d 6 d k / : c s ! $ . @ ",
"# $ $ $ $ ; w x / u j w 9 j j j i y y 0 0 3 q z 2 c c } - $ . @ ",
"# $ $ $ A } j B y } v w w 4 4 9 j 0 0 C y D D l , : c } * E F @ ",
"# $ $ A G o j B B m 6 m w 4 4 4 m 9 y D D D D ( , s l ~ H I J @ ",
"# $ r K L l h B B M a 6 3 4 m m m m i 0 D D D : q > : , I I J @ ",
"# / K L L 3 a B B D 0 : [ ] m m m m 9 j i 0 D o v o n ; I I J @ ",
"N L L L L 3 a B O 0 0 0 g z 4 w w 4 w i j j i k 3 9 , r I I J @ ",
"P K L L L Q ^ B x 0 0 0 i ^ z w w w w 0 0 0 5 n 3 0 n r I I J @ ",
"R ! K L L G ^ B D 0 0 5 0 j k : w w w i 0 0 0 S T 3 z U I I J @ ",
"V I W K L G n X 0 0 0 0 0 0 j } _ w w 4 4 m ] } w 0 } Y I I J @ ",
"V I I Z x L , x 0 0 0 0 0 0 i h > u v ` 9 0 Q ^ O 3 r I I I J @ ",
"V I I I  .x , y 0 0 j m ] v ` w 3 d 3 0 0 Q Q ^ O t ..I I I J @ ",
"V I I I I  .; ` 3 h ] 5 Q X +.+.+.3 } 9 0 Q m S 9 @.I I I I J @ ",
"V I I I I I r d b ` x +.+.+.+.+.+.+.p 6 9 y ] ^ ^ % I I I I J @ ",
"V I I I I I I #.% U ; t ( m $.+.+.+.+.( n 0 v S | I I I I I J @ ",
"V I I I I I I I I I I %.* &.; S 8 m $.+.( g ] , * I I I I I J @ ",
"V I I I I I I I I I I I I I I %.& r , ^ 8 ~ k ; *.I I I I I J @ ",
"V I I I I I I I I I I I I I I I I I I ..=.@.; % I I I I I I J @ ",
"-.V V V V V V V V V V V V V V V V V V V V V V V V V V V V V ;.@ ",
">.>.>.>.>.>.>.>.>.>.>.>.>.>.>.>.>.>.>.>.>.>.>.>.>.>.>.>.>.>.>.,."};
