/* XPM */
static char * dmmShelfPolyToTetCage_xpm[] = {
"32 32 259 2",
"  	c #D57235",
". 	c #C77847",
"+ 	c #F16611",
"@ 	c #000000",
"# 	c #AB836B",
"$ 	c #8F8F8F",
"% 	c #938D8A",
"& 	c #7C6696",
"* 	c #614EA2",
"= 	c #7469A0",
"- 	c #E36C23",
"; 	c #5745A9",
"> 	c #4635B0",
", 	c #4A34AC",
"' 	c #55379C",
") 	c #3815A0",
"! 	c #451A9B",
"~ 	c #4328AB",
"{ 	c #4835AF",
"] 	c #412FB4",
"^ 	c #4737B7",
"/ 	c #A86F6F",
"( 	c #CD4040",
"_ 	c #938A8A",
": 	c #B28062",
"< 	c #734996",
"[ 	c #4835AE",
"} 	c #4833AC",
"| 	c #2F1295",
"1 	c #000073",
"2 	c #000074",
"3 	c #000077",
"4 	c #0F0671",
"5 	c #1809CA",
"6 	c #3113BE",
"7 	c #3A16BA",
"8 	c #4D1FB2",
"9 	c #B46460",
"0 	c #F60C0C",
"a 	c #F11313",
"b 	c #AB6C6C",
"c 	c #BA7F5A",
"d 	c #451A8A",
"e 	c #341375",
"f 	c #341384",
"g 	c #341393",
"h 	c #0F066B",
"i 	c #000075",
"j 	c #000079",
"k 	c #1407CC",
"l 	c #3113C3",
"m 	c #4018B9",
"n 	c #988383",
"o 	c #D73232",
"p 	c #FF0000",
"q 	c #D13B3B",
"r 	c #948888",
"s 	c #B28B72",
"t 	c #38158A",
"u 	c #0F0600",
"v 	c #1809B0",
"w 	c #220DB7",
"x 	c #220DC3",
"y 	c #1D0BC7",
"z 	c #3413BD",
"A 	c #3413BE",
"B 	c #220DCC",
"C 	c #0F0697",
"D 	c #0000A2",
"E 	c #3B16BC",
"F 	c #929292",
"G 	c #B36262",
"H 	c #F30F0F",
"I 	c #AF6767",
"J 	c #9F7B7B",
"K 	c #1407B0",
"L 	c #2D11C2",
"M 	c #1407D5",
"N 	c #999999",
"O 	c #969696",
"P 	c #909090",
"Q 	c #968787",
"R 	c #D53636",
"S 	c #D43838",
"T 	c #472499",
"U 	c #270FC9",
"V 	c #989898",
"W 	c #949494",
"X 	c #F21111",
"Y 	c #B06565",
"Z 	c #FE0202",
"` 	c #4E2699",
" .	c #0000A1",
"..	c #00009F",
"+.	c #979797",
"@.	c #919191",
"#.	c #E71E1E",
"$.	c #B85B5B",
"%.	c #5932A4",
"&.	c #0000A0",
"*.	c #00009E",
"=.	c #00009D",
"-.	c #959595",
";.	c #B55E5E",
">.	c #E62020",
",.	c #5633A8",
"'.	c #AC7070",
").	c #F40D0D",
"!.	c #AD6868",
"~.	c #5236AF",
"{.	c #260E66",
"].	c #2C11BC",
"^.	c #A78383",
"/.	c #D93A3A",
"(.	c #C05A5A",
"_.	c #A67373",
":.	c #A57272",
"<.	c #A17777",
"[.	c #4D38B6",
"}.	c #270FBC",
"|.	c #1D0BCE",
"1.	c #4A1CB3",
"2.	c #A59285",
"3.	c #D27942",
"4.	c #C58056",
"5.	c #663E26",
"6.	c #827872",
"7.	c #763B7D",
"8.	c #2C118A",
"9.	c #1407D4",
"0.	c #4722BC",
"a.	c #F26813",
"b.	c #EC5904",
"c.	c #F55D02",
"d.	c #E56F26",
"e.	c #BF845F",
"f.	c #9F958F",
"g.	c #3F1800",
"h.	c #4C4C4C",
"i.	c #9C887C",
"j.	c #784388",
"k.	c #37178D",
"l.	c #130766",
"m.	c #1F0C89",
"n.	c #4B20B6",
"o.	c #3B29CD",
"p.	c #DF722F",
"q.	c #8F341B",
"r.	c #702822",
"s.	c #6A2822",
"t.	c #923719",
"u.	c #C34A0D",
"v.	c #131313",
"w.	c #696969",
"x.	c #764D9A",
"y.	c #401C91",
"z.	c #3614B3",
"A.	c #4D1FB3",
"B.	c #3D28CB",
"C.	c #CC7D4C",
"D.	c #EF600B",
"E.	c #B44312",
"F.	c #6A2525",
"G.	c #692525",
"H.	c #672525",
"I.	c #9C3B17",
"J.	c #612525",
"K.	c #CD4E0B",
"L.	c #FF6100",
"M.	c #262626",
"N.	c #858585",
"O.	c #6E51A5",
"P.	c #2617DE",
"Q.	c #EB6B1C",
"R.	c #88341B",
"S.	c #E15506",
"T.	c #742C20",
"U.	c #EA5904",
"V.	c #D95209",
"W.	c #A13B17",
"X.	c #EB5904",
"Y.	c #A63F14",
"Z.	c #090909",
"`.	c #565656",
" +	c #727272",
".+	c #F45D02",
"++	c #AE4312",
"@+	c #8F3719",
"#+	c #D65209",
"$+	c #B24312",
"%+	c #B94610",
"&+	c #7F301E",
"*+	c #89341B",
"=+	c #D25B13",
"-+	c #993B17",
";+	c #7B301E",
">+	c #5C2525",
",+	c #702C20",
"'+	c #C14A0D",
")+	c #D75209",
"!+	c #6B2822",
"~+	c #622525",
"{+	c #6F482F",
"]+	c #393939",
"^+	c #BF4800",
"/+	c #6D1C04",
"(+	c #983309",
"_+	c #E05506",
":+	c #5A2525",
"<+	c #5E2822",
"[+	c #943B17",
"}+	c #E95904",
"|+	c #B04312",
"1+	c #5F5F5F",
"2+	c #691800",
"3+	c #360000",
"4+	c #CC4800",
"5+	c #AB4010",
"6+	c #5B2525",
"7+	c #582525",
"8+	c #552525",
"9+	c #D45209",
"0+	c #2F2F2F",
"a+	c #4F0C00",
"b+	c #F25A00",
"c+	c #621906",
"d+	c #521B1B",
"e+	c #DF5506",
"f+	c #772C20",
"g+	c #B88769",
"h+	c #681800",
"i+	c #8D2A00",
"j+	c #D94E00",
"k+	c #440D0D",
"l+	c #572020",
"m+	c #742822",
"n+	c #A03B17",
"o+	c #9A3000",
"p+	c #380202",
"q+	c #6B2525",
"r+	c #B54312",
"s+	c #F86409",
"t+	c #8F3600",
"u+	c #E55400",
"v+	c #812400",
"w+	c #5B1200",
"x+	c #490404",
"y+	c #662020",
"z+	c #90341B",
"A+	c #AC8E7C",
"B+	c #1C1C1C",
"C+	c #F35A00",
"D+	c #5C1717",
"E+	c #A23B17",
"F+	c #DA5209",
"G+	c #9F775F",
"H+	c #D87639",
"I+	c #924313",
"J+	c #AF602F",
"  . . . . . . . . . . . . . . . . . . . . . . . . . . . . . + @ ",
"# $ $ $ $ $ % & * & = $ $ $ $ $ $ $ $ $ $ $ $ $ $ $ $ $ $ $ - @ ",
"# $ $ % ; > , ' ) ! ~ , { ] ^ $ / ( _ $ $ $ $ $ $ $ $ $ $ $ - @ ",
": < [ } ! | 1 1 1 2 3 4 5 6 7 8 9 0 a b $ $ $ $ $ $ $ $ $ $ - @ ",
"c d e f g h 1 i 3 j j k 6 7 l m $ n o p q r $ $ $ $ $ $ $ $ - @ ",
"s t @ @ u v w x k y z A B C D E F $ $ G H a I $ $ $ $ J $ $ - @ ",
"s d @ @ @ @ @ @ K L M D D D D E N O P $ Q R p S Q $ $ o $ $ - @ ",
"s T @ @ @ @ @ @ @ U D D D D D E N N V W $ $ I X H Y Q Z n $ - @ ",
"s ` @ @ @ @ @ @ @ U D D D  ...E N N N N +.@.$ r q p #.p $.$ - @ ",
"s %.@ @ @ @ @ @ @ U D &.*.=.=.E N N N N N N -.$ $ ;.p p >.$ - @ ",
"s ,.@ @ @ @ @ @ @ U *.=.=.=.=.E N N N N N N N V '.).p p p !.- @ ",
"s ~.{.@ @ @ @ @ @ ].=.=.=.=.=.E N N N N N N N ^./.(._.:.:.<.- @ ",
"s [.{.@ @ @ @ @ @ }.=.=.=.=.|.1.2.N N 3.4.2.N N N N N W $ $ - @ ",
"5.6.7.8.@ @ @ @ @ }.=.=.9.E 0.s N s a.b.c.c.d.e.f.N N N +.F - @ ",
"g.@ h.i.j.k.l.@ @ }.m.E n.o.N 2.p.b.q.r.c.s.t.u.c.p.e.f.N N d.@ ",
"g.@ @ v.w.f.x.y.{.z.A.B.N N C.D.E.F.G.H.u.I.J.J.J.t.K.L.p.f.d.@ ",
"g.@ @ @ @ M.N.N O.P.f.N N Q.L.q.F.F.G.H.R.S.J.J.J.J.T.S.L.N d.@ ",
"g.@ @ @ @ @ v.N.N N N N N d.L.U.V.W.G.H.J.X.R.J.J.t.c.Y.L.N d.@ ",
"g.@ @ @ Z.`.N N N  +h. +N Q..+++@+#+b.$+s.Y.u.s.%+X.&+*+d.N d.@ ",
"g.@ @ h.$ N N N.M.@ @ @ M.=+-+.+;+>+,+'+.+)+L.)+K.!+~+*+d.N d.@ ",
"{+]+N.N N $ h.@ @ @ @ @ @ ^+/+(+_+>+>+:+<+[+}+c.!+~+~+|+3.N d.@ ",
"s N N N 1+Z.@ @ @ @ @ @ @ ^+2+3+4+5+>+6+7+8+9+S.S.!+~+|+C.N d.@ ",
"s N N $ 0+@ @ @ @ @ @ @ @ ^+2+3+a+b+c+d+>+>+e+f+|+X.&+K.g+N d.@ ",
"s N N N N  +v.@ @ @ @ @ @ ^+h+3+3+i+j+3+k+l+_+m+G.n+c.X.s N d.@ ",
"s N N N N N N h.Z.@ @ @ @ ^+h+3+3+3+4+o+3+p+L.q+q+q+r+s+2.N d.@ ",
"s N N N N N N N N.0+@ @ @ t+u+v+3+3+a+b+w+3+L.x+y+z+D.A+N N d.@ ",
"s N N N N N N N N N  +B+@ @ g.^+u+v+3+i+j+a+C+D+E+s+A+N N N d.@ ",
"s N N N N N N N N N N N 1+v.@ @ g.^+u+v+4+4+F+E+s+A+N N N N d.@ ",
"s N N N N N N N N N N N N N 1+v.@ @ g.^+b+L.c.s+A+N N N N N d.@ ",
"s N N N N N N N N N N N N N N N 1+v.@ Z.G+d.Q.2.N N N N N N d.@ ",
"H+C.C.C.C.C.C.C.C.C.C.C.C.C.C.C.C.C.I+J+C.C.C.C.C.C.C.C.C.C.a.@ ",
"g.g.g.g.g.g.g.g.g.g.g.g.g.g.g.g.g.g.g.g.g.g.g.g.g.g.g.g.g.g.g.@ "};
