/* XPM */
static char * dmmShelfPolyToAutoCage_xpm[] = {
"32 32 273 2",
"  	c #E95B14",
". 	c #000000",
"+ 	c #999999",
"@ 	c #7A7A93",
"# 	c #494A89",
"$ 	c #52508D",
"% 	c #4C4C8B",
"& 	c #50518B",
"* 	c #949398",
"= 	c #817F93",
"- 	c #313185",
"; 	c #2B2E83",
"> 	c #292D82",
", 	c #2A2778",
"' 	c #28216D",
") 	c #211760",
"! 	c #28226F",
"~ 	c #2B2B7F",
"{ 	c #434088",
"] 	c #8E8D97",
"^ 	c #868594",
"/ 	c #2B2167",
"( 	c #2A2A7C",
"_ 	c #262A81",
": 	c #2F2C7D",
"< 	c #1F145D",
"[ 	c #261E6A",
"} 	c #2D2775",
"| 	c #281E69",
"1 	c #3C4071",
"2 	c #352C6D",
"3 	c #242980",
"4 	c #292574",
"5 	c #282B82",
"6 	c #261D68",
"7 	c #1F265D",
"8 	c #3E4174",
"9 	c #B38173",
"0 	c #A68D86",
"a 	c #898897",
"b 	c #2B2C81",
"c 	c #2A297A",
"d 	c #212760",
"e 	c #4C4A81",
"f 	c #CC684D",
"g 	c #EE4519",
"h 	c #F53F0F",
"i 	c #EB481F",
"j 	c #FA3908",
"k 	c #F04417",
"l 	c #DB5435",
"m 	c #D46041",
"n 	c #31296F",
"o 	c #2A216C",
"p 	c #281F6B",
"q 	c #2E2D7B",
"r 	c #312B6F",
"s 	c #D3502B",
"t 	c #A63149",
"u 	c #89385E",
"v 	c #8A3F5C",
"w 	c #9B5C48",
"x 	c #A84B41",
"y 	c #A14C58",
"z 	c #AB7B77",
"A 	c #D6593D",
"B 	c #656187",
"C 	c #1A1540",
"D 	c #0C0B1A",
"E 	c #23214E",
"F 	c #222463",
"G 	c #2C2A7B",
"H 	c #21185D",
"I 	c #201C4C",
"J 	c #6C698B",
"K 	c #9F938F",
"L 	c #EE4619",
"M 	c #A56B52",
"N 	c #D33B22",
"O 	c #983B52",
"P 	c #A73847",
"Q 	c #972857",
"R 	c #8B4C58",
"S 	c #925D5C",
"T 	c #DD5634",
"U 	c #494580",
"V 	c #292658",
"W 	c #211E46",
"X 	c #322B77",
"Y 	c #423E84",
"Z 	c #332D72",
"` 	c #353075",
" .	c #14132C",
"..	c #4B4778",
"+.	c #E0542E",
"@.	c #B05E56",
"#.	c #B52E3E",
"$.	c #A62B4B",
"%.	c #983553",
"&.	c #A73E45",
"*.	c #962159",
"=.	c #871E66",
"-.	c #904364",
";.	c #C06A58",
">.	c #5B5977",
",.	c #201A4F",
"'.	c #504A7E",
").	c #484664",
"!.	c #C66E56",
"~.	c #BF6847",
"{.	c #882564",
"].	c #E1311A",
"^.	c #893260",
"/.	c #882B62",
"(.	c #975B66",
"_.	c #DA5637",
":.	c #838296",
"<.	c #201952",
"[.	c #D26243",
"}.	c #E54C26",
"|.	c #CE3F2A",
"1.	c #F0340D",
"2.	c #C4382F",
"3.	c #C32B33",
"4.	c #CC3929",
"5.	c #C43131",
"6.	c #CE5532",
"7.	c #B6695C",
"8.	c #CC4027",
"9.	c #BD3C34",
"0.	c #8C5955",
"a.	c #915060",
"b.	c #B27672",
"c.	c #E2522C",
"d.	c #DA5A37",
"e.	c #AE5049",
"f.	c #D33424",
"g.	c #972E55",
"h.	c #8A455A",
"i.	c #AC726B",
"j.	c #E54E21",
"k.	c #C4622E",
"l.	c #BE4930",
"m.	c #8B5257",
"n.	c #9C6944",
"o.	c #8C5F53",
"p.	c #8E734D",
"q.	c #A26F5D",
"r.	c #E94A20",
"s.	c #79788C",
"t.	c #E74E24",
"u.	c #E9491B",
"v.	c #AC664E",
"w.	c #CA4D2E",
"x.	c #C56351",
"y.	c #986862",
"z.	c #E44E28",
"A.	c #AC877C",
"B.	c #5D5C70",
"C.	c #463F78",
"D.	c #FA3B08",
"E.	c #E23718",
"F.	c #A5244D",
"G.	c #E54515",
"H.	c #F53D0F",
"I.	c #DF5230",
"J.	c #4E4C65",
"K.	c #E54A26",
"L.	c #FA3808",
"M.	c #AE3940",
"N.	c #DB4E24",
"O.	c #C76554",
"P.	c #D65C3D",
"Q.	c #84848E",
"R.	c #373549",
"S.	c #281F66",
"T.	c #726F8B",
"U.	c #CF5730",
"V.	c #B7726B",
"W.	c #D16045",
"X.	c #7E7C95",
"Y.	c #3F3D5B",
"Z.	c #52506E",
"`.	c #231963",
" +	c #413977",
".+	c #251C66",
"++	c #E0502E",
"@+	c #DB3E1A",
"#+	c #AD7A7A",
"$+	c #5D5883",
"%+	c #55507F",
"&+	c #393173",
"*+	c #74718E",
"=+	c #C53F2B",
"-+	c #AC7C7C",
";+	c #CC4D4D",
">+	c #7B7992",
",+	c #F04317",
"'+	c #EB451F",
")+	c #A03D4B",
"!+	c #8F2060",
"~+	c #D15845",
"{+	c #B37373",
"]+	c #F90A0A",
"^+	c #EC1D1D",
"/+	c #A68686",
"(+	c #D4593A",
"_+	c #F3400C",
":+	c #D34A2D",
"<+	c #FF3200",
"[+	c #E84B22",
"}+	c #E62626",
"|+	c #BF6060",
"1+	c #BA6651",
"2+	c #90335A",
"3+	c #9E2353",
"4+	c #8A3163",
"5+	c #CB543D",
"6+	c #C76254",
"7+	c #FF0000",
"8+	c #D93939",
"9+	c #9F8F8F",
"0+	c #E74C24",
"a+	c #AC7558",
"b+	c #B55A4E",
"c+	c #B2554D",
"d+	c #C04F31",
"e+	c #8A2462",
"f+	c #B74B34",
"g+	c #AA3644",
"h+	c #A5354D",
"i+	c #D93E1F",
"j+	c #D15A45",
"k+	c #F21313",
"l+	c #EC471D",
"m+	c #E64325",
"n+	c #D8503A",
"o+	c #E74323",
"p+	c #F13C15",
"q+	c #A7464A",
"r+	c #AE5C5B",
"s+	c #C36159",
"t+	c #C65D50",
"u+	c #B35E53",
"v+	c #B74D40",
"w+	c #E73F13",
"x+	c #EB411F",
"y+	c #D95B39",
"z+	c #DF3030",
"A+	c #B96969",
"B+	c #D26143",
"C+	c #C36359",
"D+	c #B56E6E",
"E+	c #D5533E",
"F+	c #DA5037",
"G+	c #AE7163",
"H+	c #C85D53",
"I+	c #B26F68",
"J+	c #D15645",
"K+	c #F6390E",
"L+	c #E1512D",
"M+	c #BA6A67",
"N+	c #BE6660",
"O+	c #C86053",
"P+	c #DA5137",
"Q+	c #DF4F30",
"R+	c #E64E26",
"S+	c #EB451E",
"T+	c #F13B15",
"U+	c #D35C42",
"V+	c #D65C3E",
"W+	c #CC674D",
"X+	c #BF7460",
"                                                              . ",
"  + + + + + + + + + + + + + + + + + + + + + + + + + + + + +   . ",
"  + + + @ # # # # $ % & * + + + + + + + + + + + + + + + + +   . ",
"  + + = - ; > , ' ) ! ~ { ] + + + + + + + + + + + + + + + +   . ",
"  + ^ / ( _ : < < < [ } | 1 * + + + + + + + + + + + + + + +   . ",
"  * 2 < ! ; 3 ! < 4 5 6 | 7 8 + + + 9 9 9 9 9 9 0 + + + + +   . ",
"  a / < ) - 3 b ( 3 c < | d e + f g h i i i i j k l m + + +   . ",
"  + ^ n o p q ; 3 _ 6 < o r ] 9 l s t u u v w x y z A 9 + +   . ",
"  + + B ) C D E F G < H I J K L M N u v O P Q u R S z T + +   . ",
"  + + * U V W X Y Z `  ...+ +.@.#.$.%.&.*.=.=.u v u -.;.f +   . ",
"  + + + + ] >.,.< '.] ).] !.~.{.].P O {.^./.u ^.{.u =.(._.0   . ",
"  + + + + + :.<.< B + + + [.}.|.1.2.2.3.4.5.3.2.3.2.5.6.}.f   . ",
"  + + + + + :.<.< B + + + + m 7.8.9.%.0./.=.^.{.=.R a.b.c.K   . ",
"  + + + + + :.<.< B + + + + + d.e.f.g.&.v v h.=.^.R i.T K +   . ",
"  + + + + + :.<.< B + + + + + K j.k.l.m.x n.o.p.u q.r.K + +   . ",
"  + + + + + s.<.< B + + + + + + K t.u.v.u *.w.x.y.z.A.+ + +   . ",
"  + + + + + B.<.< C.+ + + + + + + K D.E.P F.G.H.I.A.+ + + +   . ",
"  + + + + + J.<.< C.+ + + + + + + + K.L.M.F.N.O.P.+ + + + +   . ",
"  + + + Q.R.. S.< / T.+ + + + + + + A i u =.U.V.W.+ + + + +   . ",
"  + + X.Y.J.Z.`. +.+) T.+ + + + + + ++++u =.@+#+W.+ + + + +   . ",
"  + + + + + $+%++ * J &+*++ + + + + i A u F.=+#+W.+ + + + +   . ",
"  + + -+;++ >++ + + + + a + + + + K ,+'+)+!+=+~+W.+ + + + +   . ",
"  + + {+]+^+/++ + + + + + + + + K T (+_+f.3.:+<+[+K + + + +   . ",
"  + + + /+}+]+|++ + + /++ + + K T 1+2+E.t 3+4+5+6+c.K + + +   . ",
"  + + + + + ;+7+8+9++ 8++ + K 0+a+b+c+d+e+f+g+h+i+j+d.+ + +   . ",
"  + + + + + + {+k+k+{+7+-++ l+m+n+o+p+q+r+s+t+u+v+w+x+y++ +   . ",
"  + + + + + + + 9+z+7+7+A++ B+C+D+E+F+G+s+H+D+D+D+I+J+K+f +   . ",
"  + + + + + + + + ;+7+7+;++ + L+M+p+N+H+M+D+D+D+C+O+P+Q+R+0   . ",
"  + + + + + + + ;+z+;+A+/++ + K S+T+E+P+Q+U+V+W+X+9 K + + +   . ",
"  + + + + + + + + + + + + + + + A.X+9 K + + + + + + + + + +   . ",
"                                                              . ",
". . . . . . . . . . . . . . . . . . . . . . . . . . . . . . . . "};
