/* XPM */
static char * dmmShelfPolyCylinder_xpm[] = {
"32 32 210 2",
"  	c #E17E41",
". 	c #D78857",
"+ 	c #F56A15",
"@ 	c #000000",
"# 	c #C39B83",
"$ 	c #AFAFAF",
"% 	c #B9A599",
"& 	c #D28C62",
"* 	c #DC834C",
"= 	c #B4AAA4",
"- 	c #EB742B",
"; 	c #CD916D",
"> 	c #F06F20",
", 	c #FF6100",
"' 	c #F65D02",
") 	c #DB530A",
"! 	c #C94C10",
"~ 	c #DA530A",
"{ 	c #C74C10",
"] 	c #FA650A",
"^ 	c #E45608",
"/ 	c #C04912",
"( 	c #ED5A05",
"_ 	c #8A3522",
": 	c #6F2B2B",
"< 	c #933820",
"[ 	c #B54615",
"} 	c #6B2B2B",
"| 	c #863522",
"1 	c #AB4218",
"2 	c #EC5A05",
"3 	c #F55D02",
"4 	c #D9530A",
"5 	c #BEA08E",
"6 	c #B74615",
"7 	c #A53F1A",
"8 	c #AE4218",
"9 	c #D2500D",
"0 	c #E35608",
"a 	c #AC4218",
"b 	c #903820",
"c 	c #A03F1A",
"d 	c #CF500D",
"e 	c #E25608",
"f 	c #752E28",
"g 	c #A33F1A",
"h 	c #BE4912",
"i 	c #873522",
"j 	c #672B2B",
"k 	c #A54218",
"l 	c #702B2B",
"m 	c #6C2B2B",
"n 	c #7E3125",
"o 	c #D7530A",
"p 	c #E15608",
"q 	c #873820",
"r 	c #D8530A",
"s 	c #CE500D",
"t 	c #EB5A05",
"u 	c #D1500D",
"v 	c #893820",
"w 	c #AF4615",
"x 	c #652B2B",
"y 	c #783125",
"z 	c #8C3820",
"A 	c #B24615",
"B 	c #C54C10",
"C 	c #BD4912",
"D 	c #B44615",
"E 	c #A13F1A",
"F 	c #8E3820",
"G 	c #833522",
"H 	c #642B2B",
"I 	c #B94912",
"J 	c #813522",
"K 	c #662B2B",
"L 	c #722E28",
"M 	c #692B2B",
"N 	c #B04615",
"O 	c #773125",
"P 	c #953B1D",
"Q 	c #6E2E28",
"R 	c #8A3820",
"S 	c #C44C10",
"T 	c #999999",
"U 	c #838383",
"V 	c #575757",
"W 	c #AB5C2B",
"X 	c #C24502",
"Y 	c #902A00",
"Z 	c #DA4E00",
"` 	c #872E10",
" .	c #571D1D",
"..	c #622828",
"+.	c #7B3125",
"@.	c #7F3000",
"#.	c #A53600",
"$.	c #A83600",
"%.	c #B53C00",
"&.	c #3A0000",
"*.	c #420808",
"=.	c #632828",
"-.	c #C64C10",
";.	c #AA4218",
">.	c #9E3F1A",
",.	c #B3B3B3",
"'.	c #EC762D",
").	c #A4A4A4",
"!.	c #2B2B2B",
"~.	c #3F1800",
"{.	c #B23C00",
"].	c #9C3000",
"^.	c #460600",
"/.	c #F25A00",
"(.	c #3D0202",
"_.	c #AA3D0D",
":.	c #973B1D",
"<.	c #B14615",
"[.	c #CCA58D",
"}.	c #BCBCBC",
"|.	c #EE772F",
"1.	c #AD856D",
"2.	c #0A0A0A",
"3.	c #D84E00",
"4.	c #C14200",
"5.	c #832400",
"6.	c #9D3000",
"7.	c #AE4010",
"8.	c #662C2C",
"9.	c #B24716",
"0.	c #B89078",
"a.	c #CD4800",
"b.	c #9E3000",
"c.	c #4E1010",
"d.	c #BA4610",
"e.	c #AB4319",
"f.	c #6C2E2E",
"g.	c #672E2E",
"h.	c #CF510E",
"i.	c #414141",
"j.	c #520C00",
"k.	c #3E0000",
"l.	c #651502",
"m.	c #D9540B",
"n.	c #0F0600",
"o.	c #771E00",
"p.	c #3B0000",
"q.	c #A93600",
"r.	c #7D1E00",
"s.	c #400000",
"t.	c #3F0000",
"u.	c #E65400",
"v.	c #7E2E1C",
"w.	c #6B2E2E",
"x.	c #E25708",
"y.	c #F66C17",
"z.	c #CAA28A",
"A.	c #B8B8B8",
"B.	c #747474",
"C.	c #852400",
"D.	c #C24200",
"E.	c #3C0000",
"F.	c #721800",
"G.	c #430000",
"H.	c #A13000",
"I.	c #AB3600",
"J.	c #531414",
"K.	c #D8540B",
"L.	c #757575",
"M.	c #CC4800",
"N.	c #540C00",
"O.	c #5A0C00",
"P.	c #F35A00",
"Q.	c #440000",
"R.	c #511111",
"S.	c #EA7D3A",
"T.	c #818181",
"U.	c #0B0B0B",
"V.	c #D04800",
"W.	c #7E1E00",
"X.	c #671200",
"Y.	c #E85702",
"Z.	c #DD8E5E",
"`.	c #989898",
" +	c #EF5A00",
".+	c #B33C00",
"++	c #6C1800",
"@+	c #892400",
"#+	c #C44200",
"$+	c #CF4800",
"%+	c #BA3F02",
"&+	c #E55400",
"*+	c #CE4800",
"=+	c #AC3600",
"-+	c #E75400",
";+	c #332923",
">+	c #DB4E00",
",+	c #B0B0B0",
"'+	c #C25F23",
")+	c #D59975",
"!+	c #C4B0A4",
"~+	c #912A00",
"{+	c #480600",
"]+	c #4E0600",
"^+	c #D09F81",
"/+	c #C0B6B0",
"(+	c #F27223",
"_+	c #E58346",
":+	c #E18852",
"<+	c #FA660B",
"  . . . . . . . . . . . . . . . . . . . . . . . . . . . . . + @ ",
"# $ $ $ $ $ $ $ $ $ $ $ $ $ % # & *   & # = $ $ $ $ $ $ $ $ - @ ",
"# $ $ $ $ $ $ $ $ $ ; - > , ' ) ! ! ~ { ~ , ] - - * $ $ $ $ - @ ",
"# $ $ $ $ $ $ $ % - ^ / ( ( / _ : < [ } | 1 2 3 { 4 > 5 $ $ - @ ",
"# $ $ $ $ $ $ * , ( 6 7 < 8 ^ , ( 9 0 2 , 0 a b b c d , . $ - @ ",
"# $ $ $ $ $ % , ^ 6 6 6 6 6 9 , , , 2 , , 0 [ [ [ d 4 e , ; - @ ",
"# $ $ $ $ $ $ , 3 _ : _ / ( ( / _ 6 [ f g 0 3 h i j j d , # - @ ",
"# $ $ $ $ $ $ + k ' ( , 9 _ l l l 6 [ m m m n [ 2 3 4 o p 5 - @ ",
"# $ $ $ $ $ $ - q o r s t ' ) 6 7 ! { b [ [ u ~ 3 p , v , $ - @ ",
"# $ $ $ $ $ $ - w o e x x y z A B t 3 4 C D E F G H , v , $ - @ ",
"# $ $ $ $ $ $ - I o , J x x x K K A , L M M M M j H , N - $ - @ ",
"# $ $ $ $ $ $ * o o s B x x x K K A , E M M M M K O , N - $ - @ ",
"# $ $ $ $ $ $ . 3 o P 3 Q x x x K A e 4 M M M M K R , S   $ - @ ",
"# $ $ $ T U V W , X Y Z `  ...x K A D 3 +.M M M x R , o . $ - @ ",
"# $ $ V @ @ @ @., #.$.Y %.&.&.*.=.A D -.;.M M M x >., p & ,.'.@ ",
"# ).!.@ @ @ @ ~., {.].^./.&.&.&.(._.D :.e M M M x <., , [.}.|.@ ",
"1.2.@ @ @ @ @ ~., 3.4.&.4.5.&.&.&.6.7.M 3 +.M M 8.9., , [.}.|.@ ",
"0.@ @ @ @ @ @ ~., /.a.&.5.4.&.&.&.].b.c.d.e.f.f.g.h., , }.}.|.@ ",
"# i.@ @ @ @ @ ~., , a.&.j., &.&.&.].b.k.l.2 f.f.g.m., , }.}.|.@ ",
"# U @ @ @ @ @ n./., a.&.&.Z o.p.p.q.r.s.t.u.v.w.g.x., y.}.}.|.@ ",
"z.A.B.@ @ @ @ @ , /.a.&.p.C.D.E.E.6.F.G.G.H.I.J.g., K.|.}.}.|.@ ",
"[.}.}.L.@ @ @ @ , M.Z p.E.E./.N.E.6.F.G.G.O.P.Q.R., K.S.}.}.|.@ ",
"[.}.}.}.T.U.@ @ , {., E.E.E.q.6.E.6.F.G.G.G.V.W.X.Y.K.Z.}.}.|.@ ",
"[.}.}.}.}.`.U.@  +.+, E.E.E.++Z E.q.r.G.G.G.@+#+F.$+%+Z.}.}.|.@ ",
"[.}.}.}.}.}.`.U.@.&+, E.E.E.E.u.N.*+F.G.G.G.O., W.=+-+[.}.}.|.@ ",
"[.}.}.}.}.}.}.).;+ +, E.E.E.E.6.q.*+F.G.G.G.G.V.>+-+y.}.}.}.|.@ ",
"[.}.}.}.}.}.}.}.,+'+, E.E.E.E.N./.Z F.G.G.G.G.@+, , )+}.}.}.|.@ ",
"[.}.}.}.}.}.}.}.}.!+, ~+{+E.E.E.*+, O.G.G.G.G.]+P.y.}.}.}.}.|.@ ",
"[.}.}.}.}.}.}.}.}.}.^+S., D.C.{+C., F.G.G.F.H.>+, ^+}.}.}.}.|.@ ",
"[.}.}.}.}.}.}.}.}.}.}.}./+)+S., D., #+>+, (+Z.[.}.}.}.}.}.}.|.@ ",
"_+Z.Z.Z.Z.Z.Z.Z.Z.Z.Z.Z.Z.Z.Z.:+y., <+|.:+Z.Z.Z.Z.Z.Z.Z.Z.Z.y.@ ",
"~.~.~.~.~.~.~.~.~.~.~.~.~.~.~.~.~.~.~.~.~.~.~.~.~.~.~.~.~.~.~.@ "};
