/* XPM */
static char * dmmShelfSelectMaterialNode_xpm[] = {
"32 32 292 2",
"  	c #DE863F",
". 	c #D48D54",
"+ 	c #D48D55",
"@ 	c #D58E55",
"# 	c #D58E56",
"$ 	c #D68F56",
"% 	c #D68F57",
"& 	c #D79057",
"* 	c #D79058",
"= 	c #D89158",
"- 	c #D89159",
"; 	c #D99259",
"> 	c #D9925A",
", 	c #DA935A",
"' 	c #F57916",
") 	c #000000",
"! 	c #BE9B7E",
"~ 	c #E0E0E0",
"{ 	c #EC822D",
"] 	c #6D6B65",
"^ 	c #BF9B7F",
"/ 	c #D4D0C8",
"( 	c #9E9E9E",
"_ 	c #C09C80",
": 	c #FA750B",
"< 	c #928F88",
"[ 	c #FF7100",
"} 	c #C09D81",
"| 	c #FFFFFF",
"1 	c #C1ACA7",
"2 	c #B08076",
"3 	c #CDC5C3",
"4 	c #C19E81",
"5 	c #DFDFDF",
"6 	c #CCBAB6",
"7 	c #C6B4B0",
"8 	c #A06A5D",
"9 	c #B66B59",
"0 	c #B6928A",
"a 	c #D5D3D2",
"b 	c #B5978F",
"c 	c #C8BDBB",
"d 	c #ED822D",
"e 	c #C6BFBD",
"f 	c #A65E4C",
"g 	c #AB614F",
"h 	c #AA8077",
"i 	c #AF7567",
"j 	c #A65B49",
"k 	c #AB5E4B",
"l 	c #A96150",
"m 	c #AB796E",
"n 	c #A97366",
"o 	c #B26451",
"p 	c #A66B5E",
"q 	c #ED822E",
"r 	c #C29E82",
"s 	c #DBDAD9",
"t 	c #9E5847",
"u 	c #A95B48",
"v 	c #7A3221",
"w 	c #681F0D",
"x 	c #732512",
"y 	c #802A15",
"z 	c #892D17",
"A 	c #943923",
"B 	c #A75340",
"C 	c #AD5C49",
"D 	c #AE867C",
"E 	c #D2CFCE",
"F 	c #A89C9A",
"G 	c #BEAAA6",
"H 	c #BFADA9",
"I 	c #BE988F",
"J 	c #954835",
"K 	c #5F1B0B",
"L 	c #8A3C29",
"M 	c #AA5A47",
"N 	c #B1614E",
"O 	c #B1624F",
"P 	c #AC5B47",
"Q 	c #A34C37",
"R 	c #A44D38",
"S 	c #AC6351",
"T 	c #B9A9A5",
"U 	c #BBA09A",
"V 	c #C3B8B5",
"W 	c #817971",
"X 	c #9F4934",
"Y 	c #A55340",
"Z 	c #974734",
"` 	c #631D0C",
" .	c #A3513D",
"..	c #AF5E4B",
"+.	c #AC5945",
"@.	c #A7523E",
"#.	c #A54F3A",
"$.	c #9F4A36",
"%.	c #812611",
"&.	c #743A2A",
"*.	c #C39F83",
"=.	c #A37165",
"-.	c #9E4530",
";.	c #6A200E",
">.	c #9B4733",
",.	c #AB5845",
"'.	c #AC5A46",
").	c #AA5743",
"!.	c #A85642",
"~.	c #AA5845",
"{.	c #AA5642",
"].	c #A6513C",
"^.	c #A24B36",
"/.	c #9E442F",
"(.	c #8E311B",
"_.	c #70210D",
":.	c #D3C2BE",
"<.	c #D4C5C1",
"[.	c #89311C",
"}.	c #782714",
"|.	c #A24A35",
"1.	c #9A4632",
"2.	c #661D0C",
"3.	c #562317",
"4.	c #562B21",
"5.	c #56190B",
"6.	c #752512",
"7.	c #9B402B",
"8.	c #92351F",
"9.	c #791C05",
"0.	c #8C4F40",
"a.	c #ED832E",
"b.	c #C3A084",
"c.	c #D1CECD",
"d.	c #AB7D72",
"e.	c #78230F",
"f.	c #8A2F1A",
"g.	c #993D27",
"h.	c #9D422D",
"i.	c #6C200E",
"j.	c #72453B",
"k.	c #D4D1D1",
"l.	c #B2A6A3",
"m.	c #521202",
"n.	c #7D2915",
"o.	c #90321C",
"p.	c #7C1E08",
"q.	c #6E1803",
"r.	c #6F1E0B",
"s.	c #C0B1AD",
"t.	c #C4A184",
"u.	c #C2B3AF",
"v.	c #812D1A",
"w.	c #83250E",
"x.	c #761D08",
"y.	c #882912",
"z.	c #8F301A",
"A.	c #92341E",
"B.	c #6F1804",
"C.	c #BCA39D",
"D.	c #824132",
"E.	c #6F1B07",
"F.	c #7C1D06",
"G.	c #701803",
"H.	c #641503",
"I.	c #601503",
"J.	c #5F1504",
"K.	c #621706",
"L.	c #731904",
"M.	c #7C1D07",
"N.	c #82220B",
"O.	c #85260F",
"P.	c #7F1F09",
"Q.	c #AA847B",
"R.	c #7B2714",
"S.	c #751A04",
"T.	c #6F1803",
"U.	c #5A1302",
"V.	c #541202",
"W.	c #401004",
"X.	c #8C6B63",
"Y.	c #651503",
"Z.	c #691703",
"`.	c #711803",
" +	c #761A04",
".+	c #80220B",
"++	c #9C4631",
"@+	c #B58C83",
"#+	c #BF9E96",
"$+	c #A56657",
"%+	c #8E311A",
"&+	c #6E1804",
"*+	c #621503",
"=+	c #591302",
"-+	c #531202",
";+	c #4F1A0E",
">+	c #B8AAA7",
",+	c #5F1403",
"'+	c #6C1703",
")+	c #661603",
"!+	c #6B1703",
"~+	c #832B17",
"{+	c #9A402B",
"]+	c #9D442E",
"^+	c #953D28",
"/+	c #701E0B",
"(+	c #5C1403",
"_+	c #561202",
":+	c #501102",
"<+	c #571302",
"[+	c #5A3229",
"}+	c #DBDADA",
"|+	c #837A72",
"1+	c #642212",
"2+	c #6D1A06",
"3+	c #651805",
"4+	c #611504",
"5+	c #621705",
"6+	c #5A1303",
"7+	c #551202",
"8+	c #4B1002",
"9+	c #661704",
"0+	c #4E1102",
"a+	c #390C01",
"b+	c #5C453D",
"c+	c #E3DDDC",
"d+	c #3D0F04",
"e+	c #50251A",
"f+	c #501B0D",
"g+	c #7E2611",
"h+	c #6A1D0C",
"i+	c #4D1002",
"j+	c #4E1002",
"k+	c #480F02",
"l+	c #4A1003",
"m+	c #73210E",
"n+	c #601807",
"o+	c #543128",
"p+	c #3B140A",
"q+	c #87706B",
"r+	c #F2F0F0",
"s+	c #F7F6F6",
"t+	c #4C180C",
"u+	c #7D2C19",
"v+	c #8E3A26",
"w+	c #6C2615",
"x+	c #591607",
"y+	c #561304",
"z+	c #5B1A0C",
"A+	c #742B1A",
"B+	c #8F3924",
"C+	c #5F1C0C",
"D+	c #684941",
"E+	c #F6F4F4",
"F+	c #F4F2F2",
"G+	c #FBFBFB",
"H+	c #D3D0D0",
"I+	c #441C12",
"J+	c #3A0C01",
"K+	c #4F1709",
"L+	c #793322",
"M+	c #8D4230",
"N+	c #8E4130",
"O+	c #863E2D",
"P+	c #692717",
"Q+	c #3D0E03",
"R+	c #350B01",
"S+	c #816D68",
"T+	c #C6C0BF",
"U+	c #3E1910",
"V+	c #4F2F28",
"W+	c #A79B98",
"X+	c #7B645F",
"Y+	c #431F16",
"Z+	c #3B150B",
"`+	c #8B7874",
" @	c #958581",
".@	c #361209",
"+@	c #7C6762",
"@@	c #CDC9C8",
"#@	c #310A01",
"$@	c #674D46",
"%@	c #C9C4C3",
"&@	c #DEDEDE",
"*@	c #E18841",
"=@	c #EB812C",
"-@	c #F66B01",
";@	c #E78537",
">@	c #DA935B",
",@	c #F67916",
"'@	c #3F1C00",
")@	c #6F3100",
"  . . + + + @ @ # # $ $ $ % % & & * * * = = - - ; ; ; > > , ' ) ",
"! ~ ~ ~ ~ ~ ~ ~ ~ ~ ~ ~ ~ ~ ~ ~ ~ ~ ~ ~ ~ ~ ~ ~ ~ ~ ~ ~ ~ ~ { ) ",
"! ~ ] ] ] ] ] ] ] ] ] ] ] ] ] ] ] ] ] ] ] ] ] ] ] ] ] ] ] ] { ) ",
"! ~ ] ~ ~ ~ ~ ~ ~ ~ ~ ~ ~ ~ ~ ~ ~ ~ ~ ~ ~ ~ ~ ~ ~ ~ ~ ~ ~ ~ { ) ",
"^ / ] ~ ~ ~ ~ ~ ~ ~ ~ ~ ~ ~ ~ ~ ~ ~ ~ ~ ~ ~ ~ ~ ~ ~ ~ ~ ~ ~ { ) ",
"^ / ] ~ ~ ~ ~ ~ ~ ~ ~ ( ( ( ] ~ ~ ~ ~ ~ ~ ~ ~ ~ ~ ~ ~ ~ ~ ~ { ) ",
"^ / ] ~ ~ ~ ~ ~ ~ ~ ~ / / / ] ~ ~ ~ ~ ~ ~ ~ ~ ~ ~ ~ ~ ~ ~ ~ { ) ",
"_ / ] ~ ~ ~ ~ ~ ~ ~ ~ / / / ] ~ ~ ~ ~ ~ ~ ~ ~ ~ ~ ~ ~ ~ ~ ~ : ) ",
"_ / ] ~ ~ < < < < < < / / / ] < < < < < < < < < < < < < < < [ ) ",
"} / ] ~ ~ < | | | | | / / / ] | | | | | | | | | | | | | | | [ ) ",
"} / ] ~ ~ < | | | | | / / / ] | | | | | | | | | | | | | | | [ ) ",
"} / ] ~ ~ ~ ~ ~ ~ ~ ~ / / / ] ~ ~ ~ ~ ~ 1 2 3 ~ ~ ~ ~ ~ ~ ~ [ ) ",
"4 / ] ~ ~ ~ ~ ~ ~ ~ ~ ] ] ] ] 5 6 7 ~ 5 8 9 0 ~ a b c ~ ~ ~ d ) ",
"4 / ] ~ ~ ~ ~ ~ ~ ~ ~ ~ ~ ~ ~ e f g h i j k l m n o p ~ ~ ~ q ) ",
"r / ] ~ ~ ~ ~ ~ ~ ~ ~ ~ ~ ~ ~ s t u v w x y z A B C D ~ ~ ~ q ) ",
"r / ] ~ ~ ~ ~ ~ ~ ~ ~ E F G H I J K L M N O N P Q R S T U V q ) ",
"r / ] ~ ~ < < < < < < < W X Y Z `  .............+.@.#.$.%.&.q ) ",
"*./ ] ~ ~ < | | | | | | | =.-.;.>.,.'.).!.u ~.{.].^./.(._.:.q ) ",
"*./ ] ~ ~ < | | | | | | | <.[.}.|.#.1.2.3.4.5.6.-.7.8.9.0.| a.) ",
"b./ ] ~ ~ ~ ~ ~ ~ ~ ~ ~ c.d.e.f.g.h.i.j.k.~ l.m.n.o.p.q.r.s.q ) ",
"t./ ] ~ ~ ~ ~ ~ ~ ~ ~ u.v.w.x.y.z.A.B.C.~ ~ ~ D.E.F.G.H.I.J.a.) ",
"t./ ] ~ ~ ~ ~ ( ( ( ] V K.L.B.M.N.O.P.Q.~ ~ ~ R.S.T.H.U.V.W.a.) ",
"b./ ] ~ ~ ~ ~ / / / ] ~ ~ X.Y.Z.`. +.+++@+#+$+%+&+*+=+-+;+s a.) ",
"b./ ] ~ ~ ~ ~ / / / ] ~ ~ >+,+'+*+)+!+~+{+]+^+/+(+_+:+<+[+}+a.) ",
"b./ ] ~ ~ < < / / / ] < |+1+:+2+3+_+=+(+4+5+6+7+:+8+9+0+a+b+q ) ",
"b./ ] ~ ~ < | / / / ] | c+d+e+f+g+h+i+j+j+i+8+k+l+m+n+o+p+q+q ) ",
"b./ ] ~ ~ < | / / / ] | | r+s+c t+u+v+w+x+y+z+A+B+C+D+E+F+G+q ) ",
"*./ ] ~ ~ ~ ~ / / / ] ~ ~ ~ ~ H+I+J+K+L+M+N+O+P+Q+R+S+~ ~ ~ q ) ",
"*./ ] ~ ~ ~ ~ ] ] ] ] ~ ~ ~ ~ T+U+V+W+X+Y+R+Z+`+ @.@+@~ ~ ~ d ) ",
"*./ ] ~ ~ ~ ~ ~ ~ ~ ~ ~ ~ ~ ~ ~ @@H+~ ~ F #@$@~ ~ %@&@~ ~ ~ d ) ",
"*@& * * * * = = = = =@[ -@[ ;@; ; ; > > > > , , , , >@>@>@>@,@) ",
"'@'@'@'@'@'@'@'@'@'@'@'@)@'@'@'@'@'@'@'@'@'@'@'@'@'@'@'@'@'@'@) "};
