/* XPM */
static char * dmmShelfAssetManager_xpm[] = {
"32 32 107 2",
"  	c #BF743A",
". 	c #B87C4D",
"+ 	c #B97C4E",
"@ 	c #B97D4E",
"# 	c #BA7D4F",
"$ 	c #BA7E4F",
"% 	c #CF6513",
"& 	c #000000",
"* 	c #A98B74",
"= 	c #9B9B9B",
"- 	c #9C9C9C",
"; 	c #9D9D9D",
"> 	c #9E9E9E",
", 	c #9F9F9F",
"' 	c #C86D27",
") 	c #AA8C75",
"! 	c #A0A0A0",
"~ 	c #AC8D76",
"{ 	c #C86D28",
"] 	c #AE9078",
"^ 	c #A1A1A1",
"/ 	c #D4D0C8",
"( 	c #928F88",
"_ 	c #C86E28",
": 	c #B0927A",
"< 	c #A3A3A3",
"[ 	c #A2A2A2",
"} 	c #C96E28",
"| 	c #B1937B",
"1 	c #A4A4A4",
"2 	c #A19E98",
"3 	c #A5A5A5",
"4 	c #C96E29",
"5 	c #A6A6A6",
"6 	c #C96F29",
"7 	c #B2937C",
"8 	c #6D6B65",
"9 	c #CA6F29",
"0 	c #A7A7A7",
"a 	c #FFFFFF",
"b 	c #B2947D",
"c 	c #474747",
"d 	c #0A0A0A",
"e 	c #A8A8A8",
"f 	c #CA6F2A",
"g 	c #3D3D3D",
"h 	c #F0F0F0",
"i 	c #3B3B3B",
"j 	c #A9A9A9",
"k 	c #CA702A",
"l 	c #B3957E",
"m 	c #EFEFEF",
"n 	c #8F8F8F",
"o 	c #AAAAAA",
"p 	c #CB702A",
"q 	c #E1E1E1",
"r 	c #FCFCFC",
"s 	c #DDDDDD",
"t 	c #C9C9C9",
"u 	c #ABABAB",
"v 	c #B4967E",
"w 	c #D3D3D3",
"x 	c #ACACAC",
"y 	c #CB702B",
"z 	c #ADADAD",
"A 	c #CB712B",
"B 	c #B5967F",
"C 	c #AEAEAE",
"D 	c #CC712B",
"E 	c #B59780",
"F 	c #AFAFAF",
"G 	c #B0B0B0",
"H 	c #CC712C",
"I 	c #B69881",
"J 	c #B1B1B1",
"K 	c #CC722C",
"L 	c #B2B2B2",
"M 	c #CD722C",
"N 	c #B79981",
"O 	c #B3B3B3",
"P 	c #B4B4B4",
"Q 	c #CD722D",
"R 	c #B89982",
"S 	c #B5B5B5",
"T 	c #CD732D",
"U 	c #B6B6B6",
"V 	c #CE732D",
"W 	c #B89A83",
"X 	c #B7B7B7",
"Y 	c #B8B8B8",
"Z 	c #CE732E",
"` 	c #B99B84",
" .	c #B9B9B9",
"..	c #CE742E",
"+.	c #C77C42",
"@.	c #C38758",
"#.	c #C48759",
"$.	c #C48859",
"%.	c #C5885A",
"&.	c #C5895A",
"*.	c #C6895B",
"=.	c #C68A5B",
"-.	c #C78A5C",
";.	c #C78B5C",
">.	c #C88B5D",
",.	c #D26817",
"'.	c #351700",
"  . . . . . . . . . . + + + + + + + @ @ @ @ @ @ @ # # # $ $ % & ",
"* = = = = = = = = = = - - - - - - - ; ; ; ; > > > , , , , , ' & ",
") - ; ; ; ; ; ; ; > > > > > > > , , , ! ! ! ! ! ! ! ! , , , ' & ",
"~ , & & & & & & & & & & & & & & & & & & & & & & & & & & & ! { & ",
"] ^ & / / / / / ( ( ( ( ( ( ( ( ( ( ( ( ( ( ( ( ( ( ( ( & ^ _ & ",
": < & / & & & & / ( ( ( ( ( ( ( ( ( ( ( ( ( ( ( ( ( ( ( & [ } & ",
"| 1 & / / / / / / ( ( ( ( ( ( ( ( ( ( ( ( ( ( ( ( ( ( 2 & < } & ",
"| 3 & / / / / / / / / / / / / / / / / / / / / / / / / / & 1 4 & ",
"| 5 & / / / / / / / / / / / / / / / / / / / / / / / / / & 3 6 & ",
"7 5 & / / 8 8 8 8 8 8 / 8 8 8 8 8 8 8 8 8 8 8 8 8 8 / / & 5 9 & ",
"7 0 & / / 8 a a a a a / 8 a a a a a a a a a a a a a / / & 0 9 & ",
"b 0 & / / 8 a & & & & / 8 a a a a , c d c , a a a a / / & e f & ",
"b e & / / 8 a a a a a / 8 a a a , g ! h , i , a a a / / & j k & ",
"l e & / / 8 a a a a a / 8 a a a c ! a a m n c a a a / / & o p & ",
"l j & / / 8 a a a a a / 8 a a a d q r m s t d a a a / / & u p & ",
"v j & / / 8 a a a a a / 8 a a a c n w w w n c a a a / / & x y & ",
"v o & / / 8 a a a a a / 8 a a a , i n t n i , a a a / / & z A & ",
"B o & / / 8 a a a a a / 8 a a a a , c d c , a a a a / / & z A & ",
"B u & / / 8 a a a a a / 8 a a a a a a a a a a a a a / / & C D & ",
"E u & / / 8 a a a a a / 8 a a a a , c d c , a a a a / / & F D & ",
"E x & / / 8 a a a a a / 8 a a a , g ! h , i , a a a / / & G H & ",
"I x & / / 8 a a a a a / 8 a a a c ! a a m n c a a a / / & J K & ",
"I z & / / 8 a a a a a / 8 a a a d q r m s t d a a a / / & L M & ",
"N z & / / 8 a a a a a / 8 a a a c n w w w n c a a a / / & O M & ",
"N C & / / 8 a a a a a / 8 a a a , i n t n i , a a a / / & P Q & ",
"R C & / / 8 a a a a a / 8 a a a a , c d c , a a a a / / & S T & ",
"R F & / / / / / / / / / / / / / / / / / / / / / / / / / & U V & ",
"W F & & & & & & & & & & & & & & & & & & & & & & & & & & & X V & ",
"W G G G J J J L L L O O O O P P P S S S U U U X X X Y Y Y Y Z & ",
"` G J J J J L L L O O O P P P S S S U U U U X X X Y Y Y  . ...& ",
"+.@.@.@.#.#.#.$.$.$.%.%.%.%.&.&.&.*.*.*.=.=.=.-.-.-.;.;.;.>.,.& ",
"'.'.'.'.'.'.'.'.'.'.'.'.'.'.'.'.'.'.'.'.'.'.'.'.'.'.'.'.'.'.'.& "};
