/* XPM */
static char * dmmShelfMatManager_xpm[] = {
"32 32 96 2",
"  	c #BF743A",
". 	c #B87C4D",
"+ 	c #B97C4E",
"@ 	c #B97D4E",
"# 	c #BA7D4F",
"$ 	c #BA7E4F",
"% 	c #CF6513",
"& 	c #000000",
"* 	c #A98B74",
"= 	c #9B9B9B",
"- 	c #9C9C9C",
"; 	c #9D9D9D",
"> 	c #9E9E9E",
", 	c #9F9F9F",
"' 	c #C86D27",
") 	c #AA8C75",
"! 	c #A0A0A0",
"~ 	c #AC8D76",
"{ 	c #C86D28",
"] 	c #AE9078",
"^ 	c #A1A1A1",
"/ 	c #928F88",
"( 	c #C86E28",
"_ 	c #B0927A",
": 	c #A3A3A3",
"< 	c #A2A2A2",
"[ 	c #C96E28",
"} 	c #B1937B",
"| 	c #A4A4A4",
"1 	c #A19E98",
"2 	c #A5A5A5",
"3 	c #D4D0C8",
"4 	c #C96E29",
"5 	c #A6A6A6",
"6 	c #C96F29",
"7 	c #B2937C",
"8 	c #6D6B65",
"9 	c #CA6F29",
"0 	c #A7A7A7",
"a 	c #E0E0E0",
"b 	c #B2947D",
"c 	c #A8A8A8",
"d 	c #CA6F2A",
"e 	c #A9A9A9",
"f 	c #CA702A",
"g 	c #B3957E",
"h 	c #AAAAAA",
"i 	c #CB702A",
"j 	c #ABABAB",
"k 	c #B4967E",
"l 	c #ACACAC",
"m 	c #CB702B",
"n 	c #FFFFFF",
"o 	c #ADADAD",
"p 	c #CB712B",
"q 	c #B5967F",
"r 	c #AEAEAE",
"s 	c #CC712B",
"t 	c #B59780",
"u 	c #AFAFAF",
"v 	c #B0B0B0",
"w 	c #CC712C",
"x 	c #B69881",
"y 	c #B1B1B1",
"z 	c #CC722C",
"A 	c #B2B2B2",
"B 	c #CD722C",
"C 	c #B79981",
"D 	c #B3B3B3",
"E 	c #B4B4B4",
"F 	c #CD722D",
"G 	c #B89982",
"H 	c #B5B5B5",
"I 	c #CD732D",
"J 	c #B6B6B6",
"K 	c #CE732D",
"L 	c #B89A83",
"M 	c #B7B7B7",
"N 	c #B8B8B8",
"O 	c #CE732E",
"P 	c #B99B84",
"Q 	c #B9B9B9",
"R 	c #CE742E",
"S 	c #C77C42",
"T 	c #C38758",
"U 	c #C48759",
"V 	c #C48859",
"W 	c #C5885A",
"X 	c #C5895A",
"Y 	c #C6895B",
"Z 	c #C68A5B",
"` 	c #C78A5C",
" .	c #C78B5C",
"..	c #C88B5D",
"+.	c #D26817",
"@.	c #351700",
"  . . . . . . . . . . + + + + + + + @ @ @ @ @ @ @ # # # $ $ % & ",
"* = = = = = = = = = = - - - - - - - ; ; ; ; > > > , , , , , ' & ",
") - ; ; ; ; ; ; ; > > > > > > > , , , ! ! ! ! ! ! ! ! , , , ' & ",
"~ , & & & & & & & & & & & & & & & & & & & & & & & & & & & ! { & ",
"] ^ & / / / / / / / / / / / / / / / / / / / / / / / / / & ^ ( & ",
"_ : & / / / / / / / / / / / / / / / / / / / / / / / / / & < [ & ",
"} | & / / / / / / / / / / / / / / / / / / / / / / / / 1 & : [ & ",
"} 2 & 3 3 3 3 3 3 3 3 3 3 3 3 3 3 3 3 3 3 3 3 3 3 3 3 3 & | 4 & ",
"} 5 & 3 3 3 3 3 3 3 3 3 3 3 3 3 3 3 3 3 3 3 3 3 3 3 3 3 & 2 6 & ",
"7 5 & 3 3 8 8 8 8 8 8 8 8 8 8 8 8 8 8 8 8 8 8 8 8 8 3 3 & 5 9 & ",
"7 0 & 3 3 8 a a a a a a a a a a a a a a a a a a a a 3 3 & 0 9 & ",
"b 0 & 3 3 8 a a a a a a a a a a a a a a a a a a a a 3 3 & c d & ",
"b c & 3 3 8 a a a a a a a > > > 8 a a a a a a a a a 3 3 & e f & ",
"g c & 3 3 8 a a a a a a a 3 3 3 8 a a a a a a a a a 3 3 & h i & ",
"g e & 3 3 8 a a a a a a a 3 3 3 8 a a a a a a a a a 3 3 & j i & ",
"k e & 3 3 8 a a a / / / / 3 3 3 8 / / / / / / / / / 3 3 & l m & ",
"k h & 3 3 8 a a a / n n n 3 3 3 8 n n n n n n n n n 3 3 & o p & ",
"q h & 3 3 8 a a a / n n n 3 3 3 8 n n n n n n n n n 3 3 & o p & ",
"q j & 3 3 8 a a a a a a a 3 3 3 8 a a a a a a a a a 3 3 & r s & ",
"t j & 3 3 8 a a a a a a a 8 8 8 8 a a a a a a a a a 3 3 & u s & ",
"t l & 3 3 8 a a a a a a a a a a a a > > > 8 a a a a 3 3 & v w & ",
"x l & 3 3 8 a a a a a a a a a a a a 3 3 3 8 a a a a 3 3 & y z & ",
"x o & 3 3 8 a a a a a a a a a a a a 3 3 3 8 a a a a 3 3 & A B & ",
"C o & 3 3 8 a a a / / / / / / / / / 3 3 3 8 / / / / 3 3 & D B & ",
"C r & 3 3 8 a a a / n n n n n n n n 3 3 3 8 n n n n 3 3 & E F & ",
"G r & 3 3 8 a a a / n n n n n n n n 3 3 3 8 n n n n 3 3 & H I & ",
"G u & 3 3 3 3 3 3 3 3 3 3 3 3 3 3 3 3 3 3 3 3 3 3 3 3 3 & J K & ",
"L u & & & & & & & & & & & & & & & & & & & & & & & & & & & M K & ",
"L v v v y y y A A A D D D D E E E H H H J J J M M M N N N N O & ",
"P v y y y y A A A D D D E E E H H H J J J J M M M N N N Q Q R & ",
"S T T T U U U V V V W W W W X X X Y Y Y Z Z Z ` ` `  . . ...+.& ",
"@.@.@.@.@.@.@.@.@.@.@.@.@.@.@.@.@.@.@.@.@.@.@.@.@.@.@.@.@.@.@.& "};
