/* XPM */
static char * dmmShelfDetachDrivenRegion_xpm[] = {
"32 32 389 2",
"  	c #C66C25",
". 	c #CE6712",
"+ 	c #D66100",
"@ 	c #975705",
"# 	c #725408",
"$ 	c #735309",
"% 	c #725309",
"& 	c #725A0A",
"* 	c #72580A",
"= 	c #72570A",
"- 	c #B05E04",
"; 	c #D66300",
"> 	c #BF743A",
", 	c #B97C4E",
"' 	c #B97D4E",
") 	c #BA7D4F",
"! 	c #CF6513",
"~ 	c #000000",
"{ 	c #CA6000",
"] 	c #8A6006",
"^ 	c #3F4C0C",
"/ 	c #0A3C11",
"( 	c #0A3C12",
"_ 	c #0A3812",
": 	c #0A3412",
"< 	c #57530D",
"[ 	c #BE6302",
"} 	c #A35E05",
"| 	c #57510D",
"1 	c #A35A05",
"2 	c #A98B74",
"3 	c #9C9C9C",
"4 	c #9D9D9D",
"5 	c #9E9E9E",
"6 	c #C86D27",
"7 	c #8B5807",
"8 	c #2E410D",
"9 	c #34400E",
"0 	c #0A3213",
"a 	c #BE5D02",
"b 	c #A89180",
"c 	c #985105",
"d 	c #B05D04",
"e 	c #D66500",
"f 	c #A36205",
"g 	c #725D0A",
"h 	c #0A3A12",
"i 	c #12310F",
"j 	c #C96401",
"k 	c #985C06",
"l 	c #9F9F9F",
"m 	c #3F340D",
"n 	c #0B2713",
"o 	c #11250F",
"p 	c #49450F",
"q 	c #7D5309",
"r 	c #645D0C",
"s 	c #253F0D",
"t 	c #0A3E11",
"u 	c #8B6107",
"v 	c #1B360E",
"w 	c #1B320E",
"x 	c #D66200",
"y 	c #A1A1A1",
"z 	c #A0A0A0",
"A 	c #C86D28",
"B 	c #49460F",
"C 	c #1B3A0E",
"D 	c #0B3B13",
"E 	c #985F06",
"F 	c #C95F01",
"G 	c #72550A",
"H 	c #D65D00",
"I 	c #A8998D",
"J 	c #A2A2A2",
"K 	c #C86E28",
"L 	c #09230F",
"M 	c #061E0A",
"N 	c #031907",
"O 	c #051B08",
"P 	c #071F0B",
"Q 	c #0A2611",
"R 	c #0C2814",
"S 	c #A35B05",
"T 	c #12370F",
"U 	c #725509",
"V 	c #C35701",
"W 	c #A23700",
"X 	c #983200",
"Y 	c #C85500",
"Z 	c #942A00",
"` 	c #B53B02",
" .	c #BA4806",
"..	c #C95403",
"+.	c #CF6514",
"@.	c #C67232",
"#.	c #B9845B",
"$.	c #AF917A",
"%.	c #A3A3A3",
"&.	c #C96E28",
"*.	c #3D310A",
"=.	c #031B07",
"-.	c #041C08",
";.	c #A25902",
">.	c #08360D",
",.	c #725409",
"'.	c #C95C01",
").	c #AF3F00",
"!.	c #7B1700",
"~.	c #6F0D00",
"{.	c #6B0D00",
"].	c #B74100",
"^.	c #BB4302",
"/.	c #7B1A15",
"(.	c #701A1A",
"_.	c #7C2216",
":.	c #963310",
"<.	c #A93F0B",
"[.	c #C25004",
"}.	c #C96E29",
"|.	c #BD8052",
"1.	c #613A03",
"2.	c #AF5B01",
"3.	c #BD5F01",
"4.	c #B54400",
"5.	c #821100",
"6.	c #961802",
"7.	c #8F230E",
"8.	c #CF5801",
"9.	c #8F2E11",
"0.	c #9C370E",
"a.	c #A14C01",
"b.	c #534305",
"c.	c #242C06",
"d.	c #443F06",
"e.	c #BD5E01",
"f.	c #D05A00",
"g.	c #882100",
"h.	c #710D00",
"i.	c #8A1200",
"j.	c #941604",
"k.	c #7B1812",
"l.	c #6F1A1A",
"m.	c #892A13",
"n.	c #771E18",
"o.	c #832615",
"p.	c #C15004",
"q.	c #894C1E",
"r.	c #9A5919",
"s.	c #CC6204",
"t.	c #885402",
"u.	c #363905",
"v.	c #D65E00",
"w.	c #CF5800",
"x.	c #9E3000",
"y.	c #A62700",
"z.	c #851005",
"A.	c #6B0B0A",
"B.	c #6A1212",
"C.	c #A33B0D",
"D.	c #B64808",
"E.	c #C85403",
"F.	c #842A13",
"G.	c #B34808",
"H.	c #62442D",
"I.	c #3D3D3D",
"J.	c #4F4035",
"K.	c #7F4A22",
"L.	c #AE5910",
"M.	c #965202",
"N.	c #7A4904",
"O.	c #CE5900",
"P.	c #D05800",
"Q.	c #872400",
"R.	c #9F3000",
"S.	c #AD4002",
"T.	c #BD4D02",
"U.	c #CF5700",
"V.	c #B04107",
"W.	c #902F12",
"X.	c #BC4C06",
"Y.	c #9D370F",
"Z.	c #711A1A",
"`.	c #7D2715",
" +	c #691A1A",
".+	c #BA4C06",
"++	c #463E39",
"@+	c #764826",
"#+	c #9C5117",
"$+	c #AB3901",
"%+	c #BB4700",
"&+	c #640E07",
"*+	c #530A0A",
"=+	c #5B1313",
"-+	c #712317",
";+	c #95370F",
">+	c #B74C06",
",+	c #A33C0D",
"'+	c #892B14",
")+	c #832715",
"!+	c #B0440A",
"~+	c #C15005",
"{+	c #701F19",
"]+	c #691B1B",
"^+	c #CD6B1F",
"/+	c #63452D",
"(+	c #3E3E3E",
"_+	c #600D08",
":+	c #8E3007",
"<+	c #611818",
"[+	c #631B1B",
"}+	c #5D1B1B",
"|+	c #5B1B1B",
"1+	c #812F12",
"2+	c #A0400B",
"3+	c #BE5005",
"4+	c #CB702A",
"5+	c #473F3A",
"6+	c #520A0A",
"7+	c #590E09",
"8+	c #CD5700",
"9+	c #75210A",
"0+	c #5A1212",
"a+	c #5F1717",
"b+	c #631F19",
"c+	c #B44808",
"d+	c #7E2715",
"e+	c #D06615",
"f+	c #7F6049",
"g+	c #444444",
"h+	c #721E07",
"i+	c #521010",
"j+	c #551414",
"k+	c #5A1A1A",
"l+	c #99370F",
"m+	c #6A1B1B",
"n+	c #852B14",
"o+	c #CB702B",
"p+	c #B5967F",
"q+	c #AAAAAA",
"r+	c #888888",
"s+	c #676767",
"t+	c #943305",
"u+	c #B54802",
"v+	c #4C0A0A",
"w+	c #4A0A0A",
"x+	c #4D0D0D",
"y+	c #531212",
"z+	c #5B1A1A",
"A+	c #762317",
"B+	c #923310",
"C+	c #C67B40",
"D+	c #CB712B",
"E+	c #ABABAB",
"F+	c #A4A4A4",
"G+	c #6E6E6E",
"H+	c #B54803",
"I+	c #500A0A",
"J+	c #4B0A0A",
"K+	c #8B2F12",
"L+	c #772317",
"M+	c #A03C0D",
"N+	c #C28557",
"O+	c #CC712B",
"P+	c #B59780",
"Q+	c #969696",
"R+	c #535353",
"S+	c #3F3F3F",
"T+	c #5A0E09",
"U+	c #5A0F09",
"V+	c #852806",
"W+	c #560A0A",
"X+	c #550A0A",
"Y+	c #510A0A",
"Z+	c #560F09",
"`+	c #5B0D0D",
" @	c #651818",
".@	c #A03C0E",
"+@	c #AD440A",
"@@	c #BD906D",
"#@	c #ACACAC",
"$@	c #898989",
"%@	c #4B4B4B",
"&@	c #B05510",
"*@	c #731F08",
"=@	c #540A0A",
"-@	c #6D1908",
";@	c #C55201",
">@	c #761F08",
",@	c #B94803",
"'@	c #600A0A",
")@	c #5C0A0A",
"!@	c #5F1010",
"~@	c #BA4B06",
"{@	c #B99B84",
"]@	c #CC712C",
"^@	c #B69881",
"/@	c #ADADAD",
"(@	c #838383",
"_@	c #4C4C4C",
":@	c #BE4D02",
"<@	c #5D0F09",
"[@	c #620A0A",
"}@	c #761908",
"|@	c #B7A18F",
"1@	c #CC722C",
"2@	c #AEAEAE",
"3@	c #848484",
"4@	c #A53E04",
"5@	c #A63E04",
"6@	c #C18C64",
"7@	c #B2B2B2",
"8@	c #CD722C",
"9@	c #AFAFAF",
"0@	c #858585",
"a@	c #B75C17",
"b@	c #842806",
"c@	c #B14203",
"d@	c #9C3305",
"e@	c #CB7737",
"f@	c #B3B3B3",
"g@	c #B79981",
"h@	c #B0B0B0",
"i@	c #BE906E",
"j@	c #D16716",
"k@	c #8D2E05",
"l@	c #5C0F09",
"m@	c #6E1908",
"n@	c #963305",
"o@	c #630A0A",
"p@	c #7F1F08",
"q@	c #D16816",
"r@	c #B6AEA8",
"s@	c #B4B4B4",
"t@	c #CD722D",
"u@	c #B1B1B1",
"v@	c #BA9C84",
"w@	c #C87C42",
"x@	c #D3620B",
"y@	c #AD4203",
"z@	c #7D2407",
"A@	c #5E0F0A",
"B@	c #781A08",
"C@	c #BCA593",
"D@	c #B6B6B6",
"E@	c #CD732D",
"F@	c #B89982",
"G@	c #FFFFFF",
"H@	c #B4ACA6",
"I@	c #BF926F",
"J@	c #CE5700",
"K@	c #9D3804",
"L@	c #AD4303",
"M@	c #8E2906",
"N@	c #C75201",
"O@	c #C29471",
"P@	c #B7B7B7",
"Q@	c #CE732D",
"R@	c #FF0000",
"S@	c #B8A99D",
"T@	c #C5885A",
"U@	c #953305",
"V@	c #CE5800",
"W@	c #C48F66",
"X@	c #B8B8B8",
"Y@	c #CE732E",
"Z@	c #0D0500",
"`@	c #B5B5B5",
" #	c #BD9F87",
".#	c #C97E43",
"+#	c #D4620B",
"@#	c #CA7E44",
"##	c #B9B9B9",
"$#	c #CE742E",
"%#	c #351700",
"&#	c #B89A83",
"*#	c #B8B1AB",
"=#	c #C09A7D",
"-#	c #C77C42",
";#	c #C38658",
">#	c #C38758",
",#	c #C48759",
"'#	c #C48859",
")#	c #C5895A",
"!#	c #C6895B",
"~#	c #C68A5B",
"{#	c #C78A5C",
"]#	c #C78B5C",
"^#	c #D26817",
"  . + + @ # $ $ $ % & * * * * * * * = - ; + > , , , , , ' ) ! ~ ",
"{ ] ^ / / / ( ( ( ( _ : : : : : : < [ } | 1 2 3 3 3 4 5 5 5 6 ~ ",
"7 8 ( ( ( ( ( ( ( ( _ : : : : < [ } 9 0 0 a b 5 5 5 5 5 5 5 6 ~ ",
"c d e f g 8 ( ( ( ( h : i * j k 9 0 0 0 0 ; l l l l l l l l 6 ~ ",
"m n o p q d e f r s t r j u v : 0 w 0 0 0 x y y y z z z z z A ~ ",
"m n n n n n o B q d e f C D D C E e F } G H I J J J J J y y K ~ ",
"m n L M N O P L Q R S D D T U V W X Y Z `  ...+.@.#.$.%.%.%.&.~ ",
"*.O N =.=.=.=.=.=.-.;.>.,.'.).!.~.{.].^./.(.(._.:.<.[.H }.|.+.~ ",
"1.=.=.=.=.=.=.=.=.=.2.3.4.!.~.~.5.6.7.8.9.(.(.(.(.(.(.(.0.H H ~ ",
"a.b.c.=.=.=.=.=.d.e.f.g.~.~.h.i.j.k.l.m...n.(.(.(.(.(.o.8.p.H ~ ",
"q.r.s.e.t.d.=.=.u.e v.w.4.x.y.z.A.B.(.(.C.D.(.(.(.(.:.E.F.G.H ~ ",
"H.I.I.J.K.L.; M.N.O.P.Q.R.S.T.U.V.W.(.(.(.X.Y.Z.Z.:.8.`. +.+H ~ ",
"H.I.I.I.I.I.++@+#+H $+%+&+*+=+-+;+>+H X.,+'+8.)+!+~+{+]+]+8.^+~ ",
"/+I.I.I.I.I.(+I.I.H _+T.:+<+[+[+[+}+|+1+2+3+H H ~+{+]+]+]+H 4+~ ",
"/+I.I.I.(+(+(+(+5+H 6+7+8+9+0+a+[+}+|+|+|+|+b+H c+]+]+]+d+e+4+~ ",
"f+g+I.(+(+(+(+(+(+H 6+6+h+8+7+6+6+i+j+k+|+|+|+H ~+l+m+m+n+o+o+~ ",
"p+q+r+s+g+(+(+(+(+H 6+6+6+t+u+6+6+v+w+w+x+y+z+H A+8.d+m+B+C+D+~ ",
"p+E+E+F+G+(+(+(+(+H 6+6+6+6+H+t+*+*+I+v+w+w+J+H ]+K+8.L+M+N+O+~ ",
"P+E+Q+R+(+(+(+(+S+H T+6+6+6+U+T.V+W+W+W+X+Y+Z+H `+ @.@~++@@@O+~ ",
"P+#@$@%@(+(+(+S+S+&@*@6+6+6+=@-@;@-@W+W+W+W+>@,@'@)@!@~@H {@]@~ ",
"^@#@#@/@(@_@S+S+S+&@*@6+6+=@X+X+V+:@<@W+W+W+>@,@[@[@[@}@H |@1@~ ",
"^@#@/@/@/@2@3@_@S+&@*@6+=@X+X+X+X+4@5@W+W+W+>@,@[@[@[@,@6@7@8@~ ",
"^@/@/@/@2@2@2@9@0@a@b@X+X+X+X+X+X+<@T.V+W+W+V+c@[@[@d@e@f@f@8@~ ",
"g@/@/@2@2@9@9@9@h@i@j@T.k@l@X+X+X+X+-@;@m@W+n@d@o@p@q@r@s@s@t@~ ",
"g@2@2@2@9@9@9@h@h@h@u@v@w@x@y@z@X+X+X+V+:@A@n@d@B@w.C@D@D@D@E@~ ",
"F@2@G@G@G@G@G@G@G@G@u@u@7@H@I@8@J@K@-@X+4@5@L@M@N@O@P@P@P@P@Q@~ ",
"F@2@G@R@R@R@R@R@R@G@u@7@7@f@f@f@S@T@j@T.U@;@V@w.W@P@P@P@X@X@Y@Z@",
"F@9@G@R@R@R@R@R@R@G@7@7@f@f@f@s@s@s@`@ #.#+#H @#P@P@P@X@X@##$#%#",
"&#9@G@G@G@G@G@G@G@G@7@f@f@f@s@s@s@`@`@`@D@*#=#P@P@X@X@X@####$#%#",
"&#h@h@h@u@u@u@7@7@7@f@f@f@s@`@`@`@`@D@D@D@P@P@P@P@X@X@X@####$#%#",
"-#;#;#>#>#>#,#,#'#'#'#T@T@T@)#)#)#)#!#!#!#~#~#~#~#{#{#{#]#]#^#%#",
"%#%#%#%#%#%#%#%#%#%#%#%#%#%#%#%#%#%#%#%#%#%#%#%#%#%#%#%#%#%#%#~ "};
