/* XPM */
static char * dmmShelfAddGlueRegion_xpm[] = {
"32 32 421 2",
"  	c #DC8A51",
". 	c #D08F61",
"+ 	c #D18F62",
"@ 	c #F38031",
"# 	c #000000",
"$ 	c #B99881",
"% 	c #A2A2A2",
"& 	c #A3A3A3",
"* 	c #A87171",
"= 	c #C05E5E",
"- 	c #E88541",
"; 	c #9E9FA8",
"> 	c #808BCB",
", 	c #7B88D1",
"' 	c #B46561",
") 	c #F21313",
"! 	c #E22E2E",
"~ 	c #A78787",
"{ 	c #A0A0A0",
"] 	c #BA9982",
"^ 	c #A4A4A4",
"/ 	c #868FC6",
"( 	c #6D7EE2",
"_ 	c #4E66F8",
": 	c #3444DA",
"< 	c #7281DC",
"[ 	c #9599B5",
"} 	c #D63333",
"| 	c #F80C0C",
"1 	c #C55757",
"2 	c #9E9A9A",
"3 	c #E88641",
"4 	c #BA9A83",
"5 	c #9A9DAF",
"6 	c #818BCB",
"7 	c #687BE8",
"8 	c #5970F9",
"9 	c #394AE0",
"0 	c #1F28C2",
"a 	c #00009E",
"b 	c #0506A4",
"c 	c #2A36CE",
"d 	c #495FF2",
"e 	c #8B93C1",
"f 	c #A5A5A5",
"g 	c #B36464",
"h 	c #F21111",
"i 	c #E72727",
"j 	c #AB7F7F",
"k 	c #9F9F9F",
"l 	c #A1A1A1",
"m 	c #A08484",
"n 	c #E88642",
"o 	c #546DFF",
"p 	c #0A0DAA",
"q 	c #00009F",
"r 	c #0000A0",
"s 	c #2F3DD5",
"t 	c #A6A6A6",
"u 	c #D43939",
"v 	c #FB0808",
"w 	c #CB4E4E",
"x 	c #9F9999",
"y 	c #C65B5B",
"z 	c #BB9A84",
"A 	c #2F3D9C",
"B 	c #4E66F0",
"C 	c #3444DB",
"D 	c #0A0DAB",
"E 	c #0000A1",
"F 	c #0506A6",
"G 	c #1F28C4",
"H 	c #4458ED",
"I 	c #495FEC",
"J 	c #2A36B6",
"K 	c #687BE9",
"L 	c #A7A7A7",
"M 	c #969696",
"N 	c #AE6C6C",
"O 	c #F11313",
"P 	c #EC1E1E",
"Q 	c #AD7E7E",
"R 	c #A09A9A",
"S 	c #ED2222",
"T 	c #E98642",
"U 	c #BC9B84",
"V 	c #6D7EE3",
"W 	c #1A2263",
"X 	c #05062B",
"Y 	c #2A368E",
"Z 	c #2A36D0",
"` 	c #0506A7",
" .	c #151BBA",
"..	c #3444DC",
"+.	c #3444C8",
"@.	c #1A229A",
"#.	c #00006C",
"$.	c #697BE9",
"%.	c #A8A8A8",
"&.	c #988F8F",
"*.	c #CF4141",
"=.	c #FE0303",
"-.	c #E22929",
";.	c #FD0505",
">.	c #B85B5B",
",.	c #E98742",
"'.	c #BD9C85",
").	c #7D8AD3",
"!.	c #2A368D",
"~.	c #00001C",
"{.	c #00001D",
"].	c #3444AA",
"^.	c #4458E3",
"/.	c #242FAD",
"(.	c #050676",
"_.	c #00006D",
":.	c #00006B",
"<.	c #697CE9",
"[.	c #A9A9A9",
"}.	c #999999",
"|.	c #B46262",
"1.	c #FF0000",
"2.	c #E62020",
"3.	c #E98743",
"4.	c #BD9D86",
"5.	c #838ECE",
"6.	c #2F3D9B",
"7.	c #3F51C6",
"8.	c #151B92",
"9.	c #00006A",
"0.	c #AAAAAA",
"a.	c #C99876",
"b.	c #D49365",
"c.	c #AFA7A1",
"d.	c #AB9090",
"e.	c #EB1F1F",
"f.	c #FC0505",
"g.	c #939ABE",
"h.	c #151B91",
"i.	c #000069",
"j.	c #A4A6AF",
"k.	c #E09461",
"l.	c #FF7A12",
"m.	c #FF8800",
"n.	c #FD9300",
"o.	c #FF7800",
"p.	c #DF8D54",
"q.	c #B4A498",
"r.	c #BE9D87",
"s.	c #999DB9",
"t.	c #4458D4",
"u.	c #151B90",
"v.	c #0F0764",
"w.	c #F97E29",
"x.	c #FF7606",
"y.	c #DCB201",
"z.	c #C7C703",
"A.	c #CCC202",
"B.	c #F39D00",
"C.	c #FF7E00",
"D.	c #FF8128",
"E.	c #C09F88",
"F.	c #ABABAB",
"G.	c #EA8743",
"H.	c #8A6952",
"I.	c #353535",
"J.	c #2A367F",
"K.	c #2F175B",
"L.	c #9F4D3B",
"M.	c #FF7C21",
"N.	c #FF9500",
"O.	c #D2BD02",
"P.	c #E8A800",
"Q.	c #FF8300",
"R.	c #FF7B12",
"S.	c #CB9A77",
"T.	c #ACACAC",
"U.	c #EA8843",
"V.	c #5F3F28",
"W.	c #242F6F",
"X.	c #0F1446",
"Y.	c #2A36B5",
"Z.	c #7F3E45",
"`.	c #EB9602",
" +	c #CABD00",
".+	c #DAD000",
"++	c #DDB201",
"@+	c #FF8D00",
"#+	c #F97F29",
"$+	c #CB9A78",
"%+	c #EA8844",
"&+	c #B5947D",
"*+	c #202020",
"=+	c #242F7D",
"-+	c #05062A",
";+	c #2A36B4",
">+	c #7F3E44",
",+	c #F37720",
"'+	c #FC8308",
")+	c #E9B803",
"!+	c #CECB00",
"~+	c #CEC202",
"{+	c #FE9300",
"]+	c #DB915E",
"^+	c #C0A089",
"/+	c #8B8B8B",
"(+	c #0A0A0A",
"_+	c #0A0D1F",
":+	c #3444A2",
"<+	c #151B54",
"[+	c #5F2E4D",
"}+	c #B4592C",
"|+	c #9E5A20",
"1+	c #7D420E",
"2+	c #F56B0B",
"3+	c #FC8905",
"4+	c #DBB105",
"5+	c #C6C606",
"6+	c #F29D03",
"7+	c #FF7903",
"8+	c #BA6702",
"9+	c #C67423",
"0+	c #D29870",
"a+	c #EB8844",
"b+	c #C1A08A",
"c+	c #ADADAD",
"d+	c #8D8D8D",
"e+	c #1A224F",
"f+	c #4458D2",
"g+	c #3F51D9",
"h+	c #3444AC",
"i+	c #3F1F08",
"j+	c #7F3E10",
"k+	c #8B521F",
"l+	c #2B2B16",
"m+	c #2E2E17",
"n+	c #824911",
"o+	c #F66C0B",
"p+	c #FC8409",
"q+	c #D4B50A",
"r+	c #C4C40C",
"s+	c #D8B00C",
"t+	c #FB810E",
"u+	c #E37111",
"v+	c #756214",
"w+	c #5F5F12",
"x+	c #D97722",
"y+	c #C3A38C",
"z+	c #EB8944",
"A+	c #C2A18A",
"B+	c #AEAEAE",
"C+	c #AFAFAF",
"D+	c #4C4C4C",
"E+	c #05060F",
"F+	c #0F142F",
"G+	c #0B0B0B",
"H+	c #A55B28",
"I+	c #785025",
"J+	c #33331C",
"K+	c #33331B",
"L+	c #313119",
"M+	c #2E2E16",
"N+	c #81460D",
"O+	c #FB7109",
"P+	c #F39809",
"Q+	c #CBBF0B",
"R+	c #CFBB0B",
"S+	c #F88E0B",
"T+	c #F57412",
"U+	c #976A1A",
"V+	c #65651F",
"W+	c #656520",
"X+	c #64641E",
"Y+	c #E27822",
"Z+	c #BFA796",
"`+	c #EB8945",
" @	c #C3A28B",
".@	c #B0B0B0",
"+@	c #848484",
"@@	c #161616",
"#@	c #585858",
"$@	c #D89669",
"%@	c #9D5C24",
"&@	c #32321B",
"*@	c #242412",
"=@	c #282813",
"-@	c #382F11",
";@	c #BB580A",
">@	c #FD8008",
",@	c #FB780A",
"'@	c #B76C13",
")@	c #656521",
"!@	c #B2B2B2",
"~@	c #B1B1B1",
"{@	c #D89769",
"]@	c #2C2C17",
"^@	c #272714",
"/@	c #262613",
"(@	c #242411",
"_@	c #262610",
":@	c #AC540B",
"<@	c #966610",
"[@	c #64641D",
"}@	c #6F6620",
"|@	c #FA7F2A",
"1@	c #B3B3B3",
"2@	c #EC8945",
"3@	c #CD8C5E",
"4@	c #98561F",
"5@	c #232310",
"6@	c #C65C0F",
"7@	c #956815",
"8@	c #8C6B1F",
"9@	c #EC8A45",
"0@	c #B4B4B4",
"a@	c #C4A38D",
"b@	c #9C9C9C",
"c@	c #2C2C2C",
"d@	c #262614",
"e@	c #D16415",
"f@	c #856117",
"g@	c #5E5E1A",
"h@	c #63631F",
"i@	c #976C1F",
"j@	c #E78D4F",
"k@	c #B5B5B5",
"l@	c #EC8A46",
"m@	c #C5A48D",
"n@	c #9D9D9D",
"o@	c #CF6619",
"p@	c #856219",
"q@	c #5B5B18",
"r@	c #60601C",
"s@	c #B5701D",
"t@	c #DA996B",
"u@	c #B6B6B6",
"v@	c #4F4F4F",
"w@	c #4F260A",
"x@	c #F27720",
"y@	c #5F3A14",
"z@	c #292916",
"A@	c #CD671B",
"B@	c #6F661F",
"C@	c #E7761B",
"D@	c #D59C74",
"E@	c #C6A58E",
"F@	c #222222",
"G@	c #E76712",
"H@	c #A55515",
"I@	c #342B14",
"J@	c #282815",
"K@	c #2B2B18",
"L@	c #DB6B1B",
"M@	c #7B6018",
"N@	c #9C681A",
"O@	c #F7781A",
"P@	c #E09969",
"Q@	c #B7B7B7",
"R@	c #ED8A46",
"S@	c #C6A68F",
"T@	c #939393",
"U@	c #0F0702",
"V@	c #A0430C",
"W@	c #EE6D13",
"X@	c #4F3412",
"Y@	c #2A2A17",
"Z@	c #FF7A1B",
"`@	c #5A5A17",
" #	c #5A5A16",
".#	c #BA6B18",
"+#	c #E46916",
"@#	c #8A705E",
"##	c #B8B8B8",
"$#	c #ED8B46",
"%#	c #C7A690",
"&#	c #949494",
"*#	c #F66F11",
"=#	c #984D12",
"-#	c #FF7A19",
";#	c #595915",
">#	c #6F5C15",
",#	c #E67318",
"'#	c #9F470F",
")#	c #49413B",
"!#	c #B9B9B9",
"~#	c #ED8B47",
"{#	c #C8A790",
"]#	c #5C5C5C",
"^#	c #B24C0D",
"/#	c #E06814",
"(#	c #5E3A14",
"_#	c #FF7917",
":#	c #8F6215",
"<#	c #EC6E15",
"[#	c #6B3A18",
"}#	c #686868",
"|#	c #BABABA",
"1#	c #979797",
"2#	c #171717",
"3#	c #5F2E0C",
"4#	c #F76E0F",
"5#	c #FF7813",
"6#	c #D55E11",
"7#	c #523A29",
"8#	c #BBBBBB",
"9#	c #EE8B47",
"0#	c #C9A891",
"a#	c #515151",
"b#	c #1F0F04",
"c#	c #625A54",
"d#	c #BCBCBC",
"e#	c #EE8C47",
"f#	c #E49259",
"g#	c #DB9A6C",
"h#	c #DC9A6D",
"i#	c #DC9B6D",
"j#	c #DD9B6E",
"k#	c #DD9C6E",
"l#	c #AE6D3F",
"m#	c #DE9C6F",
"n#	c #F68434",
"  . + + + + + + + + + + + + + + + + + + + + + + + + + + + + @ # ",
"$ % % & & & & & & & & & & & & * = & & & & & & & & & & & & & - # ",
"$ % & & & & & ; > , ; & & & & ' ) ! ~ { & & & & & & & & & & - # ",
"] & & ^ ^ / ( _ : : _ < [ ^ ^ ^ ^ } | 1 2 ^ ^ ^ ^ ^ ^ ^ ^ ^ 3 # ",
"4 5 6 7 8 9 0 a a a b c d 7 e f f f g h i j k f f l m f f f n # ",
"4 8 o c p a a a q q q r r s o 7 t t t t u v w x f ^ y t t t n # ",
"z 7 A B C D r r E E F G H I J K L L L L M N O P Q R S L L L T # ",
"U V W X Y B Z `  ...o +.@.#.#.$.%.%.%.%.%.%.&.*.=.-.;.>.%.%.,.# ",
"'.).!.~.{.X ].o ^./.(._.#.#.:.<.[.[.[.[.[.[.[.}.|.1.1.2.[.[.3.# ",
"4.5.6.~.{.{.{.7.8._.#.#.:.:.9.<.0.0.0.a.b.c.0.d.e.f.=.1.0.0.3.# ",
"4.g.7.~.~.{.{.7.h.#.#.:.:.9.i.<.j.k.l.m.n.o.p.q.0.0.0.0.0.0.3.# ",
"r.s.t.~.~.~.{.7.u.#.:.9.9.i.v.w.x.n.y.z.z.A.B.C.D.E.F.F.F.F.G.# ",
"H.I.J.~.~.~.{.7.u.:.9.9.K.L.M.N.O.z.z.z.z.z.z.z.P.Q.R.S.T.T.U.# ",
"V.# W.X.~.~.~.Y Y.9.i.Z.M.`. +.+z.z.z.z.z.z.z.z.z.z.++@+#+$+%+# ",
"&+*+# W.=+-+~.Y ;+i.i.>+,+'+)+!+z.z.z.z.z.z.z.z.z.z.~+{+M.]+%+# ",
"^+/+(+# _+:+<+!.;+i.[+}+|+1+2+3+4+5+5+5+5+5+5+5+5+6+7+8+9+0+a+# ",
"b+c+d+*+# # e+f+g+h+i+j+k+l+m+n+o+p+q+r+r+r+r+s+t+u+v+w+x+y+z+# ",
"A+B+B+C+D+# # E+F+# G+H+I+J+K+L+M+N+O+P+Q+R+S+T+U+V+W+X+Y+Z+`+# ",
" @C+C+C+.@+@@@# G+#@f $@%@J+&@l+*@=@-@;@>@,@'@X+W+)@)@W+M.!@`+# ",
" @.@.@.@.@~@f +@f !@!@{@%@]@^@^@/@*@(@_@:@<@[@W+)@)@)@}@|@1@2@# ",
"y+.@~@~@~@~@!@!@!@!@1@3@4@^@^@^@^@/@*@5@6@7@V+)@)@)@)@8@9@0@9@# ",
"a@~@~@!@!@!@!@1@1@b@c@j+4@^@^@^@^@d@/@(@e@f@g@h@)@)@)@i@j@k@l@# ",
"m@!@!@!@1@1@1@1@n@# # j+4@^@^@^@^@^@d@/@o@p@q@q@r@)@)@s@t@u@l@# ",
"m@1@1@1@1@0@0@0@0@v@# w@x@y@^@^@^@^@^@z@A@p@q@q@q@h@B@C@D@u@l@# ",
"E@1@0@0@0@0@k@k@k@[.F@# i+G@H@I@^@^@J@K@L@M@q@q@q@N@O@P@Q@Q@R@# ",
"S@0@k@k@k@k@k@u@u@u@T@G+# U@V@W@X@*@^@Y@Z@`@ #`@.#+#@#######$## ",
"%#k@k@u@u@u@u@u@Q@Q@Q@&#F@# # w@*#=#d@z@-#;#>#,#'#)#c+!#!#!#~## ",
"{#u@u@u@Q@Q@Q@Q@Q@########]## # U@^#/#(#_#:#<#[#}#|#|#|#|#|#~## ",
"{#Q@Q@Q@Q@##########!#!#!#|#1#2## # 3#4#5#6#7#1#8#8#8#8#8#8#9## ",
"0#Q@########!#!#!#!#|#|#|#|#8#C+a## # b#j+c#d#d#d#d#d#d#d#d#e## ",
"f#g#g#h#h#h#h#i#i#i#i#j#j#j#j#k#k#l#i+i+l#m#m#m#m#m#m#m#m#m#n## ",
"# # # # # # # # # # # # # # # # # # # # # # # # # # # # # # # # "};
