/* XPM */
static char * dmmShelfAddSurfaceMesh_xpm[] = {
"32 32 519 2",
"  	c #BF743A",
". 	c #B87C4D",
"+ 	c #B97C4E",
"@ 	c #B97D4E",
"# 	c #BA7D4F",
"$ 	c #BA7E4F",
"% 	c #CF6513",
"& 	c #000000",
"* 	c #A98B74",
"= 	c #9B9B9B",
"- 	c #FFFFFF",
"; 	c #9C9C9C",
"> 	c #9D9D9D",
", 	c #9E9E9E",
"' 	c #9F9F9F",
") 	c #C86D27",
"! 	c #AA8C75",
"~ 	c #FF0000",
"{ 	c #A0A0A0",
"] 	c #AC8D76",
"^ 	c #A1A1A1",
"/ 	c #BB4D1C",
"( 	c #AD5328",
"_ 	c #A26440",
": 	c #9B7A63",
"< 	c #9A938E",
"[ 	c #C86D28",
"} 	c #AE9078",
"| 	c #A2A2A2",
"1 	c #9E6C4E",
"2 	c #B15023",
"3 	c #BB421A",
"4 	c #B93F1A",
"5 	c #BD3918",
"6 	c #C53415",
"7 	c #CD3414",
"8 	c #D13B14",
"9 	c #D34515",
"0 	c #CA5929",
"a 	c #BD774F",
"b 	c #B18E77",
"c 	c #C86E28",
"d 	c #B0927A",
"e 	c #B25E2C",
"f 	c #BF471A",
"g 	c #BB431A",
"h 	c #BC3A18",
"i 	c #AF4027",
"j 	c #B35D56",
"k 	c #C52F16",
"l 	c #D02C12",
"m 	c #C45F5C",
"n 	c #C75F5A",
"o 	c #D44021",
"p 	c #DC3E12",
"q 	c #DD4713",
"r 	c #D94F15",
"s 	c #D0612B",
"t 	c #BA8359",
"u 	c #AF947F",
"v 	c #A89E97",
"w 	c #A4A4A4",
"x 	c #C96E28",
"y 	c #B1937B",
"z 	c #BC5333",
"A 	c #B95F4E",
"B 	c #BC6F6C",
"C 	c #C36F6E",
"D 	c #B96E67",
"E 	c #9A735E",
"F 	c #7F734D",
"G 	c #C8330F",
"H 	c #7F7955",
"I 	c #747E56",
"J 	c #BA6A64",
"K 	c #C76665",
"L 	c #CD5E54",
"M 	c #D2573F",
"N 	c #D94F20",
"O 	c #DA4F15",
"P 	c #D9530B",
"Q 	c #CE6623",
"R 	c #BD8050",
"S 	c #A7A7A7",
"T 	c #BD3C1A",
"U 	c #BE7573",
"V 	c #C37171",
"W 	c #C66B6B",
"X 	c #BA6B64",
"Y 	c #87795A",
"Z 	c #618552",
"` 	c #658252",
" .	c #C73A0E",
"..	c #6D7D4C",
"+.	c #678354",
"@.	c #A1725F",
"#.	c #C86767",
"$.	c #C76666",
"%.	c #CF5A4C",
"&.	c #E23F08",
"*.	c #E04409",
"=.	c #D2630D",
"-.	c #A5A5A5",
";.	c #C96E29",
">.	c #A8A8A8",
",.	c #C45F5B",
"'.	c #C86463",
").	c #617C50",
"!.	c #61744E",
"~.	c #617C53",
"{.	c #C5411C",
"].	c #BE4519",
"^.	c #627456",
"/.	c #747F56",
"(.	c #AF6E61",
"_.	c #CD5F54",
":.	c #DF4417",
"<.	c #E33D08",
"[.	c #A6A6A6",
"}.	c #C96F29",
"|.	c #B2937C",
"1.	c #A9A9A9",
"2.	c #AC401D",
"3.	c #9C381D",
"4.	c #B92013",
"5.	c #BB2012",
"6.	c #C7372B",
"7.	c #C73323",
"8.	c #9E3E21",
"9.	c #716E46",
"0.	c #656951",
"a.	c #611053",
"b.	c #613A53",
"c.	c #617C54",
"d.	c #914852",
"e.	c #CE3A11",
"f.	c #AB6244",
"g.	c #612970",
"h.	c #611975",
"i.	c #617457",
"j.	c #658352",
"k.	c #BF5220",
"l.	c #E14212",
"m.	c #CD6057",
"n.	c #D15A49",
"o.	c #CA6F29",
"p.	c #A1442B",
"q.	c #933D2B",
"r.	c #B31B12",
"s.	c #C76464",
"t.	c #C76463",
"u.	c #A93B23",
"v.	c #C51C02",
"w.	c #CA2806",
"x.	c #C5220E",
"y.	c #C42815",
"z.	c #B1442D",
"A.	c #874755",
"B.	c #6F0D6F",
"C.	c #CE2F14",
"D.	c #CA4520",
"E.	c #634368",
"F.	c #952A64",
"G.	c #CC3B1E",
"H.	c #CF470E",
"I.	c #CD4813",
"J.	c #BB6248",
"K.	c #C96867",
"L.	c #C96868",
"M.	c #D35742",
"N.	c #B2947D",
"O.	c #AAAAAA",
"P.	c #9D412B",
"Q.	c #8B3C2D",
"R.	c #B5231B",
"S.	c #B0241B",
"T.	c #C46B67",
"U.	c #614A2E",
"V.	c #624A40",
"W.	c #684944",
"X.	c #A1522E",
"Y.	c #C53712",
"Z.	c #CA3E0E",
"`.	c #CB3012",
" +	c #CB3417",
".+	c #CD3718",
"++	c #CF3812",
"@+	c #C6522F",
"#+	c #CF420F",
"$+	c #CF440F",
"%+	c #C64832",
"&+	c #687357",
"*+	c #DB4A25",
"=+	c #CA6F2A",
"-+	c #90422F",
";+	c #823C2E",
">+	c #C35C5A",
",+	c #A7503E",
"'+	c #616B43",
")+	c #61103B",
"!+	c #610038",
"~+	c #61083A",
"{+	c #615248",
"]+	c #656357",
"^+	c #784452",
"/+	c #D73E13",
"(+	c #DB3A07",
"_+	c #CF3B10",
":+	c #CD3B16",
"<+	c #79156E",
"[+	c #620174",
"}+	c #613267",
"|+	c #BC6C66",
"1+	c #CA6969",
"2+	c #CA702A",
"3+	c #B3957E",
"4+	c #ABABAB",
"5+	c #8A4632",
"6+	c #8E4336",
"7+	c #B6322B",
"8+	c #B52F17",
"9+	c #8C4D33",
"0+	c #615B4A",
"a+	c #61325F",
"b+	c #620166",
"c+	c #650466",
"d+	c #771261",
"e+	c #DB3508",
"f+	c #DB3B07",
"g+	c #C44633",
"h+	c #610074",
"i+	c #610872",
"j+	c #617456",
"k+	c #A37361",
"l+	c #DF4518",
"m+	c #C87534",
"n+	c #CB702A",
"o+	c #8F4832",
"p+	c #954437",
"q+	c #CC6B6B",
"r+	c #C25E5C",
"s+	c #B23218",
"t+	c #BA270C",
"u+	c #67784D",
"v+	c #614245",
"w+	c #61744F",
"x+	c #611963",
"y+	c #610066",
"z+	c #C32B1B",
"A+	c #6C0E6B",
"B+	c #614263",
"C+	c #617453",
"D+	c #96775E",
"E+	c #CB6A6A",
"F+	c #DF4519",
"G+	c #B4967E",
"H+	c #ACACAC",
"I+	c #8C4F39",
"J+	c #9A4637",
"K+	c #A34242",
"L+	c #85442D",
"M+	c #B01B09",
"N+	c #720F18",
"O+	c #62523B",
"P+	c #617C51",
"Q+	c #61425C",
"R+	c #C33C18",
"S+	c #D34925",
"T+	c #D74719",
"U+	c #C74913",
"V+	c #9C4F3F",
"W+	c #611059",
"X+	c #613257",
"Y+	c #897A5B",
"Z+	c #CC6969",
"`+	c #C37E48",
" @	c #CB702B",
".@	c #875540",
"+@	c #973B29",
"@@	c #761414",
"#@	c #610000",
"$@	c #614229",
"%@	c #A01D11",
"&@	c #C31E04",
"*@	c #710D1C",
"=@	c #622A2A",
"-@	c #627451",
";@	c #62434E",
">@	c #674550",
",@	c #6D454E",
"'@	c #C33C14",
")@	c #74454A",
"!@	c #6C8154",
"~@	c #D73F19",
"{@	c #DB3507",
"]@	c #D2452B",
"^@	c #612158",
"/@	c #758057",
"(@	c #CD6866",
"_@	c #E43D08",
":@	c #BF875D",
"<@	c #CB712B",
"[@	c #B5967F",
"}@	c #885641",
"|@	c #8F311E",
"1@	c #620101",
"2@	c #610805",
"3@	c #69442C",
"4@	c #C82F08",
"5@	c #C52A0B",
"6@	c #622929",
"7@	c #625B4F",
"8@	c #63024A",
"9@	c #65044A",
"0@	c #DB3506",
"a@	c #740D47",
"b@	c #6C0A5B",
"c@	c #D73E19",
"d@	c #D2502B",
"e@	c #867C5A",
"f@	c #CD6864",
"g@	c #E43D09",
"h@	c #BD8D67",
"i@	c #ADADAD",
"j@	c #80604E",
"k@	c #812513",
"l@	c #640201",
"m@	c #C24025",
"n@	c #CC3809",
"o@	c #C44F30",
"p@	c #61424E",
"q@	c #61004A",
"r@	c #6E0B4A",
"s@	c #638453",
"t@	c #623257",
"u@	c #777157",
"v@	c #D74418",
"w@	c #DB3D06",
"x@	c #D74F2D",
"y@	c #D8543A",
"z@	c #B69B84",
"A@	c #CC712B",
"B@	c #B59780",
"C@	c #785E50",
"D@	c #6E1B0B",
"E@	c #6A0402",
"F@	c #6A0909",
"G@	c #CC340B",
"H@	c #CF3805",
"I@	c #6A7352",
"J@	c #616350",
"K@	c #6E6350",
"L@	c #76604C",
"M@	c #62634A",
"N@	c #62213B",
"O@	c #771B3F",
"P@	c #E23E08",
"Q@	c #E2400E",
"R@	c #B79B85",
"S@	c #AEAEAE",
"T@	c #812D1E",
"U@	c #690301",
"V@	c #630202",
"W@	c #75100E",
"X@	c #CF3000",
"Y@	c #CA481D",
"Z@	c #620124",
"`@	c #630225",
" #	c #6E0B2A",
".#	c #DB3503",
"+#	c #760F28",
"@#	c #610034",
"##	c #623238",
"$#	c #624A32",
"%#	c #8B7B5C",
"&#	c #DF461B",
"*#	c #E04619",
"=#	c #AFAFAE",
"-#	c #AFAFAF",
";#	c #CC712C",
">#	c #B69881",
",#	c #756E69",
"'#	c #953D2C",
")#	c #A82219",
"!#	c #751414",
"~#	c #C64228",
"{#	c #CF3B09",
"]#	c #C54533",
"^#	c #620125",
"/#	c #680627",
"(#	c #762A31",
"_#	c #616344",
":#	c #612920",
"<#	c #8A634D",
"[#	c #CE6D6D",
"}#	c #D55C4A",
"|#	c #E33F09",
"1#	c #D9552D",
"2#	c #B0B0B0",
"3#	c #CC722C",
"4#	c #A15442",
"5#	c #B42D20",
"6#	c #B33729",
"7#	c #9E3D3D",
"8#	c #670606",
"9#	c #6C0B0A",
"0#	c #CC390E",
"a#	c #CF3504",
"b#	c #792F23",
"c#	c #612114",
"d#	c #682518",
"e#	c #6F2618",
"f#	c #91614F",
"g#	c #CF6E6E",
"h#	c #D8583F",
"i#	c #E3410A",
"j#	c #CD712A",
"k#	c #B1B0AE",
"l#	c #CD722C",
"m#	c #B79981",
"n#	c #A59C97",
"o#	c #A75F4D",
"p#	c #BC3D25",
"q#	c #CB3E22",
"r#	c #C84F3C",
"s#	c #983737",
"t#	c #680707",
"u#	c #8D251F",
"v#	c #CB3711",
"w#	c #680605",
"x#	c #70190F",
"y#	c #7C563F",
"z#	c #B37467",
"A#	c #D9563B",
"B#	c #E1440C",
"C#	c #D55F30",
"D#	c #B3ABA4",
"E#	c #B1B1B1",
"F#	c #A37C63",
"G#	c #BE5D34",
"H#	c #CE5125",
"I#	c #D74E25",
"J#	c #D55D49",
"K#	c #B35252",
"L#	c #B4534B",
"M#	c #DD3E0E",
"N#	c #CA5342",
"O#	c #B55352",
"P#	c #CB5D48",
"Q#	c #D06F6F",
"R#	c #E14415",
"S#	c #E0460E",
"T#	c #C58555",
"U#	c #B3B0AF",
"V#	c #B2B2B2",
"W#	c #CD722D",
"X#	c #B89982",
"Y#	c #B2A79F",
"Z#	c #C1875C",
"`#	c #D36536",
" $	c #DC4D1C",
".$	c #D75941",
"+$	c #DF481E",
"@$	c #E24313",
"#$	c #DA5235",
"$$	c #D26963",
"%$	c #D06F6E",
"&$	c #DF4A1D",
"*$	c #DE4C13",
"=$	c #C97C5B",
"-$	c #B3B3B3",
";$	c #CD732D",
">$	c #B5A9A0",
",$	c #CC7431",
"'$	c #DA5619",
")$	c #DD4D1B",
"!$	c #DD4E2A",
"~$	c #D95942",
"{$	c #E04612",
"]$	c #DA571F",
"^$	c #BD9F88",
"/$	c #B6B6B6",
"($	c #CE732D",
"_$	c #B89A83",
":$	c #DA5518",
"<$	c #DF4A15",
"[$	c #E24413",
"}$	c #E43E09",
"|$	c #E1450C",
"1$	c #D5612C",
"2$	c #BDA095",
"3$	c #B7B7B7",
"4$	c #B4B4B4",
"5$	c #D3640F",
"6$	c #D16919",
"7$	c #C88048",
"8$	c #B7B1AD",
"9$	c #B8B8B8",
"0$	c #CE732E",
"a$	c #B99B84",
"b$	c #B5B5B5",
"c$	c #BF9778",
"d$	c #C2926D",
"e$	c #B7B3B0",
"f$	c #B9B9B9",
"g$	c #CE742E",
"h$	c #C77C42",
"i$	c #C38758",
"j$	c #C48759",
"k$	c #C48859",
"l$	c #C5885A",
"m$	c #C5895A",
"n$	c #C6895B",
"o$	c #C68A5B",
"p$	c #C78A5C",
"q$	c #C78B5C",
"r$	c #C88B5D",
"s$	c #D26817",
"t$	c #351700",
"  . . . . . . . . . . + + + + + + + @ @ @ @ @ @ @ # # # $ $ % & ",
"* = = - - - - = = = = ; ; ; ; ; ; ; > > > > , , , ' ' ' ' ' ) & ",
"! ; > - ~ ~ - > > , , , , , , , ' ' ' { { { { { { { { ' ' ' ) & ",
"] - - - ~ ~ - - - { { { { ^ ^ / ( _ : < ; ^ ^ ^ ^ ^ { { { { [ & ",
"} - ~ ~ ~ ~ ~ ~ - | | 1 2 3 4 5 6 7 8 9 0 a b | | ^ ^ ^ ^ ^ c & ",
"d - ~ ~ ~ ~ ~ ~ - e f g h i j k l m n o p q r s t u v w w w x & ",
"y - - - ~ ~ - - - z A B C D E F G H I E J K L M N O P Q R w x & ",
"y S S - ~ ~ - T U V W X Y Z Z `  ...Z Z +.@.#.#.$.%.&.*.=.-.;.& ",
"y >.>.- - - - ,.'.#.@.).!.Z Z ~.{.].^.Z Z Z /.(._.:.<.<.=.[.}.& ",
"|.1.1.1.2.3.4.5.6.7.8.9.0.a.b.c.d.e.f.g.h.i.j.k.l.:.m.n.=.S o.& ",
"|.1.1.1.p.q.r.s.t.u.v.w.x.y.z.A.B.C.D.E.F.G.H.I.J.K.L.M.=.S o.& ",
"N.O.O.O.P.Q.R.S.T.U.V.W.X.Y.Z.`. +.+++@+#+$+%+&++.L.L.*+=.>.=+& ",
"N.O.O.O.-+;+>+R.,+'+)+!+~+{+]+^+/+(+_+$+:+<+[+}+Z |+1+*+=.1.2+& ",
"3+O.4+4+5+6+1+7+8+9+)+!+!+0+a+b+c+d+e+f+g+h+h+i+j+k+1+l+m+O.n+& ",
"3+4+4+4+o+p+q+r+s+t+u+v+~+w+x+b+y+b+z+(+f+A+B+c.C+D+E+F+m+O.n+& ",
"G+4+4+H+I+J+q+K+L+M+N+O+P+Z Q+Q+Q+Q+R+S+T+U+V+W+X+Y+Z+F+`+4+ @& ",
"G+H+H+H+.@+@@@#@$@%@&@*@=@-@;@>@;@,@'@)@!@~@{@]@^@/@(@_@:@H+<@& ",
"[@H+H+H+}@|@1@#@2@3@4@5@6@7@8@8@8@9@0@a@Z b@c@(+d@e@f@g@h@i@<@& ",
"[@H+i@i@j@k@l@#@#@#@m@n@o@p@q@q@8@r@0@a@s@t@u@v@w@x@y@g@z@i@A@& ",
"B@i@i@i@C@D@E@#@#@#@F@G@H@I@J@J@J@K@w@L@s@M@N@O@T+P@Q@g@R@S@A@& ",
"B@i@i@i@C@T@U@#@#@V@V@W@X@Y@Z@Z@`@ #.#+#Z @###$#%#&#g@*#=#-#;#& ",
">#i@S@S@,#'#)#!##@#@V@1@~#{#]#^#^#/#.#(#_#:#2@<#[#}#|#1#2#2#3#& ",
">#S@S@S@i@4#5#6#7#8##@#@9#0#a#b#c#d#a#e#2@c#f#g#h#i#j#k#2#2#l#& ",
"m#S@S@-#-#n#o#p#q#r#s#t##@u#X@v##@w#X@x#y#z#g#A#B#C#D#E#E#E#l#& ",
"m#-#-#-#-#-#2#F#G#H#I#J#K#K#L#M#N#O#M#P#g#Q#R#S#T#U#V#V#V#V#W#& ",
"X#-#-#-#2#2#2#2#2#Y#Z#`# $.$g#+$@$#$@$$$%$&$*$=$-$-$-$-$-$-$;$& ",
"X#-#-#-#2#2#2#E#E#E#E#>$,$'$)$!$@$@$@$~${$]$^$/$/$/$/$/$/$/$($& ",
"_$-#2#2#2#2#E#E#E#V#V#V#-$-$,$:$<$[$}$|$1$2$/$/$/$3$3$3$3$3$($& ",
"_$2#2#2#E#E#E#V#V#V#-$-$-$-$4$4$,$5$6$7$8$/$/$3$3$3$9$9$9$9$0$& ",
"a$2#E#E#E#E#V#V#V#-$-$-$4$4$4$b$b$c$d$e$/$/$3$3$3$9$9$9$f$f$g$& ",
"h$i$i$i$j$j$j$k$k$k$l$l$l$l$m$m$m$n$n$n$o$o$o$p$p$p$q$q$q$r$s$& ",
"t$t$t$t$t$t$t$t$t$t$t$t$t$t$t$t$t$t$t$t$t$t$t$t$t$t$t$t$t$t$t$& "};
