/* XPM */
static char * dmmShelfDuplicateObject_xpm[] = {
"32 32 251 2",
"  	c #C2763C",
". 	c #BC7F51",
"+ 	c #BC8051",
"@ 	c #BD8052",
"# 	c #BD8152",
"$ 	c #BE8153",
"% 	c #D06614",
"& 	c #000000",
"* 	c #AF9079",
"= 	c #A2A2A2",
"- 	c #A3A3A3",
"; 	c #A4A4A4",
"> 	c #A5A5A5",
", 	c #A6A6A6",
"' 	c #CA6F29",
") 	c #AF917A",
"! 	c #B0927B",
"~ 	c #AF9887",
"{ 	c #A7A7A7",
"] 	c #B1937B",
"^ 	c #B2947D",
"/ 	c #C4783E",
"( 	c #D65D00",
"_ 	c #D3610A",
": 	c #C77434",
"< 	c #BB865D",
"[ 	c #B2937C",
"} 	c #A8A8A8",
"| 	c #B69073",
"1 	c #CA6F2A",
"2 	c #CA5403",
"3 	c #A1370F",
"4 	c #882715",
"5 	c #953310",
"6 	c #A8400B",
"7 	c #C25005",
"8 	c #BC875E",
"9 	c #B3957E",
"0 	c #A9A9A9",
"a 	c #B4967E",
"b 	c #D06615",
"c 	c #D05801",
"d 	c #9B3310",
"e 	c #771B1B",
"f 	c #751B1B",
"g 	c #A23C0D",
"h 	c #AF440A",
"i 	c #6F1B1B",
"j 	c #6F1A1A",
"k 	c #751F19",
"l 	c #8F2F12",
"m 	c #B79174",
"n 	c #CE5801",
"o 	c #AC400B",
"p 	c #892715",
"q 	c #CF5801",
"r 	c #7B2317",
"s 	c #BC4C06",
"t 	c #C15005",
"u 	c #C85403",
"v 	c #CA702A",
"w 	c #AAAAAA",
"x 	c #B5967F",
"y 	c #B24808",
"z 	c #792715",
"A 	c #A4400B",
"B 	c #C05005",
"C 	c #B64808",
"D 	c #9C370F",
"E 	c #A03C0D",
"F 	c #691B1B",
"G 	c #BB4C06",
"H 	c #CB702A",
"I 	c #B59780",
"J 	c #ABABAB",
"K 	c #ADA6A0",
"L 	c #C75403",
"M 	c #872F12",
"N 	c #631B1B",
"O 	c #6E2317",
"P 	c #893310",
"Q 	c #A7440A",
"R 	c #772317",
"S 	c #ACA59F",
"T 	c #B69881",
"U 	c #C08455",
"V 	c #C87535",
"W 	c #BB8D6A",
"X 	c #B89275",
"Y 	c #9D3C0D",
"Z 	c #802B14",
"` 	c #6B1F19",
" .	c #641B1B",
"..	c #5F1B1B",
"+.	c #5A1B1B",
"@.	c #B74C06",
"#.	c #7E2715",
"$.	c #ACACAC",
"%.	c #B1A296",
"&.	c #C67A40",
"*.	c #B2440A",
"=.	c #B54808",
"-.	c #8E3310",
";.	c #C65403",
">.	c #701F19",
",.	c #B1A297",
"'.	c #A73C0D",
").	c #7D1F19",
"!.	c #781B1B",
"~.	c #9D2705",
"{.	c #C04500",
"].	c #611B1B",
"^.	c #5B1B1B",
"/.	c #6A1B1B",
"(.	c #CE6B20",
"_.	c #CB702B",
":.	c #CB712B",
"<.	c #8F2B14",
"[.	c #7C0606",
"}.	c #810000",
"|.	c #961700",
"1.	c #D05700",
"2.	c #892F12",
"3.	c #661B1B",
"4.	c #6A1F19",
"5.	c #711F19",
"6.	c #B44808",
"7.	c #C4804B",
"8.	c #BE4C06",
"9.	c #832317",
"0.	c #C95403",
"a.	c #810C06",
"b.	c #AB2E00",
"c.	c #A82E00",
"d.	c #721B1B",
"e.	c #ADADAD",
"f.	c #B79981",
"g.	c #C18556",
"h.	c #AD400B",
"i.	c #842317",
"j.	c #791B1B",
"k.	c #CA5301",
"l.	c #B33A00",
"m.	c #860B00",
"n.	c #7B0000",
"o.	c #B34808",
"p.	c #A5400B",
"q.	c #671B1B",
"r.	c #761B1B",
"s.	c #8E2B14",
"t.	c #BD8F6C",
"u.	c #AEAEAE",
"v.	c #CC712B",
"w.	c #BC8F6C",
"x.	c #B94C06",
"y.	c #782715",
"z.	c #712317",
"A.	c #9C3C0D",
"B.	c #C45005",
"C.	c #9B3411",
"D.	c #9C380F",
"E.	c #BC4C07",
"F.	c #862912",
"G.	c #710F0F",
"H.	c #780303",
"I.	c #6D1F19",
"J.	c #97370F",
"K.	c #A63C0D",
"L.	c #D16715",
"M.	c #B59E8D",
"N.	c #621B1B",
"O.	c #631C1C",
"P.	c #863013",
"Q.	c #AA440A",
"R.	c #A03C0E",
"S.	c #691C1C",
"T.	c #7A1E13",
"U.	c #A5400C",
"V.	c #97380F",
"W.	c #BE4C07",
"X.	c #C97636",
"Y.	c #B1A9A4",
"Z.	c #AFAFAF",
"`.	c #B89982",
" +	c #A1400C",
".+	c #70201A",
"++	c #6A1C1C",
"@+	c #CE6C21",
"#+	c #C5814D",
"$+	c #D16716",
"%+	c #C08B62",
"&+	c #712418",
"*+	c #95380F",
"=+	c #8B3013",
"-+	c #CC712C",
";+	c #B0B0B0",
">+	c #B7A08F",
",+	c #B94C07",
"'+	c #641C1C",
")+	c #651C1C",
"!+	c #822C15",
"~+	c #731C1C",
"{+	c #822816",
"]+	c #772418",
"^+	c #CF6C21",
"/+	c #B1B1B1",
"(+	c #CC722C",
"_+	c #883013",
":+	c #761C1C",
"<+	c #751C1C",
"[+	c #A63C0E",
"}+	c #AD440A",
"|+	c #7F2C15",
"1+	c #812C15",
"2+	c #6D201A",
"3+	c #882816",
"4+	c #CD722C",
"5+	c #B2B2B2",
"6+	c #9C3C0E",
"7+	c #D3620B",
"8+	c #B8A290",
"9+	c #B89A83",
"0+	c #B69F8E",
"a+	c #903411",
"b+	c #893013",
"c+	c #7C201A",
"d+	c #B84808",
"e+	c #B4ACA6",
"f+	c #B3B3B3",
"g+	c #B99B84",
"h+	c #C6824D",
"i+	c #B4B4B4",
"j+	c #BA4C07",
"k+	c #9A3411",
"l+	c #CD5E0C",
"m+	c #BF926F",
"n+	c #CD722D",
"o+	c #BE916E",
"p+	c #B5B5B5",
"q+	c #CD732D",
"r+	c #C18C64",
"s+	c #CA7737",
"t+	c #C77C42",
"u+	c #C38658",
"v+	c #C38758",
"w+	c #C48759",
"x+	c #C48859",
"y+	c #C5885A",
"z+	c #C5895A",
"A+	c #D16816",
"B+	c #351700",
"  . . . . . . . . + + + + + + + + @ @ @ @ @ @ @ # # # # # $ % & ",
"* = = = = = = = = - - - - - - - - ; ; ; ; ; ; ; > > > > , , ' & ",
") - - - - - - - ; ; ; ; ; ; ; ; > > > > > > > , , , , , , , ' & ",
"! ; ; ; ; ; ; > > > > > > > > , , , , , ~ { { { { { { { { { ' & ",
"] > > > > > > , , , , , , , { { { { ^ / ( _ : < ^ { { { { { ' & ",
"[ , , , , , { { { { { { { } } } | 1 2 3 4 ( 5 6 7 ( : 8 9 } 1 & ",
"^ { { { { } } } } } } 0 0 0 a b c d e e f g h i j k l 7 ( | 1 & ",
"9 } } } 0 0 0 0 0 0 0 0 0 0 m ( n 2 o p f k q r i r s t u a v & ",
"a 0 0 w w w w w w w w w w w x n y z A B q C 7 s D u E F G x H & ",
"I J J J J J J J J J K w w w x A L M N N O P Q n u R F F q S H & ",
"T J J J J J J J K U _ _ V W X Y Z n `  ...+.+.@.( #.F F ( J H & ",
"T $.$.$.$.$.%.&._ *.*.6 5 =.q B -.A y  ...+.+.;.E q >.F ( J H & ",
"T $.$.$.,.&.c '.).!.3 6 i i i ~.{.( ( Y ].^.^.( /.E t #.(.$._.& ",
"T $.T :.c '.).!.!.!.<.s i i i [.}.|.1.( 2.3.4.( 5./.6.t _.$._.& ",
"T $.7.( 8.d !.!.!.!.9.0.i i i a.b.1.c.( t 3.3.( f d.k 0.:.e.:.& ",
"f.e.g.( y y c h.i.j.j.( i i D k.l.m.n.( o.p.q.( r.r.s.c t.u.v.& ",
"f.e.w.x.n y.z.A.L B.C.c D.E.t F.G.H.n.( I.q J.B.r.K.L.M.u.u.v.& ",
"f.e.f.x.-.B N.N.O.P.Q.( q R.S.S.S.S.T.( U.V.( B.W.X.Y.Z.Z.Z.v.& ",
"f.e.`.x.N.y Q.O.O.O.O. +( 6..+++S.S.S.@+#+$+( ( %+Z.Z.Z.Z.Z.v.& ",
"f.u.u.( N.4.n &+O.O.O.*+6.R.q =+++++S.-+;+;+>+>+;+;+;+;+;+;+-+& ",
"`.u.u.( N.O.*+,+O.'+)+!+W.~+{+t 6..+]+^+/+/+/+/+/+/+/+/+/+/+(+& ",
"`.u.u.L.&+O.O.L _+)+)+!+W.:+:+<+[+q }+(+/+/+/+/+/+/+/+/+/+/+(+& ",
"`.u.Z.v.|+O.'+1+q 2+)+!+W.:+:+:+:+3+2 4+5+5+5+5+5+5+5+5+5+5+4+& ",
"`.Z.Z.v.6+)+)+)+U.o.)+!+W.:+:+:+:+[+7+8+5+5+5+5+5+5+5+5+5+5+4+& ",
"9+Z.Z.0+v.u a+)+2+u b+!+W.:+:+c+d+^+e+5+5+f+f+f+f+f+f+f+f+f+4+& ",
"9+Z.Z.Z.;+g+-+u !+!+q b+W.:+3+B.h+5+5+5+f+f+f+f+f+i+f+f+f+f+4+& ",
"9+Z.Z.;+;+;+;+g+$+j+t u W.k+l+m+5+5+5+f+f+f+f+f+i+i+i+i+i+i+n+& ",
"9+Z.;+;+;+;+;+/+/+o+$+( c $+8+5+5+f+f+f+f+f+f+i+i+i+i+i+p+p+q+& ",
"g+;+;+;+;+/+/+/+/+/+/+r+s+e+5+5+f+f+f+f+f+i+i+i+i+i+i+p+p+p+q+& ",
"g+;+;+;+/+/+/+/+/+/+5+5+5+5+5+f+f+f+f+i+i+i+i+i+i+p+p+p+p+p+q+& ",
"t+u+u+v+v+v+v+v+w+w+w+w+w+x+x+x+x+x+x+y+y+y+y+y+y+z+z+z+z+z+A+& ",
"B+B+B+B+B+B+B+B+B+B+B+B+B+B+B+B+B+B+B+B+B+B+B+B+B+B+B+B+B+B+B+& "};
