/* XPM */
static char * dmmShelfDetachComponent_xpm[] = {
"32 32 446 2",
"  	c #E7572B",
". 	c #D07052",
"+ 	c #D07053",
"@ 	c #C47458",
"# 	c #2D5315",
"$ 	c #005300",
"% 	c #095A09",
"& 	c #A4AFA4",
"* 	c #8AA58A",
"= 	c #729772",
"- 	c #648D64",
"; 	c #1C701C",
"> 	c #257A19",
", 	c #B1754F",
"' 	c #F34B17",
") 	c #000000",
"! 	c #A1A1A1",
"~ 	c #A2A2A2",
"{ 	c #BF8370",
"] 	c #AD958E",
"^ 	c #738773",
"/ 	c #004800",
"( 	c #065406",
"_ 	c #97A797",
": 	c #297029",
"< 	c #005200",
"[ 	c #005B00",
"} 	c #005E00",
"| 	c #036403",
"1 	c #578857",
"2 	c #6F8E7C",
"3 	c #3C7B56",
"4 	c #006429",
"5 	c #00711E",
"6 	c #006726",
"7 	c #287347",
"8 	c #4F6F4F",
"9 	c #004A00",
"0 	c #005000",
"a 	c #045304",
"b 	c #97A897",
"c 	c #6E956E",
"d 	c #518451",
"e 	c #0F620F",
"f 	c #015F01",
"g 	c #3D7B3D",
"h 	c #B9A388",
"i 	c #DCA561",
"j 	c #EDA64E",
"k 	c #CAA474",
"l 	c #ADA295",
"m 	c #0A6730",
"n 	c #006D21",
"o 	c #008111",
"p 	c #009402",
"q 	c #009800",
"r 	c #00840F",
"s 	c #146B38",
"t 	c #315F37",
"u 	c #004600",
"v 	c #004D00",
"w 	c #085308",
"x 	c #9FAC9F",
"y 	c #A5B1A5",
"z 	c #829C82",
"A 	c #0E5C0E",
"B 	c #005800",
"C 	c #005900",
"D 	c #4A6C2B",
"E 	c #F3A648",
"F 	c #F5A838",
"G 	c #CDAC2D",
"H 	c #C8AD2C",
"I 	c #E1AA33",
"J 	c #FAA739",
"K 	c #E2A55B",
"L 	c #C5A47C",
"M 	c #A8A39C",
"N 	c #E8582B",
"O 	c #CF4F03",
"P 	c #009105",
"Q 	c #009900",
"R 	c #009A00",
"S 	c #008C0A",
"T 	c #006E21",
"U 	c #195F2F",
"V 	c #023F04",
"W 	c #004B00",
"X 	c #095009",
"Y 	c #9AA89A",
"Z 	c #337033",
"` 	c #004C00",
" .	c #005500",
"..	c #005700",
"+.	c #6D7E19",
"@.	c #C3AD2B",
"#.	c #AFAF26",
"$.	c #E6A934",
"%.	c #FFA73B",
"&.	c #F9450E",
"*.	c #EF3C03",
"=.	c #006A23",
"-.	c #007E14",
";.	c #009602",
">.	c #009007",
",.	c #007C17",
"'.	c #006B23",
").	c #006721",
"!.	c #006E11",
"~.	c #0C6E19",
"{.	c #08410E",
"].	c #004300",
"^.	c #094F09",
"/.	c #397239",
"(.	c #014E00",
"_.	c #AC8A2B",
":.	c #BEAE29",
"<.	c #B9AE28",
"[.	c #D7AB30",
"}.	c #FF3F04",
"|.	c #7F2D02",
"1.	c #002907",
"2.	c #004919",
"3.	c #006623",
"4.	c #006D14",
"5.	c #007305",
"6.	c #007600",
"7.	c #007500",
"8.	c #01700B",
"9.	c #306943",
"0.	c #0E370E",
"a.	c #064806",
"b.	c #7D967D",
"c.	c #226122",
"d.	c #054601",
"e.	c #415B29",
"f.	c #6A5F28",
"g.	c #9F782F",
"h.	c #E99C38",
"i.	c #D2AC2F",
"j.	c #F6A339",
"k.	c #CA9333",
"l.	c #837828",
"m.	c #001C00",
"n.	c #004014",
"o.	c #006C17",
"p.	c #007700",
"q.	c #007400",
"r.	c #00700A",
"s.	c #2B7449",
"t.	c #8B928B",
"u.	c #315431",
"v.	c #1A4B1A",
"w.	c #044304",
"x.	c #014101",
"y.	c #245324",
"z.	c #9F8338",
"A.	c #565629",
"B.	c #545426",
"C.	c #74642A",
"D.	c #C98D34",
"E.	c #AF892F",
"F.	c #7A7528",
"G.	c #717126",
"H.	c #001B00",
"I.	c #007300",
"J.	c #006F0A",
"K.	c #2A7548",
"L.	c #A8A8A8",
"M.	c #A5A5A5",
"N.	c #989D98",
"O.	c #8A938A",
"P.	c #949994",
"Q.	c #A5A6A5",
"R.	c #7F692C",
"S.	c #DB9936",
"T.	c #8C7B2A",
"U.	c #00370F",
"V.	c #006A19",
"W.	c #006E0A",
"X.	c #2A7549",
"Y.	c #A9A9A9",
"Z.	c #535325",
"`.	c #4E4E20",
" +	c #515123",
".+	c #957F2C",
"++	c #7F2C02",
"@+	c #002E0A",
"#+	c #00681E",
"$+	c #007200",
"%+	c #006D0A",
"&+	c #1F7141",
"*+	c #AAAAAA",
"=+	c #949494",
"-+	c #4B4B1D",
";+	c #A67A2D",
">+	c #B88C31",
",+	c #727227",
"'+	c #A6852E",
")+	c #BF3503",
"!+	c #001F02",
"~+	c #007100",
"{+	c #006A14",
"]+	c #ABABAB",
"^+	c #404040",
"/+	c #A5792C",
"(+	c #B3872C",
"_+	c #6A6A1F",
":+	c #6F6F24",
"<+	c #5F1701",
"[+	c #004119",
"}+	c #002C0A",
"|+	c #002002",
"1+	c #006426",
"2+	c #006B0F",
"3+	c #004C19",
"4+	c #2B7649",
"5+	c #8B9E93",
"6+	c #ACACAC",
"7+	c #4B4B4B",
"8+	c #0F0A03",
"9+	c #EF9C37",
"0+	c #BB842F",
"a+	c #615620",
"b+	c #B07E2D",
"c+	c #AA832A",
"d+	c #68681D",
"e+	c #69691E",
"f+	c #E49D37",
"g+	c #3F0F01",
"h+	c #001F0C",
"i+	c #004017",
"j+	c #007002",
"k+	c #000C05",
"l+	c #6C6C6C",
"m+	c #ADADAD",
"n+	c #151515",
"o+	c #7F531D",
"p+	c #786224",
"q+	c #D29033",
"r+	c #8D7724",
"s+	c #7A6F20",
"t+	c #D99733",
"u+	c #F4A749",
"v+	c #CBAA82",
"w+	c #EA5A2E",
"x+	c #8A5A4B",
"y+	c #0A0A0A",
"z+	c #000602",
"A+	c #002B11",
"B+	c #003214",
"C+	c #AEAEAE",
"D+	c #B3A7A3",
"E+	c #8D8D8D",
"F+	c #2B2B2B",
"G+	c #5F3E16",
"H+	c #DF9233",
"I+	c #E89B37",
"J+	c #6F4919",
"K+	c #4C4C4C",
"L+	c #C09082",
"M+	c #AFAFAF",
"N+	c #C39384",
"O+	c #F54D19",
"P+	c #FA460E",
"Q+	c #D77759",
"R+	c #B4A8A4",
"S+	c #838383",
"T+	c #CF872F",
"U+	c #3B362F",
"V+	c #8E8E8E",
"W+	c #EB5B2E",
"X+	c #C19182",
"Y+	c #616161",
"Z+	c #363636",
"`+	c #828282",
" @	c #BE9A8E",
".@	c #EB5B2F",
"+@	c #EF3A07",
"@@	c #D22E09",
"#@	c #E73808",
"$@	c #CF310D",
"%@	c #D7775A",
"&@	c #B4A8A5",
"*@	c #B0B0B0",
"=@	c #848484",
"-@	c #2C2C2C",
";@	c #161616",
">@	c #797979",
",@	c #C29283",
"'@	c #A5ABA7",
")@	c #DC704F",
"!@	c #F73C05",
"~@	c #B82B11",
"{@	c #891E1A",
"]@	c #AA1506",
"^@	c #DF360A",
"/@	c #7F1D1D",
"(@	c #8F2019",
"_@	c #D8785A",
":@	c #B5B0A9",
"<@	c #B1B1B1",
"[@	c #8F8F8F",
"}@	c #D27E64",
"|@	c #C82F0E",
"1@	c #821D1D",
"2@	c #871313",
"3@	c #AD0F01",
"4@	c #801D1D",
"5@	c #D8785B",
"6@	c #B6AAA7",
"7@	c #B2B2B2",
"8@	c #C39385",
"9@	c #C49485",
"0@	c #F05424",
"a@	c #992217",
"b@	c #831A1A",
"c@	c #900303",
"d@	c #7F1C1C",
"e@	c #D9795B",
"f@	c #B7ABA8",
"g@	c #B3B3B3",
"h@	c #EC5C2F",
"i@	c #E16944",
"j@	c #A92614",
"k@	c #8B0C0C",
"l@	c #920000",
"m@	c #9F0700",
"n@	c #972217",
"o@	c #E26A46",
"p@	c #B4B4B4",
"q@	c #EC5C30",
"r@	c #C12D10",
"s@	c #8A1E1A",
"t@	c #851616",
"u@	c #801B1B",
"v@	c #A8220F",
"w@	c #E23808",
"x@	c #DA7A5C",
"y@	c #B5B5B5",
"z@	c #C59586",
"A@	c #ED3703",
"B@	c #A22416",
"C@	c #8F0505",
"D@	c #801E1E",
"E@	c #810E0E",
"F@	c #C12103",
"G@	c #F53C05",
"H@	c #842318",
"I@	c #B32E10",
"J@	c #DA7A5D",
"K@	c #B6B6B6",
"L@	c #C69687",
"M@	c #EB3A07",
"N@	c #DB2F03",
"O@	c #930F01",
"P@	c #DA2E06",
"Q@	c #990300",
"R@	c #801919",
"S@	c #820E0E",
"T@	c #880502",
"U@	c #D62B02",
"V@	c #D9360A",
"W@	c #711F1B",
"X@	c #691E1E",
"Y@	c #BC300E",
"Z@	c #DB7B5D",
"`@	c #B7B7B7",
" #	c #ED5D30",
".#	c #C69688",
"+#	c #AF2E10",
"@#	c #D7360A",
"##	c #AE1B01",
"$#	c #780300",
"%#	c #C42302",
"&#	c #F13703",
"*#	c #FFFFFF",
"=#	c #BD300E",
"-#	c #C9998B",
";#	c #B8B8B8",
">#	c #ED5D31",
",#	c #B9300E",
"'#	c #781D12",
")#	c #F63B03",
"!#	c #7C0300",
"~#	c #7C0000",
"{#	c #9C0F01",
"]#	c #FF0000",
"^#	c #CA9A8B",
"/#	c #B9B9B9",
"(#	c #C79788",
"_#	c #C89889",
":#	c #D13104",
"<#	c #430000",
"[#	c #AC2302",
"}#	c #CD2702",
"|#	c #6A1E1E",
"1#	c #CB9B8C",
"2#	c #BABABA",
"3#	c #898989",
"4#	c #562617",
"5#	c #D02F03",
"6#	c #610700",
"7#	c #F53B03",
"8#	c #940B00",
"9#	c #7E0000",
"0#	c #631616",
"a#	c #BFB3AF",
"b#	c #BBBBBB",
"c#	c #EE5E31",
"d#	c #C9998A",
"e#	c #5C5C5C",
"f#	c #1F0700",
"g#	c #F33B03",
"h#	c #620000",
"i#	c #A91B01",
"j#	c #DF2F03",
"k#	c #DE2F03",
"l#	c #920B00",
"m#	c #EE3703",
"n#	c #BA2302",
"o#	c #761811",
"p#	c #6A1F1F",
"q#	c #BCBCBC",
"r#	c #EE5E32",
"s#	c #959595",
"t#	c #0B0B0B",
"u#	c #550000",
"v#	c #690000",
"w#	c #6B0000",
"x#	c #E33303",
"y#	c #A61301",
"z#	c #790000",
"A#	c #D0340C",
"B#	c #A12A14",
"C#	c #BDBDBD",
"D#	c #E46C47",
"E#	c #DC7C5E",
"F#	c #B9593B",
"G#	c #B31F02",
"H#	c #B41F02",
"I#	c #D02B02",
"J#	c #BC1F02",
"K#	c #E93703",
"L#	c #DE7E61",
"M#	c #F64E1B",
"  . . + + + + + + + @ # $ % & * = - ; > , + + + + + + + + + ' ) ",
". ! ! ~ ~ { ] ~ ~ ~ ^ / $ ( _ : < [ } | 1 ~ ~ ~ ~ ~ ~ ~ ~ ~   ) ",
". ! 2 3 4 5 6 7 2 ~ 8 9 0 a b c d e [ f g ~ h i j k l ~ ~ ~   ) ",
"' m n o p q q r n s t u v w x y z A B C D E F G H I J K L M N ) ",
"O P q q q q Q R S T U V W X Y Z `  .....+.@.#.#.#.#.#.H $.%.&.) ",
"*.=.-.;.R >.,.'.).!.~.{.].^.x /.v < < (._.I :.#.#.#.#.<.[.J }.) ",
"|.1.2.6 '.3.4.5.6.7.8.9.0.a.b.c.9 v d.e.f.g.h.F i.H I j.k.l.}.) ",
"|.m.m.n.o.p.6.7.7.q.r.s.t.u.v.w.x.y.z.A.B.B.B.C.D.j.E.F.G.G.}.) ",
"|.H.m.n.4.6.7.7.q.I.J.K.L.M.N.O.P.Q.%.B.B.B.B.B.R.S.G.G.G.T.}.) ",
"|.H.m.U.V.7.q.q.I.I.W.X.Y.Y.Y.Y.Y.Y.%.Z.`.`. +B.R.S.G.G.G..+}.) ",
"++H.H.@+#+q.I.I.$+$+%+&+*+*+*+*+*+=+%.-+-+-+-+-+;+>+,+,+,+'+}.) ",
")+!+H.@+#+I.$+$+~+~+{+X.]+]+]+]+^+) %.-+-+-+-+-+/+(+_+:+,+>+}.) ",
"<+[+}+|+1+$+$+~+2+3+4+5+6+6+6+6+7+8+9+0+a+-+-+-+b+c+d+e+.+f+}.) ",
"g+) h+i+4 j+{+n.k+) l+m+m+m+m+m+~ n+8+o+9+0+p+-+q+r+s+t+u+v+w+) ",
"x+y+) z+A+B+k+) n+l+C+C+C+D+D+C+C+E+F+) 8+G+H+q+I+t+9+J+K+C+w+) ",
"L+! F+) ) ) F+l+C+C+M+M+N+O+P+Q+R+M+M+S+F+) ) G+T+o+U+V+M+M+W+) ",
"X+m+m+Y+Z+`+C+M+M+M+ @.@+@@@#@$@P+%@&@*@*@=@-@) ;@>@*@*@*@*@.@) ",
",@C+C+M+M+M+M+*@'@)@!@~@{@]@^@/@(@$@P+_@:@<@<@[@<@<@<@<@<@<@.@) ",
"N+M+M+M+*@*@*@}@P+|@{@1@2@3@^@4@4@4@(@$@P+5@6@7@7@7@7@7@7@7@.@) ",
"8@*@*@*@*@9@0@^@a@1@1@b@c@3@^@4@4@4@4@d@(@$@P+e@f@g@g@g@g@g@h@) ",
"8@<@<@<@i@+@j@1@1@1@1@k@l@m@!@4@4@4@4@4@d@d@n@}.o@p@p@p@p@p@q@) ",
"9@<@7@7@.@}.r@s@1@1@t@l@l@l@+@4@4@4@4@4@u@v@!@w@x@y@y@y@y@y@q@) ",
"z@7@g@g@h@}.A@+@B@1@C@l@l@l@^@4@D@D@u@E@F@G@H@I@J@K@K@K@K@K@q@) ",
"L@g@g@p@o@M@N@O@A@P@Q@l@l@l@^@4@R@S@T@U@V@W@X@Y@Z@`@`@`@`@`@ #) ",
".#p@p@p@x@+#@###$#%#&#*#*#*#*#*#*#*#*#=#X@X@X@V@-#;#;#;#;#;#>#) ",
".#y@y@y@x@,#'#)#!#~#{#*#]#]#]#]#]#]#*#X@X@X@X@V@^#/#/#/#/#/#>#) ",
"(#K@K@K@_#:#<#[#}#~#~#*#]#]#]#]#]#]#*#|#|#|#|#V@1#2#2#2#2#2#>#) ",
"_#K@`@3#4#5#<#6#7#8#9#*#*#*#*#*#*#*#*#0#|#|#|#}.a#b#b#b#b#b#c#) ",
"d#`@e#) f#g#<#h#i#j#9#9#9#9#k#l#%#m#m#n#o#p#p#}.q#q#q#q#q#q#r#) ",
"-#;#s#t#) }.u#v#w#x#y#9#9#9#k#z#z#z#l#%#}.A#B#}.C#C#C#C#C#C#r#) ",
"D#E#E#F#g+}.G#H#H#I#)#k#k#k#)#J#J#J#J#J#%#K#}.}.L#L#L#L#L#L#M#) ",
") ) ) ) ) ) ) ) ) ) ) ) ) ) ) ) ) ) ) ) ) ) ) ) ) ) ) ) ) ) ) ) "};
