/* XPM */
static char * dmmShelfPolyCone_xpm[] = {
"32 32 161 2",
"  	c #D57235",
". 	c #C77847",
"+ 	c #F16611",
"@ 	c #000000",
"# 	c #AB836B",
"$ 	c #8F8F8F",
"% 	c #CE753E",
"& 	c #E36C23",
"* 	c #A48674",
"= 	c #FF6100",
"- 	c #968C86",
"; 	c #AC856D",
"> 	c #919191",
", 	c #DC6F2C",
"' 	c #C3490D",
") 	c #D85108",
"! 	c #B28B72",
"~ 	c #999999",
"{ 	c #C58056",
"] 	c #CD4D0B",
"^ 	c #AF4211",
"/ 	c #943618",
"( 	c #A59285",
"_ 	c #F86409",
": 	c #89341B",
"< 	c #B04212",
"[ 	c #8A321A",
"} 	c #CE4D0A",
"| 	c #E15506",
"1 	c #E56F26",
"2 	c #D45209",
"3 	c #EB5904",
"4 	c #622525",
"5 	c #B04312",
"6 	c #8C331B",
"7 	c #953718",
"8 	c #C07A50",
"9 	c #DF5506",
"0 	c #CA4E0B",
"a 	c #9C3B17",
"b 	c #B24312",
"c 	c #662525",
"d 	c #F55D02",
"e 	c #F86308",
"f 	c #9D897D",
"g 	c #8A3719",
"h 	c #6B2822",
"i 	c #CD4E0B",
"j 	c #9F3B17",
"k 	c #BC4610",
"l 	c #C54A0D",
"m 	c #B14212",
"n 	c #EB6B1C",
"o 	c #AA4312",
"p 	c #953B17",
"q 	c #C44A0D",
"r 	c #D75209",
"s 	c #8C341B",
"t 	c #6F2822",
"u 	c #782C20",
"v 	c #B97E5A",
"w 	c #9F3F14",
"x 	c #9C938C",
"y 	c #909090",
"z 	c #262626",
"A 	c #393939",
"B 	c #565656",
"C 	c #727272",
"D 	c #AC8E7C",
"E 	c #EE600B",
"F 	c #F45D02",
"G 	c #E25506",
"H 	c #DF722F",
"I 	c #949494",
"J 	c #1C1C1C",
"K 	c #E26113",
"L 	c #872D09",
"M 	c #642519",
"N 	c #CE4E0B",
"O 	c #6E2822",
"P 	c #979797",
"Q 	c #929292",
"R 	c #424242",
"S 	c #8F3600",
"T 	c #E55400",
"U 	c #BE4200",
"V 	c #DA4E00",
"W 	c #F25A00",
"X 	c #D85209",
"Y 	c #A83F14",
"Z 	c #F26813",
"` 	c #696969",
" .	c #4F1E00",
"..	c #7D2400",
"+.	c #862400",
"@.	c #3E0000",
"#.	c #570C00",
"$.	c #872400",
"%.	c #E85400",
"&.	c #9A2C02",
"*.	c #7F230B",
"=.	c #681F19",
"-.	c #CC7D4C",
";.	c #0F0600",
">.	c #DF5400",
",.	c #B13C00",
"'.	c #320000",
").	c #400600",
"!.	c #B73C00",
"~.	c #9F3000",
"{.	c #400000",
"].	c #C34200",
"^.	c #F35A00",
"/.	c #5F0C00",
"(.	c #490000",
"_.	c #D14800",
":.	c #8B290B",
"<.	c #581414",
"[.	c #953719",
"}.	c #9F958F",
"|.	c #993000",
"1.	c #340000",
"2.	c #802400",
"3.	c #CF4800",
"4.	c #6F1800",
"5.	c #E75400",
"6.	c #982A00",
"7.	c #8D2400",
"8.	c #530D0D",
"9.	c #4C4C4C",
"0.	c #3F1800",
"a.	c #A53600",
"b.	c #661800",
"c.	c #4B0600",
"d.	c #761800",
"e.	c #6B1200",
"f.	c #540600",
"g.	c #B88769",
"h.	c #827872",
"i.	c #EF5A00",
"j.	c #AB3600",
"k.	c #DC4E00",
"l.	c #C64200",
"m.	c #A43000",
"n.	c #BA3C00",
"o.	c #7A1C04",
"p.	c #D27942",
"q.	c #B33C00",
"r.	c #731E00",
"s.	c #631200",
"t.	c #DB4E00",
"u.	c #AF3600",
"v.	c #350000",
"w.	c #CC4800",
"x.	c #9A3000",
"y.	c #7B1E00",
"z.	c #811E00",
"A.	c #671800",
"B.	c #BF845F",
"C.	c #932A00",
"D.	c #D87639",
"  . . . . . . . . . . . . . . . . . . . . . . . . . . . . . + @ ",
"# $ $ $ $ $ $ $ $ $ $ $ $ $ $ $ $ %   $ $ $ $ $ $ $ $ $ $ $ & @ ",
"# $ $ $ $ $ $ $ $ $ $ $ $ $ $ $ * = = # $ $ $ $ $ $ $ $ $ $ & @ ",
"# $ $ $ $ $ $ $ $ $ $ $ $ $ $ - + = = + - $ $ $ $ $ $ $ $ $ & @ ",
"; > > > > > > > > > > > > > > , = ' ) = . $ $ $ $ $ $ $ $ $ & @ ",
"! ~ ~ ~ ~ ~ ~ ~ ~ ~ ~ ~ ~ ~ { = ] ^ / = = * $ $ $ $ $ $ $ $ & @ ",
"! ~ ~ ~ ~ ~ ~ ~ ~ ~ ~ ~ ~ ( _ = : < [ } | & $ $ $ $ $ $ $ $ & @ ",
"! ~ ~ ~ ~ ~ ~ ~ ~ ~ ~ ~ ~ 1 2 3 4 5 6 7 | ) 8 $ $ $ $ $ $ $ & @ ",
"! ~ ~ ~ ~ ~ ~ ~ ~ ~ ~ ~ { 9 0 a 4 5 b c d [ e f $ $ $ $ $ $ & @ ",
"! ~ ~ ~ ~ ~ ~ ~ ~ ~ ~ ( _ g d h 4 i j c k l m , $ $ $ $ $ $ & @ ",
"! ~ ~ ~ ~ ~ ~ ~ ~ ~ ~ n o p q 4 4 r s c t d u 3 v $ $ $ $ $ & @ ",
"! ~ ~ ~ ~ ~ ~ ~ ~ ~ { = w 2 a 4 4 r s c c l b l _ x y $ $ $ & @ ",
"! ~ ~ z A B C ~ ~ D E w F 3 4 4 4 r s c c s G d l H ~ I $ $ & @ ",
"! ~ ~ J @ @ @ @ J K L M = i h 4 4 r s c c c 3 N O 3 ! ~ P Q & @ ",
"! ~ ~ R @ @ @ @ S T U = = V W 3 r 3 l k X d = = l Y Z ~ ~ ~ 1 @ ",
"! ~ ~ ` @ @ @  .= T ..U = +.@.#.$.= %.&.*.=.G d b 3 = -.~ ~ 1 @ ",
"! ~ ~ $ @ @ ;.>.,.'.).W !.~.{.{.].= ^./.(.(.= _.:.<.[.= }.~ 1 @ ",
"! ~ ~ ~ J @ S = |.1.2.3.~.~.{.4.5.3.6._.(.(.= 7._.(.8.= H ~ 1 @ ",
"! ~ ~ ~ 9.0.T a.b.1.T 4.$.3.c.5.4.3.(.%.d.e.%.(.^./.f.= 3 g.1 @ ",
"! ~ ~ ~ h.i.b.|.b.2.3.{.4.3.!.j.{.3.(.7.k.7.l.(.m.n.(.= o.Z n @ ",
"! ~ ~ ~ p.q.1.q.r.T 4.{.s.^.t.c.{.3.f.(._.^.m.(./.^.f.= (.u.= @ ",
"! ~ ~ ~ ! T v.w.x.t.{.{.c.= y.{.{.3.d.(./.= z.(.(.n.7.k.d.7.= @ ",
"! ~ ~ ~ ~ Z A.w.W $.{.4.^.t.].{.{.3.d.(.z.^.^.z.(.d.k._.d.k.= @ ",
"! ~ ~ ~ ~ B.w.= ^.#.j.5.4.c.^.#.{.3.e.(._.7.e.^.m.(.%.^.m.Z 1 @ ",
"! ~ ~ ~ ~ ~ Z = t.5.j.c.{.{.~.!.{.3.(.7._.(.(.f.k.l.m.= ^.B.1 @ ",
"! ~ ~ ~ ~ ~ -.= ^.4.{.{.{.{.c.^.s.3.f.%.d.(.(.(.(.n.%.= _ ~ 1 @ ",
"! ~ ~ ~ ~ ~ }.H _ 3.C.#.{.{.{.$.3.3.m.l.(.(.(.(.(.e._.= -.~ 1 @ ",
"! ~ ~ ~ ~ ~ ~ ~ ~ g.p.Z 5.j.4.{.5.^.^./.f.d.m._.= n p.B.~ ~ 1 @ ",
"! ~ ~ ~ ~ ~ ~ ~ ~ ~ ~ ~ D { n ^.5.= %.k.= 1 -.! }.~ ~ ~ ~ ~ 1 @ ",
"! ~ ~ ~ ~ ~ ~ ~ ~ ~ ~ ~ ~ ~ ~ }.B.D.{ D ~ ~ ~ ~ ~ ~ ~ ~ ~ ~ 1 @ ",
"D.-.-.-.-.-.-.-.-.-.-.-.-.-.-.-.-.-.-.-.-.-.-.-.-.-.-.-.-.-.Z @ ",
"0.0.0.0.0.0.0.0.0.0.0.0.0.0.0.0.0.0.0.0.0.0.0.0.0.0.0.0.0.0.0.@ "};
