/* XPM */
static char * dmmShelfDetachSplinters_xpm[] = {
"32 32 384 2",
"  	c #CE6412",
". 	c #1818E7",
"+ 	c #0000FF",
"@ 	c #3838C8",
"# 	c #0808F7",
"$ 	c #2F2FFF",
"% 	c #6F6FFF",
"& 	c #0F0FFF",
"* 	c #5F5FFF",
"= 	c #3737F7",
"- 	c #B87C4D",
"; 	c #B97C4E",
"> 	c #B97D4E",
", 	c #BA7D4F",
"' 	c #CF6513",
") 	c #000000",
"! 	c #C26F2F",
"~ 	c #3838C7",
"{ 	c #2020DF",
"] 	c #828282",
"^ 	c #717191",
"/ 	c #1010EF",
"( 	c #3030D0",
"_ 	c #4949B8",
": 	c #2828D7",
"< 	c #7F7FFF",
"[ 	c #4F4FFF",
"} 	c #3F3FFF",
"| 	c #1B1BFB",
"1 	c #9A88B3",
"2 	c #9B9B9B",
"3 	c #9C9C9C",
"4 	c #9D9D9D",
"5 	c #9E9E9E",
"6 	c #C86D27",
"7 	c #B77A4C",
"8 	c #818181",
"9 	c #5151B0",
"0 	c #4141C0",
"a 	c #1F1FFF",
"b 	c #CFCFFF",
"c 	c #EFEFFF",
"d 	c #5E319D",
"e 	c #A19993",
"f 	c #B08360",
"g 	c #6060A0",
"h 	c #5959A9",
"i 	c #DFDFFF",
"j 	c #7955AC",
"k 	c #9F9F9F",
"l 	c #AA8C75",
"m 	c #5050B0",
"n 	c #4848B8",
"o 	c #BFBFFF",
"p 	c #5C2F9C",
"q 	c #A7988C",
"r 	c #A1A1A1",
"s 	c #A0A0A0",
"t 	c #C86D28",
"u 	c #AC8D76",
"v 	c #686898",
"w 	c #787888",
"x 	c #797989",
"y 	c #9681B3",
"z 	c #A2A2A2",
"A 	c #C86E28",
"B 	c #AD8F78",
"C 	c #4040C0",
"D 	c #1511F0",
"E 	c #6A57B7",
"F 	c #3623CE",
"G 	c #2218E1",
"H 	c #D65D00",
"I 	c #CC6A1E",
"J 	c #C2773D",
"K 	c #B68865",
"L 	c #AC9584",
"M 	c #A3A3A3",
"N 	c #C96E28",
"O 	c #AF9079",
"P 	c #717190",
"Q 	c #4035D4",
"R 	c #967C9C",
"S 	c #2A23E2",
"T 	c #5546C5",
"U 	c #744690",
"V 	c #8C5447",
"W 	c #7D5E5E",
"X 	c #8D5E4D",
"Y 	c #A35E35",
"Z 	c #B45D23",
"` 	c #CA5D0B",
" .	c #D2610A",
"..	c #C96E29",
"+.	c #BD8052",
"@.	c #CF6514",
"#.	c #8C6A4F",
"$.	c #170ED6",
"%.	c #2208CF",
"&.	c #8E739C",
"*.	c #AC8D8D",
"=.	c #AB8C8C",
"-.	c #A08393",
";.	c #0300F8",
">.	c #3508AE",
",.	c #905242",
"'.	c #7D5F5F",
").	c #835E59",
"!.	c #A45E35",
"~.	c #795B44",
"{.	c #7469A3",
"].	c #0604F3",
"^.	c #483383",
"/.	c #6A4B4B",
"(.	c #592392",
"_.	c #916B8D",
":.	c #541C92",
"<.	c #3910AC",
"[.	c #592A97",
"}.	c #835F5A",
"|.	c #7E5F5F",
"1.	c #8E5F4E",
"2.	c #D05D06",
"3.	c #C45D12",
"4.	c #5B5B5B",
"5.	c #1C1CFB",
"6.	c #0B09E8",
"7.	c #2117C6",
"8.	c #3B1ABB",
"9.	c #8B73A3",
"0.	c #A2838D",
"a.	c #400293",
"b.	c #76498A",
"c.	c #7F6060",
"d.	c #AA5E30",
"e.	c #C05D18",
"f.	c #9F5E3C",
"g.	c #CA5D0C",
"h.	c #915F48",
"i.	c #B95D1E",
"j.	c #77697D",
"k.	c #3838F7",
"l.	c #5858A8",
"m.	c #3030CF",
"n.	c #0200F8",
"o.	c #0804ED",
"p.	c #452E73",
"q.	c #3B2E8E",
"r.	c #1408DD",
"s.	c #0300F1",
"t.	c #1300DD",
"u.	c #3F24BD",
"v.	c #8A6054",
"w.	c #7F6161",
"x.	c #C05E18",
"y.	c #AB5F30",
"z.	c #A05F3C",
"A.	c #8C604E",
"B.	c #7B6161",
"C.	c #BF5E18",
"D.	c #5C5C5C",
"E.	c #7F7883",
"F.	c #2A2AF9",
"G.	c #1712D1",
"H.	c #2013BC",
"I.	c #0C00DD",
"J.	c #290094",
"K.	c #270094",
"L.	c #70476F",
"M.	c #946043",
"N.	c #B25E24",
"O.	c #CB5D0C",
"P.	c #B05F2A",
"Q.	c #9A6043",
"R.	c #956049",
"S.	c #B55E24",
"T.	c #C55D12",
"U.	c #81615B",
"V.	c #7C6161",
"W.	c #CD6B1F",
"X.	c #7A5C44",
"Y.	c #73637A",
"Z.	c #2B0693",
"`.	c #0D08E7",
" +	c #240DB6",
".+	c #632D5F",
"++	c #4E332E",
"@+	c #4C3838",
"#+	c #685454",
"$+	c #766262",
"%+	c #88614F",
"&+	c #A65F31",
"*+	c #82615B",
"=+	c #7D6262",
"-+	c #CB702A",
";+	c #8D6F57",
">+	c #606060",
",+	c #5D5D5D",
"'+	c #73647B",
")+	c #0E0EFD",
"!+	c #25009A",
"~+	c #2B0899",
"{+	c #0908F7",
"]+	c #633C2B",
"^+	c #6B5757",
"/+	c #7C625C",
"(+	c #BA5E1E",
"_+	c #8E6150",
":+	c #D06615",
"<+	c #B5967F",
"[+	c #A5A5A5",
"}+	c #8D8D8D",
"|+	c #6B6B6B",
"1+	c #5E5A57",
"2+	c #CE6C20",
"3+	c #A24D1F",
"4+	c #4E3532",
"5+	c #6C3F28",
"6+	c #C45706",
"7+	c #523732",
"8+	c #4A3636",
"9+	c #4F3B3B",
"0+	c #5D4949",
"a+	c #695555",
"b+	c #746060",
"c+	c #776363",
"d+	c #C55E12",
"e+	c #A46037",
"f+	c #7E6363",
"g+	c #94614A",
"h+	c #CB702B",
"i+	c #AAAAAA",
"j+	c #ABABAB",
"k+	c #979797",
"l+	c #717171",
"m+	c #5E5E5E",
"n+	c #CB712B",
"o+	c #6C4029",
"p+	c #90491B",
"q+	c #AA5011",
"r+	c #564242",
"s+	c #614D4D",
"t+	c #756161",
"u+	c #896357",
"v+	c #8F6251",
"w+	c #7E6464",
"x+	c #9F613E",
"y+	c #C67B40",
"z+	c #898989",
"A+	c #626262",
"B+	c #B75D17",
"C+	c #4A3737",
"D+	c #B3530E",
"E+	c #87461E",
"F+	c #4D3939",
"G+	c #9A6144",
"H+	c #84635D",
"I+	c #AA6032",
"J+	c #C28557",
"K+	c #CC712B",
"L+	c #B59780",
"M+	c #B85D17",
"N+	c #523933",
"O+	c #CD5A03",
"P+	c #643D2C",
"Q+	c #4B3737",
"R+	c #BC550A",
"S+	c #593F3F",
"T+	c #745959",
"U+	c #B0602C",
"V+	c #BB5F1F",
"W+	c #B56025",
"X+	c #BD906D",
"Y+	c #ACACAC",
"Z+	c #939393",
"`+	c #676767",
" @	c #6D4029",
".@	c #C45806",
"+@	c #533933",
"@@	c #6E4029",
"#@	c #B5530E",
"$@	c #513737",
"%@	c #634848",
"&@	c #C25B10",
"*@	c #B99B84",
"=@	c #CC712C",
"-@	c #B69881",
";@	c #ADADAD",
">@	c #8F8F8F",
",@	c #904A1C",
"'@	c #6A3E2C",
")@	c #B7A18F",
"!@	c #CC722C",
"~@	c #AEAEAE",
"{@	c #909090",
"]@	c #686868",
"^@	c #5F5F5F",
"/@	c #87471F",
"(@	c #6E412A",
"_@	c #523838",
":@	c #523737",
"<@	c #C48759",
"[@	c #B2B2B2",
"}@	c #CD722C",
"|@	c #AFAFAF",
"1@	c #919191",
"2@	c #BD621D",
"3@	c #7E4522",
"4@	c #533934",
"5@	c #653E2D",
"6@	c #7F4523",
"7@	c #AC5111",
"8@	c #944A1C",
"9@	c #B3B3B3",
"0@	c #B79981",
"a@	c #B0B0B0",
"b@	c #BE906E",
"c@	c #D16716",
"d@	c #BB550A",
"e@	c #4B3838",
"f@	c #6D412A",
"g@	c #543A34",
"h@	c #914A1C",
"i@	c #944B1C",
"j@	c #533939",
"k@	c #73422A",
"l@	c #D3620B",
"m@	c #B6AEA8",
"n@	c #B4B4B4",
"o@	c #CD722D",
"p@	c #B1B1B1",
"q@	c #BA9C84",
"r@	c #C87C42",
"s@	c #AA5111",
"t@	c #764326",
"u@	c #914B1C",
"v@	c #6C3F2E",
"w@	c #BCA593",
"x@	c #B6B6B6",
"y@	c #CD732D",
"z@	c #B89982",
"A@	c #FFFFFF",
"B@	c #B4ACA6",
"C@	c #BF926F",
"D@	c #994C18",
"E@	c #B3540E",
"F@	c #884820",
"G@	c #AB5111",
"H@	c #844623",
"I@	c #C55807",
"J@	c #C29471",
"K@	c #B7B7B7",
"L@	c #CE732D",
"M@	c #FF0000",
"N@	c #B8A99D",
"O@	c #C5885A",
"P@	c #C55F13",
"Q@	c #A96334",
"R@	c #C45807",
"S@	c #C48F66",
"T@	c #B8B8B8",
"U@	c #CE732E",
"V@	c #0D0500",
"W@	c #B5B5B5",
"X@	c #BD9F87",
"Y@	c #C97E43",
"Z@	c #D4620B",
"`@	c #CA7E44",
" #	c #B9B9B9",
".#	c #CE742E",
"+#	c #351700",
"@#	c #B89A83",
"##	c #B8B1AB",
"$#	c #C09A7D",
"%#	c #C77C42",
"&#	c #C38658",
"*#	c #C38758",
"=#	c #C48859",
"-#	c #C5895A",
";#	c #C6895B",
">#	c #C68A5B",
",#	c #C78A5C",
"'#	c #C78B5C",
")#	c #D26817",
"  . + @ @ # + # + + + $ % % & + $ * + + = - - ; ; ; ; ; > , ' ) ",
"! ~ ~ { ] ^ / ( / / _ : + & * < [ + } * | 1 2 3 3 3 4 5 5 5 6 ) ",
"7 { 8 / + + # 9 ] 0 # 0 { $ a + * b c < & d e 5 5 5 5 5 5 5 6 ) ",
"f + : / 8 8 g . : h @ & + + * i c < & * i j k k k k k k k k 6 ) ",
"l . m . n 8 8 ] : / { # a i c < & * i o } p q r r s s s s s t ) ",
"u { 8 v # w 8 8 0 0 ] x ( a & * i i $ + + y z z z z z z r r A ) ",
"B { 8 8 C : 8 8 0 # 9 x ] @ < i < + D E F G H I J K L M M M N ) ",
"O { 8 8 8 / n P # _ ( # @ . a + Q R S T U V W X Y Z `  ...+.@.) ",
"#.# m 8 8 / { + { ] 9 / $.%.F &.*.=.-.;.>.,.'.'.'.'.'.).!.H H ) ",
"~.{.+ / C . 8 g # / ].^./.(.*.*.=._.:.<.[.}.|.|.|.|.|.1.2.3.H ) ",
"~.4.5.+ + C 8 g + + 6.+ 7.8.9.0.U a.b.c.d.e.c.c.c.c.f.g.h.i.H ) ",
"~.4.4.j.k.# l.{ m.n.o.p.q.r.s.+ t.u.v.w.w.x.y.w.w.z.2.A.B.C.H ) ",
"~.4.4.4.D.E.F.. 8 G.H.I.J.J.K.L.M.N.g.O.P.Q.2.R.S.T.U.V.V.2.W.) ",
"X.4.4.D.D.D.Y./ g 6.Z.`. +.+++@+#+$+$+%+&+3.H H T.*+=+=+=+H -+) ",
";+>+D.D.,+,+,+'+)++ !+~+{+]+@+^+$+$+$+$+$+$+/+H (+=+=+=+_+:+-+) ",
"<+[+}+|+,+,+,+,+1+2+3+4+5+6+7+8+9+0+a+b+c+c+c+H d+e+f+f+g+h+h+) ",
"<+i+j+j+k+l+,+,+m+n+o+8+8+p+q+8+8+8+8+8+r+s+t+H u+2.v+w+x+y+n+) ",
"<+j+j+j+z+A+,+m+m+B+o+8+C+8+D+E+8+8+8+8+8+8+F+H w+G+O.H+I+J+K+) ",
"L+j+r l+,+,+m+m+m+M+o+C+C+C+N+O+P+Q+Q+Q+Q+Q+P+R+S+T+U+V+W+X+K+) ",
"L+Y+Z+`+m+m+m+m+m+M+ @C+C+C+C+ @.@+@Q+Q+Q+Q+@@#@$@$@%@&@H *@=@) ",
"-@Y+Y+;@>@`+m+m+m+M+ @C+C+C+C+C+,@q+Q+@+@+Q+@@#@$@$@$@'@H )@!@) ",
"-@Y+;@;@;@~@{@]@^@M+ @C+C+C+C+C+Q+D+/@@+@+@+(@#@_@:@:@#@<@[@}@) ",
"-@;@;@;@~@~@~@|@1@2@3@C+C+C+C+Q+Q+4@O+5@@+@+6@7@_@_@8@}@9@9@}@) ",
"0@;@;@~@~@|@|@|@a@b@c@d@/@+@Q+Q+Q+e@f@.@g@@+h@i@j@k@l@m@n@n@o@) ",
"0@~@~@~@|@|@|@a@a@a@p@q@r@l@s@t@e@e@e@h@s@@+u@i@v@O+w@x@x@x@y@) ",
"z@~@A@A@A@A@A@A@A@A@p@p@[@B@C@}@O+D@5@e@E@F@G@H@I@J@K@K@K@K@L@) ",
"z@~@A@M@M@M@M@M@M@A@p@[@[@9@9@9@N@O@c@P@Q@H R@O+S@K@K@K@T@T@U@V@",
"z@|@A@M@M@M@M@M@M@A@[@[@9@9@9@n@n@n@W@X@Y@Z@H `@K@K@K@T@T@ #.#+#",
"@#|@A@A@A@A@A@A@A@A@[@9@9@9@n@n@n@W@W@W@x@##$#K@K@T@T@T@ # #.#+#",
"@#a@a@a@p@p@p@[@[@[@9@9@9@n@W@W@W@W@x@x@x@K@K@K@K@T@T@T@ # #.#+#",
"%#&#&#*#*#*#<@<@=#=#=#O@O@O@-#-#-#-#;#;#;#>#>#>#>#,#,#,#'#'#)#+#",
"+#+#+#+#+#+#+#+#+#+#+#+#+#+#+#+#+#+#+#+#+#+#+#+#+#+#+#+#+#+#+#) "};
