/* XPM */
static char * dmmShelfDisassembleAsset_xpm[] = {
"32 32 155 2",
"  	c #D57235",
". 	c #C77847",
"+ 	c #F16611",
"@ 	c #000000",
"# 	c #AB836B",
"$ 	c #8F8F8F",
"% 	c #B28B72",
"& 	c #DF722F",
"* 	c #F55D02",
"= 	c #E36C23",
"- 	c #938D8A",
"; 	c #EC5904",
"> 	c #9C3B17",
", 	c #FF6100",
"' 	c #923719",
") 	c #A86F6F",
"! 	c #CD4040",
"~ 	c #938A8A",
"{ 	c #B28062",
"] 	c #D95209",
"^ 	c #692525",
"/ 	c #582525",
"( 	c #C34A0D",
"_ 	c #B46460",
": 	c #F60C0C",
"< 	c #F11313",
"[ 	c #AB6C6C",
"} 	c #BA7F5A",
"| 	c #EB6B1C",
"1 	c #EA5904",
"2 	c #A13B17",
"3 	c #88341B",
"4 	c #89341B",
"5 	c #988383",
"6 	c #D73232",
"7 	c #FF0000",
"8 	c #D13B3B",
"9 	c #948888",
"0 	c #F45D02",
"a 	c #AE4312",
"b 	c #7B301E",
"c 	c #702C20",
"d 	c #EB5904",
"e 	c #6B2822",
"f 	c #929292",
"g 	c #B36262",
"h 	c #F30F0F",
"i 	c #AF6767",
"j 	c #9F7B7B",
"k 	c #993B17",
"l 	c #622525",
"m 	c #E56F26",
"n 	c #999999",
"o 	c #969696",
"p 	c #909090",
"q 	c #968787",
"r 	c #D53636",
"s 	c #D43838",
"t 	c #983309",
"u 	c #E95904",
"v 	c #B04312",
"w 	c #989898",
"x 	c #949494",
"y 	c #F21111",
"z 	c #B06565",
"A 	c #FE0202",
"B 	c #691800",
"C 	c #D45209",
"D 	c #742822",
"E 	c #E15506",
"F 	c #CC7D4C",
"G 	c #979797",
"H 	c #919191",
"I 	c #E71E1E",
"J 	c #B85B5B",
"K 	c #4F0C00",
"L 	c #DF5506",
"M 	c #CD4E0B",
"N 	c #959595",
"O 	c #B55E5E",
"P 	c #E62020",
"Q 	c #360000",
"R 	c #D94E00",
"S 	c #AC7070",
"T 	c #F40D0D",
"U 	c #AD6868",
"V 	c #A59285",
"W 	c #A78383",
"X 	c #D93A3A",
"Y 	c #C05A5A",
"Z 	c #A67373",
"` 	c #A57272",
" .	c #A17777",
"..	c #E55400",
"+.	c #812400",
"@.	c #5B1200",
"#.	c #F35A00",
"$.	c #90341B",
"%.	c #F86409",
"&.	c #7469A0",
"*.	c #614EA2",
"=.	c #663E26",
"-.	c #827872",
";.	c #AC8E7C",
">.	c #BF4800",
",.	c #55379C",
"'.	c #451A9B",
").	c #9F958F",
"!.	c #3F1800",
"~.	c #4C4C4C",
"{.	c #9C887C",
"].	c #BF845F",
"^.	c #DA5209",
"/.	c #4635B0",
"(.	c #000079",
"_.	c #2F1295",
":.	c #1809CA",
"<.	c #4835AF",
"[.	c #131313",
"}.	c #696969",
"|.	c #7C6696",
"1.	c #4835AE",
"2.	c #3815A0",
"3.	c #262626",
"4.	c #858585",
"5.	c #341393",
"6.	c #3B16BC",
"7.	c #341375",
"8.	c #090909",
"9.	c #565656",
"0.	c #727272",
"a.	c #38158A",
"b.	c #1407B0",
"c.	c #1809B0",
"d.	c #00009E",
"e.	c #6F482F",
"f.	c #393939",
"g.	c #472499",
"h.	c #1407D5",
"i.	c #5F5F5F",
"j.	c #2F2F2F",
"k.	c #5633A8",
"l.	c #5236AF",
"m.	c #4A1CB3",
"n.	c #260E66",
"o.	c #1C1C1C",
"p.	c #130766",
"q.	c #37178D",
"r.	c #4D1FB3",
"s.	c #2617DE",
"t.	c #6E51A5",
"u.	c #D87639",
"v.	c #924313",
"w.	c #AF602F",
"x.	c #F26813",
"  . . . . . . . . . . . . . . . . . . . . . . . . . . . . . + @ ",
"# $ $ $ $ $ % & * * % $ $ $ $ $ $ $ $ $ $ $ $ $ $ $ $ $ $ $ = @ ",
"# $ $ - % & ; > , ' , , & % $ $ ) ! ~ $ $ $ $ $ $ $ $ $ $ $ = @ ",
"{ $ % ; ] ^ / / ( ( / / ' , , & _ : < [ $ $ $ $ $ $ $ $ $ $ = @ ",
"} | , 1 1 , 2 / / , 3 ^ , , 4 , $ 5 6 7 8 9 $ $ $ $ $ $ $ $ = @ ",
"% | 0 a b c ; , , d 3 , 4 e 4 , f $ $ g h < i $ $ $ $ j $ $ = @ ",
"% | k 0 b / / / ; , , 4 l / e m n o p $ q r 7 s q $ $ 6 $ $ = @ ",
"% | k ( t / / / / u , v / / / m n n w x $ $ i y h z q A 5 $ = @ ",
"% , B t , t / / / C D , E l l F n n n n G H $ 9 8 7 I 7 J $ = @ ",
"% , B K t , / / / L D D v , M F n n n n n n N $ $ O 7 7 P $ = @ ",
"% , B Q Q t R Q / , / / / / , F n n n n n n n w S T 7 7 7 U = @ ",
"% , B Q Q K t R Q , / / / D | V n n n n n n n W X Y Z ` `  .= @ ",
"% , ..+.Q Q K , @.#./ / / $.%.V n n n &.*.&.n n n n n x $ $ = @ ",
"=.-.;.>...+.Q R , , / $.%.%.V n n - ,.,.'.'.&.&.).n n n G f = @ ",
"!.@ ~.{.].>...+.^.* ^., ].V n n &././.(.(._.'.'.:.<.&.n n n m @ ",
"!.@ @ [.}.;.].| , * , ].n n |.1.'.(.(.(.(.(.(._.2.:.<.&.n ).m @ ",
"!.@ @ @ @ 3.4.].| | ].n n 1.1.5.(.(.(.(.(.(.(.(.(.2.:.6.6.n m @ ",
"!.@ @ @ @ @ [.4.n n n n n 7.7.7.5.5.(.(.(.(.(.(._._.6.6.6.n m @ ",
"!.@ @ @ 8.9.n n n 0.~.0.n a.@ @ @ b.c.c.(.(.(._.6.6.d.d.6.n m @ ",
"!.@ @ ~.$ n n 4.3.@ @ @ 3.a.@ @ @ @ @ @ c.c.6.6.6.d.d.d.6.n m @ ",
"e.f.4.n n $ ~.@ @ @ @ @ @ g.@ @ @ @ @ @ @ b.6.h.d.d.d.d.6.n m @ ",
"% n n n i.8.@ @ @ @ @ @ @ g.@ @ @ @ @ @ @ @ 6.d.d.d.d.d.6.n m @ ",
"% n n $ j.@ @ @ @ @ @ @ @ k.@ @ @ @ @ @ @ @ 6.d.d.d.d.d.6.n m @ ",
"% n n n n 0.[.@ @ @ @ @ @ l.@ @ @ @ @ @ @ @ 6.d.d.d.d.6.m.n m @ ",
"% n n n n n n ~.8.@ @ @ @ l.n.@ @ @ @ @ @ @ 6.d.d.d.6.h.n n m @ ",
"% n n n n n n n 0.o.@ @ @ l.n.@ @ @ @ @ @ @ 6.d.d.h.6.n n n m @ ",
"% n n n n n n n n n 0.o.@ @ p.q.p.@ @ @ @ @ 6.d.6.6.&.n n n m @ ",
"% n n n n n n n n n n n i.[.@ @ p.q.p.@ @ @ 6.r.m.&.n n n n m @ ",
"% n n n n n n n n n n n n n i.[.@ @ p.p.q.n.s.r.&.n n n n n m @ ",
"% n n n n n n n n n n n n n n n i.[.@ 8.&.t.s.&.n n n n n n m @ ",
"u.F F F F F F F F F F F F F F F F F v.w.F F F F F F F F F F x.@ ",
"!.!.!.!.!.!.!.!.!.!.!.!.!.!.!.!.!.!.!.!.!.!.!.!.!.!.!.!.!.!.!.@ "};
