/* XPM */
static char * dmmShelfDetachGlueRegion_xpm[] = {
"32 32 320 2",
"  	c #DC7200",
". 	c #CE8623",
"+ 	c #C77809",
"@ 	c #F67100",
"# 	c #FF7100",
"$ 	c #D07700",
"% 	c #C07900",
"& 	c #ECA65A",
"* 	c #E39A48",
"= 	c #F77300",
"- 	c #D46A00",
"; 	c #F17512",
"> 	c #C88149",
", 	c #000000",
"' 	c #EAAC4A",
") 	c #E7D537",
"! 	c #E8C93A",
"~ 	c #CD8520",
"{ 	c #EE7200",
"] 	c #E07807",
"^ 	c #DCAA3E",
"/ 	c #D3B032",
"( 	c #D78A27",
"_ 	c #F77200",
": 	c #C06700",
"< 	c #E7AA35",
"[ 	c #E5D125",
"} 	c #E47924",
"| 	c #929292",
"1 	c #E37924",
"2 	c #E9AE47",
"3 	c #E7D435",
"4 	c #EAA852",
"5 	c #F46F00",
"6 	c #B56600",
"7 	c #E6B130",
"8 	c #E5D127",
"9 	c #939393",
"0 	c #E9B247",
"a 	c #E9B349",
"b 	c #D56A00",
"c 	c #BB865B",
"d 	c #EA771B",
"e 	c #CF7F40",
"f 	c #A08E80",
"g 	c #E9B145",
"h 	c #E47925",
"i 	c #949494",
"j 	c #B58965",
"k 	c #DA5A05",
"l 	c #9C330F",
"m 	c #C0490A",
"n 	c #F66B01",
"o 	c #D67D37",
"p 	c #AE8A6E",
"q 	c #E9B843",
"r 	c #DF6C00",
"s 	c #AE8B6F",
"t 	c #E36004",
"u 	c #912D11",
"v 	c #6C1717",
"w 	c #6F1717",
"x 	c #711717",
"y 	c #791C15",
"z 	c #A6380E",
"A 	c #ED6502",
"B 	c #BC865C",
"C 	c #E9AD45",
"D 	c #EC6502",
"E 	c #A3380E",
"F 	c #6D1717",
"G 	c #9D330F",
"H 	c #DB5A05",
"I 	c #C9824A",
"J 	c #9A918A",
"K 	c #A96200",
"L 	c #F06601",
"M 	c #B6440B",
"N 	c #C94F08",
"O 	c #B8440B",
"P 	c #F87309",
"Q 	c #CC862E",
"R 	c #E96D00",
"S 	c #E76003",
"T 	c #B6440C",
"U 	c #952D11",
"V 	c #D25407",
"W 	c #C97100",
"X 	c #E7C437",
"Y 	c #E57200",
"Z 	c #D85800",
"` 	c #8A2600",
" .	c #871400",
"..	c #CD3F00",
"+.	c #C84F09",
"@.	c #7F2315",
"#.	c #6D1818",
"$.	c #701818",
"%.	c #721818",
"&.	c #721717",
"*.	c #7A1C15",
"=.	c #E26004",
"-.	c #C64F08",
";.	c #E57A25",
">.	c #EAA84A",
",.	c #CB7200",
"'.	c #ED6100",
").	c #922800",
"!.	c #630D00",
"~.	c #790600",
"{.	c #8D0000",
"].	c #AC1900",
"^.	c #E25400",
"/.	c #912E12",
"(.	c #952E12",
"_.	c #B3440C",
":.	c #671818",
"<.	c #C64F09",
"[.	c #B18D71",
"}.	c #EB781C",
"|.	c #DC7100",
"1.	c #E9B341",
"2.	c #D37100",
"3.	c #EC6500",
"4.	c #BD4700",
"5.	c #9E2000",
"6.	c #741100",
"7.	c #9A0500",
"8.	c #A91C00",
"9.	c #DA5A06",
"0.	c #9D3310",
"a.	c #7A1D16",
"b.	c #C14A0A",
"c.	c #EC6503",
"d.	c #8D2E12",
"e.	c #D95A06",
"f.	c #B18E72",
"g.	c #989898",
"h.	c #C54400",
"i.	c #681200",
"j.	c #691200",
"k.	c #931A00",
"l.	c #791100",
"m.	c #7E0800",
"n.	c #970400",
"o.	c #950300",
"p.	c #9B0E00",
"q.	c #D44600",
"r.	c #ED6503",
"s.	c #A6390F",
"t.	c #E46004",
"u.	c #CF5507",
"v.	c #711D16",
"w.	c #E47A25",
"x.	c #D25005",
"y.	c #D14700",
"z.	c #D34F00",
"A.	c #B44100",
"B.	c #DA5500",
"C.	c #BD4100",
"D.	c #B13F00",
"E.	c #BD4200",
"F.	c #DD4C00",
"G.	c #CB3B00",
"H.	c #C63800",
"I.	c #F06200",
"J.	c #F86900",
"K.	c #842813",
"L.	c #B28F72",
"M.	c #D88039",
"N.	c #B7440C",
"O.	c #B13F0C",
"P.	c #B83101",
"Q.	c #BC3200",
"R.	c #B63000",
"S.	c #BB3200",
"T.	c #A22F0A",
"U.	c #99290D",
"V.	c #AA1C00",
"W.	c #B12300",
"X.	c #AB1C00",
"Y.	c #A41500",
"Z.	c #960700",
"`.	c #DC4D00",
" +	c #BD4A0A",
".+	c #A0390F",
"++	c #DE7C2F",
"@+	c #CC854C",
"#+	c #DB5A06",
"$+	c #812315",
"%+	c #6F1818",
"&+	c #721816",
"*+	c #8D1A0A",
"=+	c #991B03",
"-+	c #771712",
";+	c #771212",
">+	c #8E0000",
",+	c #8F0000",
"'+	c #900000",
")+	c #B22300",
"!+	c #C13800",
"~+	c #691818",
"{+	c #973310",
"]+	c #F56B01",
"^+	c #BC4A0A",
"/+	c #CB844C",
"(+	c #E57A26",
"_+	c #B88C69",
":+	c #BE4A0A",
"<+	c #AE3E0D",
"[+	c #D54600",
"}+	c #E75B00",
"|+	c #9A1500",
"1+	c #830000",
"2+	c #6A1818",
"3+	c #731D16",
"4+	c #D05507",
"5+	c #B38F73",
"6+	c #862813",
"7+	c #761313",
"8+	c #F16200",
"9+	c #E05400",
"0+	c #8A0700",
"a+	c #D04600",
"b+	c #B4440C",
"c+	c #E57B26",
"d+	c #A09790",
"e+	c #741D16",
"f+	c #6B1818",
"g+	c #B5440C",
"h+	c #711818",
"i+	c #741818",
"j+	c #7C1010",
"k+	c #B92A00",
"l+	c #8F2E12",
"m+	c #852813",
"n+	c #BF8A5F",
"o+	c #999999",
"p+	c #B49074",
"q+	c #9B9B9B",
"r+	c #A2390F",
"s+	c #CA4F09",
"t+	c #7D1D16",
"u+	c #862315",
"v+	c #D35507",
"w+	c #901E09",
"x+	c #B98D69",
"y+	c #9A9A9A",
"z+	c #EC781D",
"A+	c #902E12",
"B+	c #AC3E0D",
"C+	c #C04A0A",
"D+	c #6E1313",
"E+	c #7D0404",
"F+	c #C74F09",
"G+	c #A79587",
"H+	c #E67B26",
"I+	c #D9803A",
"J+	c #993310",
"K+	c #760C0C",
"L+	c #A19891",
"M+	c #B49175",
"N+	c #9C9C9C",
"O+	c #C78957",
"P+	c #6C1919",
"Q+	c #C95009",
"R+	c #B8450C",
"S+	c #942F12",
"T+	c #B5450C",
"U+	c #7D2415",
"V+	c #AB3E0D",
"W+	c #9D2F0C",
"X+	c #870A03",
"Y+	c #DA5B06",
"Z+	c #6E1919",
"`+	c #781E17",
" @	c #822415",
".@	c #A23A0F",
"+@	c #E67B27",
"@@	c #B59275",
"#@	c #9D9D9D",
"$@	c #A39A93",
"%@	c #EC791D",
"&@	c #791E17",
"*@	c #701919",
"=@	c #DB5B06",
"-@	c #711919",
";@	c #952F12",
">@	c #6B1919",
",@	c #AE937E",
"'@	c #B69276",
")@	c #9E9E9E",
"!@	c #FFFFFF",
"~@	c #C75009",
"{@	c #A99789",
"]@	c #E67C27",
"^@	c #FF0000",
"/@	c #8C2914",
"(@	c #9E3411",
"_@	c #741E17",
":@	c #A49B94",
"<@	c #B79377",
"[@	c #9F9F9F",
"}@	c #DA813B",
"|@	c #ED6603",
"1@	c #CA5009",
"2@	c #862914",
"3@	c #C38D63",
"4@	c #E77C27",
"5@	c #B79478",
"6@	c #A0A0A0",
"7@	c #CF8850",
"8@	c #EF6E0B",
"9@	c #BD916E",
"0@	c #E77C28",
"a@	c #DB823C",
"b@	c #E17F32",
"c@	c #F37614",
"d@	c #3F1C00",
"e@	c #6F3100",
"  . + @ # $ % & & & * = # - ; > > > > > > > > > > > > > > > ; , ",
"' ) ) ! ~ { ] ^ / ( _ : < [ } | | | | | | | | | | | | | | | 1 , ",
"2 3 ) ) ) ) 4 { 5 6 7 8 [ [ } 9 9 9 9 9 9 9 | | | | | | | | 1 , ",
"0 3 3 ) ) ) ) a b 8 8 [ [ [ } 9 9 9 9 c d e f 9 9 9 9 9 9 | 1 , ",
"g 3 3 ) ) ) ) a b 8 [ [ [ [ h i i j ; k l m n o p 9 9 9 9 9 } , ",
"g 3 3 3 ) ) ) q r 8 [ [ [ [ h s h t u v w x y z A d B i 9 9 } , ",
"C 3 3 3 3 ) ) ) # [ [ [ [ < # D E F F v w x x x x G H ; I J h , ",
"C 3 3 3 3 3 ) ) # [ [ [ K # L M M M M M N O O O O O O N # # P , ",
"C 3 3 3 3 3 ) ) # [ Q R # # S T T T M M z U U U U U U U V # # , ",
"W X 3 3 3 3 3 ) Y 5 Z `  ...# +.@.#.#.#.$.%.%.%.%.&.*.V =.-.# , ",
";.@ >.3 3 3 2 ,.'.).!.!.~.{.].^.# +./.#.$.%.%.%.%.(.n _.:.<.# , ",
"[.[.}.|.1.2.3.4.5.6.!.!.~.{.7.{.8.^.# 9.0.a.%.a.b.c.d.:.:.e.# , ",
"f.g.g.}.# h.i.j.k.l.!.!.m.n.o.{.{.{.p.q.# r.s.t.u.v.:.:.:.# w., ",
"f.f.}.# x.y.z.A.B.C.D.E.F.G.H...^.^.I.^.J.# # e.v.:.:.:.K.}.;., ",
"L.M.# r.N.N.O.P.Q.R.S.T.U.V.V.W.V.X.Y.Z.`.# #  +c.d.:.:..+++;., ",
"L.@+# # #+$+%+&+*+=+-+%+;+>+>+>+,+'+)+J.!+!+e.~+{+]+^+:._./+(+, ",
"L._+]+c.:+n <+%+%+%+%+%+;+>+>+,+'+[+}+|+1+!+e.~+2+3+4+=.c.f.(+, ",
"5+5+9.4+:+6+t #+$+%+%+%+7+,+'+Z.8+9+0+1+1+a+4+~+~+~+2+b+# L.c+, ",
"5+d+# e+]+6+f+g+n <+%+h+i+j+k+J.!+1+1+1+1+9+l+~+~+~+m+c.n+o+c+, ",
"p+q+# 2+r+t e+f+6+t s+t+u+v+t w+1+1+1+1+1+9+l+~+~+b+P x+y+y+c+, ",
"p+q+z+A+2+9.B+f+#.$.C+n n 4+2+2+D+E+1+1+1+}+3+~+F+z+G+q+q+q+H+, ",
"p+q+I+r+2+6+]+$+$.$.$.0.t t c.F+J+2+K+1+1+9+3+4+H+L+q+q+q+q+H+, ",
"M+N+O+:+2+P+Q+R+$.$.$.S+T+2+U+V+t ]+F+W+X+}+t I+q+q+q+q+q+q+H+, ",
"M+N+M+Y+Z+%+`+n  @$.$.S+T+2+2+2+2+U+.@4+# P O+N+N+N+N+N+N+N++@, ",
"@@#@$@%@Q+&@*@R+=@-@-@;@T+>@>@>@>@>@>@.@P ,@N+N+N+N+N+N+N+N++@, ",
"'@)@!@!@!@!@!@!@!@!@-@;@T+>@>@>@>@>@~@%@{@#@#@#@#@#@#@#@#@#@]@, ",
"'@)@!@^@^@^@^@^@^@!@/@(@~@>@>@>@_@4+]@:@)@)@)@)@)@)@)@)@)@)@]@, ",
"<@[@!@^@^@^@^@^@^@!@t.;@Y+>@>@U+t }@)@)@)@)@)@)@)@)@)@)@)@)@]@, ",
"<@[@!@!@!@!@!@!@!@!@|@1@Y+>@2@]+3@[@[@[@[@[@[@[@[@[@[@[@[@[@4@, ",
"5@6@6@6@6@6@6@6@6@7@# # Y+.@8@9@6@6@6@6@6@6@6@6@6@6@6@6@6@6@0@, ",
"a@7@7@7@7@7@7@7@7@7@0@# ]+# b@7@7@7@7@7@7@7@7@7@7@7@7@7@7@7@c@, ",
"d@d@d@d@d@d@d@d@d@d@d@d@e@d@d@d@d@d@d@d@d@d@d@d@d@d@d@d@d@d@d@, "};
