/* XPM */
static char * dmmShelfPolyPlatonic_xpm[] = {
"32 32 201 2",
"  	c #D57235",
". 	c #C77847",
"+ 	c #F16611",
"@ 	c #000000",
"# 	c #AB836B",
"$ 	c #8F8F8F",
"% 	c #E36C23",
"& 	c #C07A50",
"* 	c #9D897D",
"= 	c #AC856D",
"- 	c #919191",
"; 	c #B97D59",
"> 	c #EA5904",
", 	c #F86308",
"' 	c #CE753E",
") 	c #B28B72",
"! 	c #999999",
"~ 	c #AC8E7C",
"{ 	c #E56F26",
"] 	c #FF6100",
"^ 	c #652721",
"/ 	c #84321A",
"( 	c #F45D02",
"_ 	c #B28062",
": 	c #A59285",
"< 	c #D87639",
"[ 	c #E05506",
"} 	c #7B301E",
"| 	c #5D2525",
"1 	c #5C2424",
"2 	c #D65108",
"3 	c #DC6F2C",
"4 	c #9F958F",
"5 	c #CC7D4C",
"6 	c #AE4312",
"7 	c #85341B",
"8 	c #712C20",
"9 	c #968C86",
"0 	c #CC4E0B",
"a 	c #C24A0D",
"b 	c #F55D02",
"c 	c #C5490D",
"d 	c #682822",
"e 	c #993B17",
"f 	c #672822",
"g 	c #B84610",
"h 	c #B34312",
"i 	c #D95209",
"j 	c #CF4E0B",
"k 	c #D85108",
"l 	c #6F2720",
"m 	c #BC450F",
"n 	c #A48674",
"o 	c #BF845F",
"p 	c #CD4E0B",
"q 	c #692822",
"r 	c #A33F14",
"s 	c #C64A0D",
"t 	c #682525",
"u 	c #E25506",
"v 	c #8D341B",
"w 	c #EC5904",
"x 	c #973719",
"y 	c #662323",
"z 	c #792A1E",
"A 	c #DF722F",
"B 	c #A63F14",
"C 	c #E15506",
"D 	c #D65209",
"E 	c #5F2525",
"F 	c #C74A0D",
"G 	c #712822",
"H 	c #A03B17",
"I 	c #672424",
"J 	c #EA691A",
"K 	c #EB5904",
"L 	c #8B341B",
"M 	c #642525",
"N 	c #662525",
"O 	c #B24312",
"P 	c #E45506",
"Q 	c #7B2822",
"R 	c #8D321A",
"S 	c #D75209",
"T 	c #9E3B17",
"U 	c #9F3B17",
"V 	c #F65D02",
"W 	c #732525",
"X 	c #6D2525",
"Y 	c #84301E",
"Z 	c #8F331B",
"` 	c #A88169",
" .	c #565656",
"..	c #4C4C4C",
"+.	c #2F2F2F",
"@.	c #262626",
"#.	c #B24F13",
"$.	c #D85209",
"%.	c #8D301E",
"&.	c #8F341B",
"*.	c #90341B",
"=.	c #3F1800",
"-.	c #7F3000",
";.	c #CC4800",
">.	c #5B1200",
",.	c #390000",
"'.	c #3D0404",
").	c #4F1414",
"!.	c #5D2222",
"~.	c #B94312",
"{.	c #94341B",
"].	c #7A2C20",
"^.	c #B54312",
"/.	c #A73600",
"(.	c #D94E00",
"_.	c #5E1200",
":.	c #3A0000",
"<.	c #5C1509",
"[.	c #E95702",
"}.	c #842C20",
"|.	c #B03F14",
"1.	c #B64312",
"2.	c #9A3000",
"3.	c #360000",
"4.	c #F25A00",
"5.	c #832400",
"6.	c #9C3000",
"7.	c #CE4906",
"8.	c #691B1B",
"9.	c #C14200",
"0.	c #450600",
"a.	c #E65400",
"b.	c #841E00",
"c.	c #5B0D0D",
"d.	c #B64010",
"e.	c #6B2525",
"f.	c #BE4610",
"g.	c #D14E0B",
"h.	c #B88769",
"i.	c #370000",
"j.	c #BC3C00",
"k.	c #4D0000",
"l.	c #C74200",
"m.	c #962F0B",
"n.	c #7E2C20",
"o.	c #6A1800",
"p.	c #A83600",
"q.	c #460600",
"r.	c #6E1200",
"s.	c #D24800",
"t.	c #741800",
"u.	c #4A0404",
"v.	c #611B1B",
"w.	c #6C2525",
"x.	c #380000",
"y.	c #B43C00",
"z.	c #CD4800",
"A.	c #C54200",
"B.	c #D04800",
"C.	c #460000",
"D.	c #540D0D",
"E.	c #993719",
"F.	c #E55400",
"G.	c #812400",
"H.	c #681800",
"I.	c #5C1200",
"J.	c #510600",
"K.	c #791C04",
"L.	c #DA5209",
"M.	c #F86409",
"N.	c #9F3C00",
"O.	c #C04200",
"P.	c #B33C00",
"Q.	c #B23C00",
"R.	c #DC4E00",
"S.	c #A83E0D",
"T.	c #8E3719",
"U.	c #C14A0D",
"V.	c #8C644C",
"W.	c #131313",
"X.	c #5F2400",
"Y.	c #741E00",
"Z.	c #420600",
"`.	c #8D2A00",
" +	c #A53600",
".+	c #621E12",
"++	c #7A301E",
"@+	c #C58056",
"#+	c #090909",
"$+	c #2F1200",
"%+	c #DF5400",
"&+	c #0F0600",
"*+	c #BF4800",
"=+	c #F26813",
"-+	c #8F3600",
";+	c #4F1E00",
">+	c #CF4E00",
",+	c #EB6B1C",
"'+	c #393939",
")+	c #727272",
"!+	c #858585",
"  . . . . . . . . . . . . . . . . . . . . . . . . . . . . . + @ ",
"# $ $ $ $ $ $ $ $ $ $ $ $ $ $ $ $ $ $ $ $ $ $ $ $ $ $ $ $ $ % @ ",
"# $ $ $ $ $ $ $ $ $ $ $ $ $ $ $ $ $ $ $ $ $ $ $ $ $ $ $ $ $ % @ ",
"# $ $ $ $ $ $ $ $ $ $ $ $ $ $ $ & * $ $ $ $ $ $ $ $ $ $ $ $ % @ ",
"= - - - - - - - - - - - - - ; + > , ' * $ $ $ $ $ $ $ $ $ $ % @ ",
") ! ! ! ! ! ! ! ! ! ! ! ~ { ] > ^ / ( ]   _ $ $ $ $ $ $ $ $ % @ ",
") ! ! ! ! ! ! ! ! ! : < ( [ ( } | 1 ^ 2 ] ] 3 * $ $ $ $ $ $ % @ ",
") ! ! ! ! ! ! ! 4 5 ( 6 7 ( } | | | 8 2 ] ] ] , . 9 $ $ $ $ % @ ",
") ! ! ! ! ! ! ! { 0 8 } > } | | 8 a ] ] b ] c b ] + _ $ $ $ % @ ",
") ! ! ! ! ! ! 4 ] d } ( e | f 6 ( g > h i j k l m ] ] % n $ % @ ",
") ! ! ! ! ! ! o p q ( e | r ( a f a s t u v w x y z c ] ] # % @ ",
") ! ! ! ! ! ! A B C e 7 > D } E a F t t ] G H i t I y z u J % @ ",
") ! ! ! ! ! 4 ] K K [ K L M N O P Q t t ] t t i H t t I R % % @ ",
") ! ! ! ! ! o ] ] S T N N N U V Q W X Y w t t v w G t t Z % % @ ",
"`  .....+.@.#.] ] K u K $.$.] %.W W W &.i t t t j h t t *.{ { @ ",
"=.@ @ @ @ @ -.] ;.>.,.'.).!.p ~.W W W {.i t t t ].b G t ^.5 { @ ",
"=.@ @ @ @ @ -./.;.(._.,.,.:.<.[.}.W W |.s t t t t h j t 1.5 { @ ",
"=.@ @ @ @ @ -.2.3.2.4.5.,.,.:.6.7.8.W ~.1.t t t t G b Y 1.5 { @ ",
"=.@ @ @ @ @ -./.3.3._.(.9.0.:.:.a.b.c.d.1.e.e.e.e.e.f.F g.h.{ @ ",
"=.@ @ @ @ @ =.;.3.i.,.,.6.4.5.:.6.j.k.l.m.e.e.e.e.e.n.w w ) { @ ",
"=.@ @ @ @ @ =.;.3.i.,.,.,.o.a.p.q.4.r.s.t.u.v.e.w.w.w.^.] ) { @ ",
"=.@ @ @ @ @ =.;.3.3.3.i.x.,.0.y.a.z.A.B.t.C.D.w.w.w.E.f.] ~ { @ ",
"=.@ @ @ @ @ =.F.2.2.G.H.H.I.x.,.5.4.] ] t.J.K.^.L.] ( ] M.! { @ ",
"=.@ @ @ @ @ @ N.] O.P.;.;.F.] ] (.Q.] ] R.] ;.S.T.U.( U.A ! { @ ",
"V.W.@ @ @ @ @ @ X.4.Y.3.3.3.Z.3.`. +] ] 2.Z.3..+> 0 ++D @+! { @ ",
") $ ..#+@ @ @ @ @ $+%+2.3.3.3.3.Z.(.P.;.H.3.Y.4.U.U.M.5 ! ! { @ ",
") ! ! $ ..#+@ @ @ @ &+*+;.Z.3.>.F.p.i.;.H.2.] 4.=+5 4 ! ! ! { @ ",
") ! ! ! ! $ ..#+@ @ @ @ -+F.G.4.5.,.,.z.F.] { o ! ! ! ! ! ! { @ ",
") ! ! ! ! ! ! $ ..#+@ @ @ ;+>+*+*+{ { ,+< ) ! ! ! ! ! ! ! ! { @ ",
") ! ! ! ! ! ! ! ! $ ..@.'+..)+!+! ! ! ! ! ! ! ! ! ! ! ! ! ! { @ ",
"< 5 5 5 5 5 5 5 5 5 5 5 5 5 5 5 5 5 5 5 5 5 5 5 5 5 5 5 5 5 =+@ ",
"=.=.=.=.=.=.=.=.=.=.=.=.=.=.=.=.=.=.=.=.=.=.=.=.=.=.=.=.=.=.=.@ "};
