/* XPM */
static char * dmmShelfPolyPyramid_xpm[] = {
"32 32 182 2",
"  	c #D57235",
". 	c #C77847",
"+ 	c #F16611",
"@ 	c #000000",
"# 	c #AB836B",
"$ 	c #8F8F8F",
"% 	c #C07A50",
"& 	c #B28062",
"* 	c #E36C23",
"= 	c #A48674",
"- 	c #FF6100",
"; 	c #968C86",
"> 	c #E05506",
", 	c #DC6F2C",
"' 	c #AC856D",
") 	c #919191",
"! 	c #D57236",
"~ 	c #C2490D",
"{ 	c #8C3618",
"] 	c #E15506",
"^ 	c #EB5904",
"/ 	c #B28B72",
"( 	c #999999",
"_ 	c #AC8E7C",
": 	c #F55D02",
"< 	c #722B1F",
"[ 	c #81321A",
"} 	c #D85108",
"| 	c #8A321A",
"1 	c #9F958F",
"2 	c #EB6B1C",
"3 	c #913719",
"4 	c #5E2525",
"5 	c #642822",
"6 	c #642323",
"7 	c #BB450F",
"8 	c #CE753E",
"9 	c #D27942",
"0 	c #C34A0D",
"a 	c #602525",
"b 	c #5D2525",
"c 	c #5B2525",
"d 	c #6D2620",
"e 	c #BF845F",
"f 	c #692822",
"g 	c #5C2525",
"h 	c #EA5904",
"i 	c #8C341B",
"j 	c #652424",
"k 	c #8B331A",
"l 	c #F86409",
"m 	c #D75209",
"n 	c #AD4312",
"o 	c #84341B",
"p 	c #D65209",
"q 	c #662525",
"r 	c #BB4610",
"s 	c #DF722F",
"t 	c #B94610",
"u 	c #CD4E0B",
"v 	c #B74610",
"w 	c #E25506",
"x 	c #C54A0D",
"y 	c #B24312",
"z 	c #953719",
"A 	c #B88769",
"B 	c #8F3719",
"C 	c #9F3B17",
"D 	c #D85209",
"E 	c #A98C79",
"F 	c #909090",
"G 	c #727272",
"H 	c #7D301E",
"I 	c #652822",
"J 	c #983B17",
"K 	c #6F2822",
"L 	c #949494",
"M 	c #1C1C1C",
"N 	c #393939",
"O 	c #565656",
"P 	c #AF4312",
"Q 	c #5F2525",
"R 	c #CB4E0B",
"S 	c #BC4610",
"T 	c #CC7D4C",
"U 	c #979797",
"V 	c #929292",
"W 	c #7C7C7C",
"X 	c #6F2A00",
"Y 	c #DA4E00",
"Z 	c #3A0000",
"` 	c #430909",
" .	c #4A1010",
"..	c #501717",
"+.	c #571E1E",
"@.	c #5A2525",
"#.	c #A23F14",
"$.	c #E56F26",
"%.	c #0F0600",
"&.	c #9C3000",
"*.	c #520C00",
"=.	c #390000",
"-.	c #3B0000",
";.	c #400404",
">.	c #5E170B",
",.	c #F25A00",
"'.	c #79301E",
").	c #82301E",
"!.	c #F26813",
"~.	c #090909",
"{.	c #AF4200",
"].	c #CD4800",
"^.	c #D94E00",
"/.	c #A93600",
"(.	c #852400",
"_.	c #540C00",
":.	c #3C0000",
"<.	c #6C1800",
"[.	c #F45D02",
"}.	c #B34312",
"|.	c #652525",
"1.	c #262626",
"2.	c #4F1E00",
"3.	c #E65400",
"4.	c #C14200",
"5.	c #832400",
"6.	c #470600",
"7.	c #912A00",
"8.	c #C24200",
"9.	c #CE4800",
"0.	c #C64200",
"a.	c #4B0202",
"b.	c #520B0B",
"c.	c #5B1717",
"d.	c #8A3119",
"e.	c #6E2822",
"f.	c #2F2F2F",
"g.	c #EF5A00",
"h.	c #6A1800",
"i.	c #3D0000",
"j.	c #550C00",
"k.	c #6D1800",
"l.	c #D14800",
"m.	c #540600",
"n.	c #490000",
"o.	c #591414",
"p.	c #622020",
"q.	c #8B341B",
"r.	c #4C4C4C",
"s.	c #A83600",
"t.	c #611200",
"u.	c #AA3600",
"v.	c #F35A00",
"w.	c #DC4E00",
"x.	c #5F0C00",
"y.	c #4E0606",
"z.	c #CA4704",
"A.	c #460600",
"B.	c #490600",
"C.	c #922A00",
"D.	c #AF3600",
"E.	c #A43000",
"F.	c #6B1200",
"G.	c #761800",
"H.	c #8D2400",
"I.	c #827872",
"J.	c #601200",
"K.	c #621200",
"L.	c #3E0000",
"M.	c #6E1800",
"N.	c #C58056",
"O.	c #480600",
"P.	c #D87639",
"Q.	c #B53C00",
"R.	c #4A0600",
"S.	c #BA3C00",
"T.	c #9E3000",
"U.	c #560C00",
"V.	c #A59285",
"W.	c #B63C00",
"X.	c #7A1E00",
"Y.	c #3F1800",
"  . . . . . . . . . . . . . . . . . . . . . . . . . . . . . + @ ",
"# $ $ $ $ $ $ $ $ $ $ $ $ $ $ $ $ % & $ $ $ $ $ $ $ $ $ $ $ * @ ",
"# $ $ $ $ $ $ $ $ $ $ $ $ $ $ $ = - + ; $ $ $ $ $ $ $ $ $ $ * @ ",
"# $ $ $ $ $ $ $ $ $ $ $ $ $ $ ; + > - , $ $ $ $ $ $ $ $ $ $ * @ ",
"' ) ) ) ) ) ) ) ) ) ) ) ) ) ) ! ~ { ] ^ & $ $ $ $ $ $ $ $ $ * @ ",
"/ ( ( ( ( ( ( ( ( ( ( ( ( ( _ : < [ } | + ; $ $ $ $ $ $ $ $ * @ ",
"/ ( ( ( ( ( ( ( ( ( ( ( ( 1 2 3 4 5 - 6 7 8 $ $ $ $ $ $ $ $ * @ ",
"/ ( ( ( ( ( ( ( ( ( ( ( ( 9 0 a b c - 6 d ^ # $ $ $ $ $ $ $ * @ ",
"/ ( ( ( ( ( ( ( ( ( ( ( e : f a g c h i j k + ; $ $ $ $ $ $ * @ ",
"/ ( ( ( ( ( ( ( ( ( ( 1 l - - m n o p i q q r 8 $ $ $ $ $ $ * @ ",
"/ ( ( ( ( ( ( ( ( ( ( s t u 0 3 v > - w x y z - ' $ $ $ $ $ * @ ",
"/ ( ( ( ( ( ( ( ( ( A ] a f ^ B c c n x C y D ^ l E F $ $ $ * @ ",
"/ ( $ G G $ ( ( ( 1 l H a a 3 h I c J x q q K w : 2 ( L $ $ * @ ",
"/ ( G @ @ @ M N O s P a a Q Q v R c o w q q S x D ^ T ( U V * @ ",
"/ ( W @ @ @ @ @ X Y Z `  ...+.@.> #.I - q z ^ K S r : _ ( ( $.@ ",
"/ ( ( @ @ @ @ %.- &.*.Z =.=.-.;.>.,.'.- ).: ).q y y z !.1 ( $.@ ",
"/ ( ( ~.@ @ @ {.- ].- ,.^./.(._.:.<.[.- w }.q q z D |.x 9 ( $.@ ",
"/ ( ( 1.@ @ 2.3.4.5.=.6.<.7.8.3.,.9.3.- 0.a.b.c.d.w |.e.^ / $.@ ",
"/ ( ( f.@ %.g.h.h.,.:.:.i.i.i.i.j.k.Y - l.m.n.n.m.- o.p.q.!.2 @ ",
"/ ( ( r.@ {.s.=.-.3.t.i.i.i.i.i.i.(.Y u.v.w.x.n.n.- m.n.y.z.- @ ",
"/ ( ( O 2.3.A.-.:./.u.i.i.i.i.i.k.3.B.C.D.E.w.F.n.w.G.n.H.l !.@ ",
"/ ( ( I.g.<.:.:.:.J.3.i.i.i.i.(.3.K.L.M.D.n.H.v.F.l.G.F.l _ $.@ ",
"/ ( ( 9 3.<.:.:.:.:.3.t.i.i.(.,.K.L.L.K.v.n.n.H.v.l.0.v./ ( $.@ ",
"/ ( ( 1 N.!.Y (.O.:./.u.i.(.,.K.L.L.L.L.- n.n.n.H.v.- e ( ( $.@ ",
"/ ( ( ( ( ( / P.,.Q.(.3.(.,.K.L.L.L.L.L.- n.n.n.n.w.N.( ( ( $.@ ",
"/ ( ( ( ( ( ( ( 1 N.!.- ,.R.L.L.L.L.L.L.- m.n.n.S.P.( ( ( ( $.@ ",
"/ ( ( ( ( ( ( ( ( ( ( / s ,.T.U.L.L.L.L.9.G.n.S.$.( ( ( ( ( $.@ ",
"/ ( ( ( ( ( ( ( ( ( ( ( ( V.P.l W.K.L.L.9.G.S.2 1 ( ( ( ( ( $.@ ",
"/ ( ( ( ( ( ( ( ( ( ( ( ( ( ( 1 T !.9.X.9.0.2 1 ( ( ( ( ( ( $.@ ",
"/ ( ( ( ( ( ( ( ( ( ( ( ( ( ( ( ( ( e $.- !.1 ( ( ( ( ( ( ( $.@ ",
"P.T T T T T T T T T T T T T T T T T T T s s T T T T T T T T !.@ ",
"Y.Y.Y.Y.Y.Y.Y.Y.Y.Y.Y.Y.Y.Y.Y.Y.Y.Y.Y.Y.Y.Y.Y.Y.Y.Y.Y.Y.Y.Y.Y.@ "};
