/* XPM */
static char * dmmShelfNewDrivenRegion_xpm[] = {
"32 32 372 2",
"  	c #BE7238",
". 	c #B67A4B",
"+ 	c #B77A4C",
"@ 	c #B77B4C",
"# 	c #B87B4D",
"$ 	c #B87C4D",
"% 	c #B97C4E",
"& 	c #B97D4E",
"* 	c #BA7D4F",
"= 	c #CF6513",
"- 	c #000000",
"; 	c #A68871",
"> 	c #979797",
", 	c #FFFFFF",
"' 	c #989898",
") 	c #999999",
"! 	c #A09185",
"~ 	c #A19286",
"{ 	c #9A9A9A",
"] 	c #9B9B9B",
"^ 	c #9C9C9C",
"/ 	c #9D9D9D",
"( 	c #9E9E9E",
"_ 	c #C86D27",
": 	c #A78972",
"< 	c #FF0000",
"[ 	c #B18360",
"} 	c #BD5702",
"| 	c #B05503",
"1 	c #D65D00",
"2 	c #CB691D",
"3 	c #C76D27",
"4 	c #C1753B",
"5 	c #A98A73",
"6 	c #A7917F",
"7 	c #C65E0A",
"8 	c #353C0D",
"9 	c #985005",
"0 	c #A13500",
"a 	c #6A0D00",
"b 	c #6C0D00",
"c 	c #750F00",
"d 	c #7A1000",
"e 	c #922400",
"f 	c #A62902",
"g 	c #8F2A10",
"h 	c #8B2A12",
"i 	c #9D360E",
"j 	c #A43B0C",
"k 	c #BD4C06",
"l 	c #AA8C75",
"m 	c #A19994",
"n 	c #4D420B",
"o 	c #5A440A",
"p 	c #C85300",
"q 	c #7D1400",
"r 	c #7A1400",
"s 	c #6E0E00",
"t 	c #771000",
"u 	c #971904",
"v 	c #721919",
"w 	c #AC8D76",
"x 	c #C86D28",
"y 	c #734A08",
"z 	c #1D390F",
"A 	c #BD5802",
"B 	c #872100",
"C 	c #831900",
"D 	c #972500",
"E 	c #A62A00",
"F 	c #AB2B00",
"G 	c #A32700",
"H 	c #9B2300",
"I 	c #A62500",
"J 	c #9D1D05",
"K 	c #AD8F78",
"L 	c #985105",
"M 	c #113711",
"N 	c #A45304",
"O 	c #9A3000",
"P 	c #6D0D00",
"Q 	c #601200",
"R 	c #5B1400",
"S 	c #641700",
"T 	c #6E1A00",
"U 	c #AC2B00",
"V 	c #A01E05",
"W 	c #721A1A",
"X 	c #AF9079",
"Y 	c #A2A2A2",
"Z 	c #A3A3A3",
"` 	c #B9845C",
" .	c #B15503",
"..	c #4E420B",
"+.	c #C24E00",
"@.	c #B04100",
"#.	c #A84100",
"$.	c #983800",
"%.	c #792600",
"&.	c #8D2C00",
"*.	c #AA2A00",
"=.	c #A52605",
"-.	c #B0927B",
";.	c #A4A4A4",
">.	c #A5A5A5",
",.	c #C95A01",
"'.	c #42400C",
").	c #993500",
"!.	c #691800",
"~.	c #762C00",
"{.	c #903A00",
"].	c #983E00",
"^.	c #B34B00",
"/.	c #CA5400",
"(.	c #C95100",
"_.	c #D15800",
":.	c #CF5801",
"<.	c #A43B0D",
"[.	c #C95403",
"}.	c #B3947D",
"|.	c #A6A6A6",
"1.	c #AF9886",
"2.	c #353E0D",
"3.	c #42410C",
"4.	c #4F1400",
"5.	c #4B1700",
"6.	c #4A1700",
"7.	c #531900",
"8.	c #942A00",
"9.	c #9E2B00",
"0.	c #841B09",
"a.	c #651A1A",
"b.	c #6D1E18",
"c.	c #822A13",
"d.	c #9E3B0D",
"e.	c #CD6A1F",
"f.	c #B3957E",
"g.	c #A8A8A8",
"h.	c #A7A7A7",
"i.	c #AF9987",
"j.	c #D3610A",
"k.	c #AC4600",
"l.	c #6D2800",
"m.	c #6C2000",
"n.	c #7B2100",
"o.	c #A12C00",
"p.	c #751A13",
"q.	c #CA6F29",
"r.	c #A9A9A9",
"s.	c #ABA49E",
"t.	c #CD6B1F",
"u.	c #5A450A",
"v.	c #113811",
"w.	c #3F420C",
"x.	c #B55500",
"y.	c #AD4E00",
"z.	c #B75200",
"A.	c #BB4F00",
"B.	c #BE4C00",
"C.	c #661B00",
"D.	c #A52D00",
"E.	c #6C1B17",
"F.	c #661A1A",
"G.	c #7B2715",
"H.	c #CA6F2A",
"I.	c #804C07",
"J.	c #233F0D",
"K.	c #553E01",
"L.	c #322300",
"M.	c #2E2400",
"N.	c #282800",
"O.	c #483100",
"P.	c #693B00",
"Q.	c #5D1C00",
"R.	c #9E2B04",
"S.	c #661B1B",
"T.	c #822B14",
"U.	c #CA702A",
"V.	c #B4967E",
"W.	c #C5793F",
"X.	c #8C4F06",
"Y.	c #123812",
"Z.	c #123B12",
"`.	c #24400E",
" +	c #2A2700",
".+	c #7F4200",
"++	c #661E00",
"@+	c #86250E",
"#+	c #97370F",
"$+	c #C27E4A",
"%+	c #CB702A",
"&+	c #B15603",
"*+	c #123912",
"=+	c #123C12",
"-+	c #292800",
";+	c #CB5900",
">+	c #832601",
",+	c #782014",
"'+	c #9E3C0D",
")+	c #C08455",
"!+	c #BA8D6A",
"~+	c #A55304",
"{+	c #744A09",
"]+	c #5B460B",
"^+	c #43440D",
"/+	c #2A400F",
"(+	c #1F3F0F",
"_+	c #5A4301",
":+	c #2A2800",
"<+	c #743F00",
"[+	c #AA4D00",
"}+	c #D25900",
"|+	c #9B2D03",
"1+	c #B34808",
"2+	c #B99376",
"3+	c #CB702B",
"4+	c #B5967F",
"5+	c #122412",
"6+	c #362E0E",
"7+	c #43320D",
"8+	c #673C0A",
"9+	c #744009",
"0+	c #984C05",
"a+	c #A55004",
"b+	c #C95901",
"c+	c #B55300",
"d+	c #8A4500",
"e+	c #804200",
"f+	c #6B3500",
"g+	c #C65000",
"h+	c #8F270B",
"i+	c #6D1B1B",
"j+	c #6C1B1B",
"k+	c #6B1B1B",
"l+	c #6A1B1B",
"m+	c #BB4C06",
"n+	c #B79981",
"o+	c #CB712B",
"p+	c #D06615",
"q+	c #2A2B0F",
"r+	c #122612",
"s+	c #122912",
"t+	c #673501",
"u+	c #2A1100",
"v+	c #542400",
"w+	c #803700",
"x+	c #C05300",
"y+	c #552D00",
"z+	c #C75000",
"A+	c #842311",
"B+	c #B0A8A3",
"C+	c #CC712B",
"D+	c #B59780",
"E+	c #132911",
"F+	c #603500",
"G+	c #251400",
"H+	c #281300",
"I+	c #2B1200",
"J+	c #352100",
"K+	c #C95101",
"L+	c #741E19",
"M+	c #6D1C1C",
"N+	c #AFAFAF",
"O+	c #C67A40",
"P+	c #5B390B",
"Q+	c #122812",
"R+	c #302D03",
"S+	c #1B1A00",
"T+	c #1C1A00",
"U+	c #1D1A00",
"V+	c #1E1900",
"W+	c #2B1C00",
"X+	c #BE5500",
"Y+	c #5C3300",
"Z+	c #C24F04",
"`+	c #6E1C1C",
" @	c #812816",
".@	c #CE6C21",
"+@	c #B0B0B0",
"@@	c #CC712C",
"#@	c #B69881",
"$@	c #C18456",
"%@	c #122712",
"&@	c #854400",
"*@	c #A8400C",
"=@	c #882C15",
"-@	c #CC722C",
";@	c #B1B1B1",
">@	c #BB8E6B",
",@	c #8C4806",
"'@	c #122512",
")@	c #B35200",
"!@	c #822816",
"~@	c #6F1C1C",
"{@	c #9B380F",
"]@	c #C6824D",
"^@	c #B2B2B2",
"/@	c #CD722C",
"(@	c #A54F04",
"_@	c #2D2E05",
":@	c #2C2801",
"<@	c #2B2601",
"[@	c #282200",
"}@	c #252000",
"|@	c #221E00",
"1@	c #CA5900",
"2@	c #A23C0E",
"3@	c #C48859",
"4@	c #B3B3B3",
"5@	c #B49E8C",
"6@	c #BD5602",
"7@	c #744309",
"8@	c #5B3C0B",
"9@	c #43360D",
"0@	c #1E2C10",
"a@	c #152910",
"b@	c #192A0F",
"c@	c #1A2B0E",
"d@	c #202D0C",
"e@	c #242D09",
"f@	c #282D07",
"g@	c #BC4C07",
"h@	c #AF440A",
"i@	c #8F3113",
"j@	c #882D15",
"k@	c #6F1D1D",
"l@	c #C5885A",
"m@	c #B4B4B4",
"n@	c #CD722D",
"o@	c #AEAEAE",
"p@	c #BA9477",
"q@	c #C28557",
"r@	c #C77B41",
"s@	c #D3620A",
"t@	c #B15303",
"u@	c #36330E",
"v@	c #122A12",
"w@	c #BD987B",
"x@	c #B6AEA8",
"y@	c #BC9E87",
"z@	c #C19471",
"A@	c #C5895A",
"B@	c #CB7838",
"C@	c #CE732D",
"D@	c #C48F66",
"E@	c #B6B6B6",
"F@	c #CD732D",
"G@	c #B89982",
"H@	c #B99B84",
"I@	c #BA9C84",
"J@	c #C38758",
"K@	c #C5814D",
"L@	c #CF6C21",
"M@	c #B5B5B5",
"N@	c #B8B1AB",
"O@	c #B7B7B7",
"P@	c #B7A89C",
"Q@	c #B8B8B8",
"R@	c #CE732E",
"S@	c #0D0500",
"T@	c #B9B9B9",
"U@	c #CE742E",
"V@	c #351700",
"W@	c #B89A83",
"X@	c #C77C42",
"Y@	c #C38658",
"Z@	c #C48759",
"`@	c #C6895B",
" #	c #C68A5B",
".#	c #C78A5C",
"+#	c #C78B5C",
"@#	c #D26817",
"  . . . . . + + + + @ @ @ @ # # # # # $ $ $ $ % % % % % & * = - ",
"; > > , , , , ' ' ' ) ) ! ) ~ { { { { ] ] ] ] ^ ^ ^ / ( ( ( _ - ",
": ) ) , < < , { { { ] [ } | 1 1 1 1 1 1 1 2 3 _ _ 4 * * * * 2 - ",
"5 , , , < < , , , ^ 6 7 8 9 0 a a b c c d e f g h i j j j k 1 - ",
"l , < < < < < < , m = n o p q r r s a a a t u v v v v v v k 1 - ",
"w , < < < < < < , x y z A B C D D E F G H I J v v v v v v k 1 - ",
"K , , , < < , , , L M N O P Q R R R R S T U V W W W W W W k 1 - ",
"X Y Z , < < , `  .z ..1 +.@.#.$.$.$.%.%.&.*.=.W W W W W W k 1 - ",
"-.;.>., , , , ,.z M '.).!.~.~.{.{.].^.^./.(._.1 :.k k <.<.[.1 - ",
"}.|.|.|.|.1.,.2.M M 3.).4.5.5.6.6.6.6.7.8.9.0.a.b.c.c.d.d.1 e.- ",
"f.g.h.h.i.j.3.M M M 3.k.l.l.l.6.6.6.6.m.n.o.p.a.a.a.a.a.a.1 q.- ",
"f.g.r.s.t.u.v.v.v.v.w.x.y.y.z.1 1 A.^.B.C.D.E.F.F.F.F.F.G.t.H.- ",
"f.r.r.t.I.v.v.v.v.v.J.K.L.L.M.N.N.O.P.1 Q.R.S.S.S.S.S.S.T.U.U.- ",
"V.r.W.X.v.v.Y.Y.Y.Z.`.K.L.L. +N.N.N..+1 ++@+S.S.S.S.S.S.#+$+%+- ",
"V.W.&+v.Y.Y.Y.Y.*+=+`.K.L.M.-+N.N.N.;+1 >+,+S.S.S.S.S.S.'+)+%+- ",
"!+1 1 A ~+X.{+]+^+/+(+_+L. +-+:+-+<+[+}+|+S.S.S.S.S.S.S.1+2+3+- ",
"4+1 5+6+7+8+9+0+a+b+1 1 ;+c+d+e+e+c+f+g+h+i+i+j+j+k+l+l+m+n+o+- ",
"4+p+q+5+5+5+r+s+s+s+s+t+u+v+w+w+w+x+y+z+A+i+i+i+i+i+i+i+:.B+C+- ",
"D+%+7+5+5+5+s+s+s+s+E+F+G+H+I+I+I+1 J+K+L+M+M+M+M+M+M+M+1 N+C+- ",
"D+O+P+5+5+Q+s+s+s+s+s+R+S+T+U+V+W+X+Y+Z+`+`+`+`+`+`+`+ @.@+@@@- ",
"#@$@9+5+%@s+s+s+s+s+s+R+S+U+U+U+U+1 &@*@`+`+`+`+`+`+`+=@-@;@-@- ",
"#@>@,@'@s+s+s+s+s+s+s+R+T+U+U+U+U+1 )@!@~@~@`+`+`+`+`+{@]@^@/@- ",
"#@n+(@Q+s+s+s+s+s+s+s+_@:@<@[@}@|@1@:.`+`+`+~@~@`+`+`+2@3@4@/@- ",
"n+5@6@7@8@9@0@s+s+s+s+a@b@c@d@e@f@1 1 :.g@h@2@i@j@k@`+*@l@m@n@- ",
"n+o@p@q@r@C+s@1 t@a+7@7@9@u@s+s+v@1 w@x@y@z@A@B@C@1 1 1 D@E@F@- ",
"G@o@o@N+N+N++@+@H@I@J@K@/@L@1 6@a+1 m@m@M@M@M@E@E@E@N@O@O@O@C@- ",
"G@o@N+N+N++@+@+@;@;@;@^@^@4@4@P@y@y@m@M@M@M@E@E@E@O@O@O@Q@Q@R@S@",
"G@N+N+N++@+@;@;@;@;@^@^@4@4@4@m@m@m@M@M@M@E@E@E@O@O@O@Q@Q@T@U@V@",
"W@N++@+@+@;@;@;@^@^@^@4@4@4@m@m@m@M@M@M@E@O@O@O@O@Q@Q@Q@T@T@U@V@",
"W@+@+@+@;@;@;@^@^@^@4@4@4@m@M@M@M@M@E@E@E@O@O@O@O@Q@Q@Q@T@T@U@V@",
"X@Y@Y@J@J@J@Z@Z@3@3@3@l@l@l@A@A@A@A@`@`@`@ # # # #.#.#.#+#+#@#V@",
"V@V@V@V@V@V@V@V@V@V@V@V@V@V@V@V@V@V@V@V@V@V@V@V@V@V@V@V@V@V@V@- "};
