/* XPM */
static char * dmmShelfPolySphere_xpm[] = {
"32 32 222 2",
"  	c #E17E41",
". 	c #D78857",
"+ 	c #F56A15",
"@ 	c #000000",
"# 	c #C39B83",
"$ 	c #AFAFAF",
"% 	c #EB742B",
"& 	c #CD916D",
"* 	c #F06F20",
"= 	c #FF6100",
"- 	c #E25608",
"; 	c #C74C10",
"> 	c #D9530A",
", 	c #F55D02",
"' 	c #E67936",
") 	c #BEA08E",
"! 	c #DC834C",
"~ 	c #A84218",
"{ 	c #6E2E28",
"] 	c #C54C10",
"^ 	c #6A2B2B",
"/ 	c #732E28",
"( 	c #E35608",
"_ 	c #A13F1A",
": 	c #7C3125",
"< 	c #AE4218",
"[ 	c #F65D02",
"} 	c #E15608",
"| 	c #B94912",
"1 	c #EB5A05",
"2 	c #CF500D",
"3 	c #C84C10",
"4 	c #6C2B2B",
"5 	c #752E28",
"6 	c #E45608",
"7 	c #B44615",
"8 	c #EC5A05",
"9 	c #D2500D",
"0 	c #8C3522",
"a 	c #692E28",
"b 	c #652B2B",
"c 	c #B24615",
"d 	c #DB530A",
"e 	c #B54615",
"f 	c #8B3522",
"g 	c #C34C10",
"h 	c #622B2B",
"i 	c #813125",
"j 	c #6F2B2B",
"k 	c #B74615",
"l 	c #BE4912",
"m 	c #D1500D",
"n 	c #C14912",
"o 	c #C89678",
"p 	c #D8530A",
"q 	c #8B3820",
"r 	c #ED5A05",
"s 	c #742E28",
"t 	c #993B1D",
"u 	c #FA650A",
"v 	c #CE500D",
"w 	c #8A3522",
"x 	c #A23F1A",
"y 	c #6B2B2B",
"z 	c #D6530A",
"A 	c #843125",
"B 	c #732B2B",
"C 	c #B94615",
"D 	c #B84615",
"E 	c #A73F1A",
"F 	c #DA530A",
"G 	c #A94218",
"H 	c #CC500D",
"I 	c #993F1A",
"J 	c #C24C10",
"K 	c #C64C10",
"L 	c #DC530A",
"M 	c #8D3522",
"N 	c #702E28",
"O 	c #833522",
"P 	c #D28C62",
"Q 	c #B84912",
"R 	c #A34218",
"S 	c #612B2B",
"T 	c #C44C10",
"U 	c #B04218",
"V 	c #963820",
"W 	c #672B2B",
"X 	c #A54218",
"Y 	c #753125",
"Z 	c #6B2E28",
"` 	c #C04912",
" .	c #B34615",
"..	c #8D3820",
"+.	c #A64218",
"@.	c #CD500D",
"#.	c #9C3F1A",
"$.	c #893820",
"%.	c #782E28",
"&.	c #682B2B",
"*.	c #A4A4A4",
"=.	c #A66136",
"-.	c #80290A",
";.	c #932F05",
">.	c #C54805",
",.	c #7A2305",
"'.	c #AF3902",
").	c #4F0A0A",
"!.	c #500A0A",
"~.	c #621105",
"{.	c #D04800",
"].	c #933820",
"^.	c #702B2B",
"/.	c #692B2B",
"(.	c #7A3125",
"_.	c #6A2C2C",
":.	c #A2401C",
"<.	c #F66C17",
"[.	c #838383",
"}.	c #151515",
"|.	c #0F0600",
"1.	c #F25A00",
"2.	c #751E00",
"3.	c #9B3000",
"4.	c #AD3600",
"5.	c #460000",
"6.	c #7F1E00",
"7.	c #E75400",
"8.	c #722B2B",
"9.	c #6B2D2D",
"0.	c #6C2E2E",
"a.	c #A3411C",
"b.	c #EA7D3A",
"c.	c #EE772F",
"d.	c #4C4C4C",
"e.	c #9F3C00",
"f.	c #CC4800",
"g.	c #801E00",
"h.	c #470000",
"i.	c #A83505",
"j.	c #C14913",
"k.	c #79302A",
"l.	c #6F2E2E",
"m.	c #873725",
"n.	c #993D1F",
"o.	c #CCA58D",
"p.	c #AD856D",
"q.	c #3F1800",
"r.	c #D94E00",
"s.	c #9A3000",
"t.	c #751800",
"u.	c #60140E",
"v.	c #CB4D11",
"w.	c #B74717",
"x.	c #78312B",
"y.	c #DB540B",
"z.	c #AE4419",
"A.	c #BCBCBC",
"B.	c #CF4E00",
"C.	c #BA3C00",
"D.	c #8C2400",
"E.	c #741800",
"F.	c #A23000",
"G.	c #98320E",
"H.	c #A5411C",
"I.	c #D59975",
"J.	c #CAA28A",
"K.	c #737373",
"L.	c #2F1200",
"M.	c #EF5A00",
"N.	c #832400",
"O.	c #CD4800",
"P.	c #C34200",
"Q.	c #AB3600",
"R.	c #9F3000",
"S.	c #9E3000",
"T.	c #C14200",
"U.	c #232323",
"V.	c #4F1E00",
"W.	c #8D2A00",
"X.	c #B73C00",
"Y.	c #3F0000",
"Z.	c #3E0000",
"`.	c #4A0600",
" +	c #862400",
".+	c #C24200",
"++	c #AA3902",
"@+	c #9F411C",
"#+	c #F27223",
"$+	c #C0B6B0",
"%+	c #8D8D8D",
"&+	c #7F3000",
"*+	c #CE4800",
"=+	c #852400",
"-+	c #540C00",
";+	c #390000",
">+	c #933511",
",+	c #FA660B",
"'+	c #C8AA98",
")+	c #464646",
"!+	c #AF4200",
"~+	c #3B0000",
"{+	c #480600",
"]+	c #3A0000",
"^+	c #C34502",
"/+	c #B0B0B0",
"(+	c #0B0B0B",
"_+	c #DF5400",
":+	c #E65400",
"<+	c #9D3000",
"[+	c #9C3000",
"}+	c #B43C00",
"|+	c #A23908",
"1+	c #696969",
"2+	c #BF4800",
"3+	c #E18852",
"4+	c #5E5E5E",
"5+	c #BE652F",
"6+	c #D09F81",
"7+	c #757575",
"8+	c #E58346",
"9+	c #DD8E5E",
"  . . . . . . . . . . . . . . . . . . . . . . . . . . . . . + @ ",
"# $ $ $ $ $ $ $ $ $ $ $ $ $ $ $ $ $ $ $ $ $ $ $ $ $ $ $ $ $ % @ ",
"# $ $ $ $ $ $ $ $ $ $ $ $ & % % % * * % % % # $ $ $ $ $ $ $ % @ ",
"# $ $ $ $ $ $ $ $ $ $ . + = = - = ; > = , = = ' ) $ $ $ $ $ % @ ",
"# $ $ $ $ $ $ $ $ $ ! = = ~ { ] ; ^ / ( _ : < [ = & $ $ $ $ % @ ",
"# $ $ $ $ $ $ $ $   } = | 1 2 3 4 4 4 5 6 7 8 9 0 6 & $ $ $ % @ ",
"# $ $ $ $ $ $ $   } a = b c = = d d d d d [ [ e f 0 [ & $ $ % @ ",
"# $ $ $ $ $ $   g h b 1 b - < d d i j j j k d l = m n = o $ % @ ",
"# $ $ $ $ $ ' 1 b b b p q r j j < r < j j i [ s s t ; , u o % @ ",
"# $ $ $ $ $ * = ] b b - v < j j j i 6 d w j d x y y y x = . % @ ",
"# $ $ $ $ $ = = z ] { , = A B B B B B C [ D E F y y l - G ' % @ ",
"# $ $ $ $ # z H I J K = L B B B B B B B M 6 6 = 5 ; - N O + % @ ",
"# $ $ $ $ P Q R g S T = L C C C C U V V V V L = 8 K W W W = % @ ",
"# $ $ $ $ ' X Y , Z h = = r ` k k ` k k k k e K , = >  ...> = @ ",
"# $ $ $ $ + +.h @.#.$.d w 9 = < %.j j j j j y ..> &... .- = = @ ",
"# $ $ $ *.=.= -.;.>.,.'.).!.~.{.r ].^.^.^.^./.(.= &./._.:.= <.@ ",
"# $ $ [.}.|.= 1.2.1.3.4.5.5.5.5.6.7.d 0 8.^.^ /.= 9.0.a.= b.c.@ ",
"# *.d.@ @ @ e.f.1.1.= g.h.5.5.5.5.5.i.[ j.k.l.l.r m.n.= = o.c.@ ",
"p.}.@ @ @ @ q.r.s.= = t.h.h.5.5.5.5.5.u.v.[ w.x.y.z., = c.A.c.@ ",
"# }.@ @ @ @ @ B.= = = C.D.t.E.F.F.F.F.F.G.H.r [ [ = , = I.A.c.@ ",
"J.K.@ @ @ @ @ L.M.N.O.P.Q.R.S.S.S.S.S.S.T.1.= = = 8 = c.A.A.c.@ ",
"o.A.U.@ @ @ @ @ V.1.W.X.Y.Z.Z.Z.Z.Z.`. +.+1.++@+= = #+$+A.A.c.@ ",
"o.A.%+@ @ @ @ @ @ &+1.= Z.Z.Z.`. +.+= *+=+-+;+>+= ,+'+A.A.A.c.@ ",
"o.A.A.)+@ @ @ @ @ @ !+= ~+=+*+1..+ +{+~+~+]+;+^+= '+A.A.A.A.c.@ ",
"o.A.A./+(+@ @ @ @ @ |._+:+= :+<+<+<+[+[+[+}+|+= I.A.A.A.A.A.c.@ ",
"o.A.A.A.1+@ @ @ @ @ @ L.2+= f.f.f.= = = = = <.3+A.A.A.A.A.A.c.@ ",
"o.A.A.A.A.4+(+@ @ @ @ @ @ q.e.&+&+&+&+&+5+6+A.A.A.A.A.A.A.A.c.@ ",
"o.A.A.A.A.A./+7+U.@ @ @ @ @ @ @ @ @ @ )+A.A.A.A.A.A.A.A.A.A.c.@ ",
"o.A.A.A.A.A.A.A.A.A.A.A.A.A.A.A.A.A.A.A.A.A.A.A.A.A.A.A.A.A.c.@ ",
"o.A.A.A.A.A.A.A.A.A.A.A.A.A.A.A.A.A.A.A.A.A.A.A.A.A.A.A.A.A.c.@ ",
"8+9+9+9+9+9+9+9+9+9+9+9+9+9+9+9+9+9+9+9+9+9+9+9+9+9+9+9+9+9+<.@ ",
"q.q.q.q.q.q.q.q.q.q.q.q.q.q.q.q.q.q.q.q.q.q.q.q.q.q.q.q.q.q.q.@ "};
