/* XPM */
static char * dmmShelfDetachSurfaceMesh_xpm[] = {
"32 32 392 2",
"  	c #0000FF",
". 	c #0000ED",
"+ 	c #0000BA",
"@ 	c #0000C3",
"# 	c #0000DE",
"$ 	c #0000D9",
"% 	c #0000FA",
"& 	c #0000EA",
"* 	c #0000E6",
"= 	c #0F06E7",
"- 	c #753373",
"; 	c #C95C14",
"> 	c #B87B4D",
", 	c #B87C4D",
"' 	c #B97C4E",
") 	c #B97D4E",
"! 	c #BA7D4F",
"~ 	c #CF6513",
"{ 	c #000000",
"] 	c #0000F3",
"^ 	c #0000F6",
"/ 	c #0000E5",
"( 	c #0000F5",
"_ 	c #0000F4",
": 	c #0000EC",
"< 	c #0804DA",
"[ 	c #51239E",
"} 	c #B47F56",
"| 	c #9A9A9A",
"1 	c #9B9B9B",
"2 	c #9C9C9C",
"3 	c #9D9D9D",
"4 	c #9E9E9E",
"5 	c #C86D27",
"6 	c #0000A6",
"7 	c #00004E",
"8 	c #00005A",
"9 	c #0000DD",
"0 	c #0000D2",
"a 	c #0000D8",
"b 	c #0000F7",
"c 	c #0301E9",
"d 	c #4333D5",
"e 	c #000079",
"f 	c #00004D",
"g 	c #0000A9",
"h 	c #0000A5",
"i 	c #0000F9",
"j 	c #0000CA",
"k 	c #A5958A",
"l 	c #9F9F9F",
"m 	c #A0A0A0",
"n 	c #00008F",
"o 	c #00007A",
"p 	c #0000A4",
"q 	c #0000E4",
"r 	c #0000E8",
"s 	c #0000FB",
"t 	c #0000E7",
"u 	c #A4818D",
"v 	c #A1A1A1",
"w 	c #A7988C",
"x 	c #C86D28",
"y 	c #00009B",
"z 	c #0000F0",
"A 	c #0000C9",
"B 	c #0000AB",
"C 	c #00009F",
"D 	c #0000CF",
"E 	c #99697F",
"F 	c #C96E28",
"G 	c #D65D00",
"H 	c #CF6514",
"I 	c #C57232",
"J 	c #BC7F51",
"K 	c #AF9079",
"L 	c #A2A2A2",
"M 	c #C86E28",
"N 	c #000054",
"O 	c #00001B",
"P 	c #0000BE",
"Q 	c #00007D",
"R 	c #00007E",
"S 	c #00007F",
"T 	c #853D61",
"U 	c #A35D34",
"V 	c #D05D05",
"W 	c #985D40",
"X 	c #AF5D29",
"Y 	c #BF5D17",
"Z 	c #CC6A1E",
"` 	c #C2773D",
" .	c #B68865",
"..	c #AC9584",
"+.	c #A3A3A3",
"@.	c #000062",
"#.	c #0300F2",
"$.	c #1F00C9",
"%.	c #894252",
"&.	c #7D5E5E",
"*.	c #BA5D1D",
"=.	c #935E47",
"-.	c #A35E35",
";.	c #B45D23",
">.	c #CA5D0B",
",.	c #D2610A",
"'.	c #C96E29",
").	c #BD8052",
"!.	c #0000D4",
"~.	c #0000CE",
"{.	c #00009D",
"].	c #00009E",
"^.	c #1300CB",
"/.	c #220069",
"(.	c #320072",
"_.	c #89505F",
":.	c #7D5F5F",
"<.	c #835E59",
"[.	c #CB5D0B",
"}.	c #995E41",
"|.	c #A45E35",
"1.	c #00004F",
"2.	c #0000AF",
"3.	c #0000D0",
"4.	c #0300F8",
"5.	c #16006B",
"6.	c #1E003A",
"7.	c #390082",
"8.	c #8B5A60",
"9.	c #7E5F5F",
"0.	c #8E5F4E",
"a.	c #D05D06",
"b.	c #835F5A",
"c.	c #C45D12",
"d.	c #0000BF",
"e.	c #00002F",
"f.	c #00001F",
"g.	c #000044",
"h.	c #000045",
"i.	c #000050",
"j.	c #0700CD",
"k.	c #1700C4",
"l.	c #571A83",
"m.	c #835E5B",
"n.	c #7F6060",
"o.	c #AA5E30",
"p.	c #C05D18",
"q.	c #9F5E3C",
"r.	c #CA5D0C",
"s.	c #915F48",
"t.	c #B95D1E",
"u.	c #00008A",
"v.	c #000072",
"w.	c #000073",
"x.	c #0500F1",
"y.	c #1E009B",
"z.	c #1D00A0",
"A.	c #1803C8",
"B.	c #924951",
"C.	c #B55E24",
"D.	c #A05F3C",
"E.	c #8A6054",
"F.	c #7F6161",
"G.	c #C05E18",
"H.	c #AB5F30",
"I.	c #8C604E",
"J.	c #7B6161",
"K.	c #BF5E18",
"L.	c #764D2D",
"M.	c #2316B1",
"N.	c #0703AD",
"O.	c #0100DD",
"P.	c #0000EF",
"Q.	c #0200BA",
"R.	c #1400C9",
"S.	c #0A00D1",
"T.	c #2E0382",
"U.	c #7A5162",
"V.	c #756161",
"W.	c #826155",
"X.	c #9A603D",
"Y.	c #B85E1E",
"Z.	c #C55D12",
"`.	c #B05F2A",
" +	c #9A6043",
".+	c #956049",
"++	c #81615B",
"@+	c #7C6161",
"#+	c #CD6B1F",
"$+	c #72543C",
"%+	c #554A42",
"&+	c #5B4157",
"*+	c #1E0DB5",
"=+	c #0603EF",
"-+	c #000051",
";+	c #000041",
">+	c #0700EA",
",+	c #280094",
"'+	c #1F0ED1",
")+	c #7D4D6C",
"!+	c #776363",
"~+	c #766262",
"{+	c #8E6049",
"]+	c #A65F31",
"^+	c #82615B",
"/+	c #7D6262",
"(+	c #CB702A",
"_+	c #515151",
":+	c #564F4A",
"<+	c #5C3E42",
"[+	c #461E50",
"}+	c #371875",
"|+	c #2610A0",
"1+	c #1C0CBD",
"2+	c #3718BD",
"3+	c #6D4E61",
"4+	c #5A4141",
"5+	c #CB5A04",
"6+	c #7B4E37",
"7+	c #634F4F",
"8+	c #705C5C",
"9+	c #7C625C",
"0+	c #BA5E1E",
"a+	c #8E6150",
"b+	c #D06615",
"c+	c #72543D",
"d+	c #525252",
"e+	c #53504D",
"f+	c #432F2F",
"g+	c #673A23",
"h+	c #CC5A03",
"i+	c #4C312C",
"j+	c #4D3939",
"k+	c #5A4646",
"l+	c #675353",
"m+	c #C55E12",
"n+	c #A46037",
"o+	c #7E6363",
"p+	c #94614A",
"q+	c #CB702B",
"r+	c #535353",
"s+	c #433030",
"t+	c #8C4618",
"u+	c #B1510C",
"v+	c #443030",
"w+	c #513D3D",
"x+	c #5E4A4A",
"y+	c #746060",
"z+	c #896357",
"A+	c #8F6251",
"B+	c #7E6464",
"C+	c #9F613E",
"D+	c #C67B40",
"E+	c #CB712B",
"F+	c #B5967F",
"G+	c #ABABAB",
"H+	c #A5A5A5",
"I+	c #747474",
"J+	c #8D4618",
"K+	c #473333",
"L+	c #9A6144",
"M+	c #CB5D0C",
"N+	c #84635D",
"O+	c #AA6032",
"P+	c #C28557",
"Q+	c #CC712B",
"R+	c #B59780",
"S+	c #636363",
"T+	c #4C322C",
"U+	c #4C332D",
"V+	c #5F3827",
"W+	c #BB5409",
"X+	c #543A3A",
"Y+	c #725757",
"Z+	c #B0602C",
"`+	c #BB5F1F",
" @	c #B56025",
".@	c #BD906D",
"+@	c #ACACAC",
"@@	c #909090",
"#@	c #5D5D5D",
"$@	c #B55A15",
"%@	c #683B24",
"&@	c #C35706",
"*@	c #4D332D",
"=@	c #453131",
"-@	c #693B24",
";@	c #B3510C",
">@	c #4B3030",
",@	c #5F4444",
"'@	c #C25B0F",
")@	c #B99B84",
"!@	c #CC712C",
"~@	c #B69881",
"{@	c #ADADAD",
"]@	c #8B8B8B",
"^@	c #5E5E5E",
"/@	c #443131",
"(@	c #A84E0F",
"_@	c #4B3131",
":@	c #653927",
"<@	c #B7A18F",
"[@	c #CC722C",
"}@	c #AEAEAE",
"|@	c #8C8C8C",
"1@	c #545454",
"2@	c #84441B",
"3@	c #463131",
"4@	c #693C25",
"5@	c #C48759",
"6@	c #B2B2B2",
"7@	c #CD722C",
"8@	c #AFAFAF",
"9@	c #8D8D8D",
"0@	c #BB601B",
"a@	c #7A411E",
"b@	c #4D332E",
"c@	c #603928",
"d@	c #463232",
"e@	c #7B411F",
"f@	c #AA4F0F",
"g@	c #914718",
"h@	c #B3B3B3",
"i@	c #B79981",
"j@	c #B0B0B0",
"k@	c #BE906E",
"l@	c #D16716",
"m@	c #BA5409",
"n@	c #683C25",
"o@	c #4E342E",
"p@	c #8E4719",
"q@	c #914719",
"r@	c #4C3232",
"s@	c #6E3D25",
"t@	c #D3620B",
"u@	c #B6AEA8",
"v@	c #B4B4B4",
"w@	c #CD722D",
"x@	c #B1B1B1",
"y@	c #BA9C84",
"z@	c #C87C42",
"A@	c #A84F0F",
"B@	c #713E21",
"C@	c #8D4719",
"D@	c #663A29",
"E@	c #CD5A03",
"F@	c #BCA593",
"G@	c #B6B6B6",
"H@	c #CD732D",
"I@	c #B89982",
"J@	c #FFFFFF",
"K@	c #B4ACA6",
"L@	c #BF926F",
"M@	c #964A16",
"N@	c #453232",
"O@	c #B1520C",
"P@	c #84441C",
"Q@	c #A94F0F",
"R@	c #80421F",
"S@	c #C45706",
"T@	c #C29471",
"U@	c #B7B7B7",
"V@	c #CE732D",
"W@	c #FF0000",
"X@	c #B8A99D",
"Y@	c #C5885A",
"Z@	c #BB5509",
"`@	c #C48F66",
" #	c #B8B8B8",
".#	c #CE732E",
"+#	c #0D0500",
"@#	c #B5B5B5",
"##	c #BD9F87",
"$#	c #C97E43",
"%#	c #D4620B",
"&#	c #CA7E44",
"*#	c #B9B9B9",
"=#	c #CE742E",
"-#	c #351700",
";#	c #B89A83",
">#	c #B8B1AB",
",#	c #C09A7D",
"'#	c #C77C42",
")#	c #C38658",
"!#	c #C38758",
"~#	c #C48859",
"{#	c #C5895A",
"]#	c #C6895B",
"^#	c #C68A5B",
"/#	c #C78A5C",
"(#	c #C78B5C",
"_#	c #D26817",
"  . + @   # $ $ % & * = - ; > > > > > , , , , ' ' ' ' ' ) ! ~ { ",
"] # ^ / % $ $ $ ( _   : < [ } | | | | 1 1 1 1 2 2 3 3 4 4 4 5 { ",
"6 7 8 # 9 0 0 0 a b @ @ @ c d 2 2 2 2 3 3 3 3 4 4 4 4 4 4 4 5 { ",
"e f 7 _ g h 6 6 6 i j @ @ 9   k 4 4 l l m l l l l l l l l l 5 { ",
"0 n o ] p h h 6 6 9 q r s . t u v w v v v v v v v m m m m m x { ",
"y g z i r r r r r ] i A B C D E F G H I J K L L L L L L v v M { ",
"N O N P Q R S S S C t C C B t T U U V W X Y G Z `  ...+.+.+.F { ",
"@.O N P Q Q Q R S n i h D #.$.%.&.&.*.X &.&.&.=.-.;.>.,.'.).H { ",
"  !.y ~.{.{.{.{.{.].  ] ^./.(._.:.:.<.[.}.:.:.:.:.:.:.<.|.G G { ",
"S 1.2.] 3.3.3.3.3.  4.5.6.6.7.8.9.9.9.0.a.b.9.9.9.9.9.0.a.c.G { ",
"d.e.f.] g.g.g.h.i.      j.k.l.m.n.n.n.n.o.p.n.n.n.n.q.r.s.t.G { ",
"    d.  u.v.v.v.w.  x.y.z.A.B.a.C.D.E.F.F.G.H.F.F.D.a.I.J.K.G { ",
"L.M.N.O.P.d.d.d.Q.x.R.S.T.U.V.W.X.Y.a.Z.`. +a..+C.Z.++@+@+a.#+{ ",
"$+%+&+*+=+-+;+;+;+>+,+'+)+!+~+~+~+~+~+{+]+c.G G Z.^+/+/+/+G (+{ ",
"$+_+_+:+<+[+}+|+1+2+3+4+5+6+7+8+~+~+~+~+~+~+9+G 0+/+/+/+a+b+(+{ ",
"c+_+_+d+d+d+e+d+e+G f+f+g+h+i+f+j+k+l+!+!+!+!+G m+n+o+o+p+q+q+{ ",
"c+_+d+d+d+d+d+d+r+G s+s+s+t+u+v+v+v+v+v+w+x+y+G z+a.A+B+C+D+E+{ ",
"F+G+G+H+I+d+d+r+r+G s+s+s+s+u+J+v+v+v+v+v+v+K+G B+L+M+N+O+P+Q+{ ",
"R+G+| S+d+d+r+r+r+G T+s+s+s+U+h+V+v+v+v+v+v+V+W+X+Y+Z+`+ @.@Q+{ ",
"R++@@@#@r+r+r+r+r+$@%@s+s+v+v+%@&@*@=@v+v+v+-@;@>@>@,@'@G )@!@{ ",
"~@+@+@{@]@^@r+r+r+$@%@s+v+v+v+/@J+(@=@=@=@=@-@;@_@_@_@:@G <@[@{ ",
"~@+@{@{@{@}@|@^@1@$@%@v+v+/@/@/@/@u+2@=@3@3@4@;@_@_@_@;@5@6@7@{ ",
"~@{@{@{@}@}@}@8@9@0@a@v+/@/@/@/@/@b@h+c@=@d@e@f@_@_@g@7@h@h@7@{ ",
"i@{@{@}@}@8@8@8@j@k@l@m@2@*@/@/@/@=@n@&@o@d@p@q@r@s@t@u@v@v@w@{ ",
"i@}@}@}@8@8@8@j@j@j@x@y@z@t@A@B@=@=@=@C@A@d@p@q@D@E@F@G@G@G@H@{ ",
"I@}@J@J@J@J@J@J@J@J@x@x@6@K@L@7@h+M@c@N@O@P@Q@R@S@T@U@U@U@U@V@{ ",
"I@}@J@W@W@W@W@W@W@J@x@6@6@h@h@h@X@Y@l@Z@C@G &@E@`@U@U@U@ # #.#+#",
"I@8@J@W@W@W@W@W@W@J@6@6@h@h@h@v@v@v@@###$#%#G &#U@U@U@ # #*#=#-#",
";#8@J@J@J@J@J@J@J@J@6@h@h@h@v@v@v@@#@#@#G@>#,#U@U@ # # #*#*#=#-#",
";#j@j@j@x@x@x@6@6@6@h@h@h@v@@#@#@#@#G@G@G@U@U@U@U@ # # #*#*#=#-#",
"'#)#)#!#!#!#5@5@~#~#~#Y@Y@Y@{#{#{#{#]#]#]#^#^#^#^#/#/#/#(#(#_#-#",
"-#-#-#-#-#-#-#-#-#-#-#-#-#-#-#-#-#-#-#-#-#-#-#-#-#-#-#-#-#-#-#{ "};
