/* XPM */
static char * dmmShelfNewGlueRegion_xpm[] = {
"32 32 318 2",
"  	c #DE863F",
". 	c #D48D54",
"+ 	c #D48D55",
"@ 	c #D58E55",
"# 	c #D58E56",
"$ 	c #D68F56",
"% 	c #D68F57",
"& 	c #D79057",
"* 	c #D79058",
"= 	c #D89158",
"- 	c #D89159",
"; 	c #D99259",
"> 	c #D9925A",
", 	c #DA935A",
"' 	c #F57916",
") 	c #000000",
"! 	c #BE9B7E",
"~ 	c #A9A9A9",
"{ 	c #FFFFFF",
"] 	c #ABABAB",
"^ 	c #ACACAC",
"/ 	c #ADADAD",
"( 	c #AEAEAE",
"_ 	c #AFAFAF",
": 	c #B0B0B0",
"< 	c #B1B1B1",
"[ 	c #B2B2B2",
"} 	c #B3B3B3",
"| 	c #B4B4B4",
"1 	c #B5B5B5",
"2 	c #EC822D",
"3 	c #FF0000",
"4 	c #B4ABA4",
"5 	c #CE996E",
"6 	c #F07D21",
"7 	c #DD8D4D",
"8 	c #BBA99B",
"9 	c #BF9B7F",
"0 	c #D19361",
"a 	c #FA740A",
"b 	c #F57815",
"c 	c #CD986E",
"d 	c #DD5B07",
"e 	c #9E3613",
"f 	c #BF4B0C",
"g 	c #F56B01",
"h 	c #E28943",
"i 	c #C6A286",
"j 	c #C79A77",
"k 	c #F47815",
"l 	c #F68C10",
"m 	c #E2D03A",
"n 	c #E6C232",
"o 	c #F59314",
"p 	c #FF7100",
"q 	c #D45608",
"r 	c #882618",
"s 	c #721C1C",
"t 	c #6E1C1C",
"u 	c #78211A",
"v 	c #A53B11",
"w 	c #ED6603",
"x 	c #D09A70",
"y 	c #C19E81",
"z 	c #EA802B",
"A 	c #F8850C",
"B 	c #E5C232",
"C 	c #DDDD43",
"D 	c #DEDE43",
"E 	c #DFDF43",
"F 	c #E3D13A",
"G 	c #F39A19",
"H 	c #C9510A",
"I 	c #802618",
"J 	c #9C3613",
"K 	c #DB5B07",
"L 	c #BAB1AA",
"M 	c #C09C80",
"N 	c #DB8B4B",
"O 	c #EDA621",
"P 	c #DCDC43",
"Q 	c #E0E043",
"R 	c #E4D33A",
"S 	c #F39B19",
"T 	c #DB5C07",
"U 	c #FA750B",
"V 	c #DB680C",
"W 	c #F36E04",
"X 	c #EEA721",
"Y 	c #DFD63E",
"Z 	c #E1E143",
"` 	c #E3DA3E",
" .	c #F0A921",
"..	c #FD7804",
"+.	c #933215",
"@.	c #D25609",
"#.	c #C09D81",
"$.	c #E76B08",
"%.	c #C46214",
"&.	c #FC7704",
"*.	c #E0D73E",
"=.	c #E2E243",
"-.	c #E4DB3E",
";.	c #F1AA21",
">.	c #D85C07",
",.	c #BA4C0C",
"'.	c #B3AAA3",
").	c #F96B00",
"!.	c #D84A00",
"~.	c #C55109",
"{.	c #F36C02",
"].	c #D06510",
"^.	c #EFA821",
"/.	c #E3E343",
"(.	c #E4E443",
"_.	c #E5DC3E",
":.	c #F0B225",
"<.	c #FB7F08",
"[.	c #F9740A",
"}.	c #CA500A",
"|.	c #8A2113",
"1.	c #B62900",
"2.	c #7D3017",
"3.	c #502A23",
"4.	c #A24B13",
"5.	c #B85F19",
"6.	c #FB7E08",
"7.	c #EBB629",
"8.	c #E9CF36",
"9.	c #FA860C",
"0.	c #CC976C",
"a.	c #DC5B06",
"b.	c #862618",
"c.	c #741C1C",
"d.	c #811C15",
"e.	c #452626",
"f.	c #B9540E",
"g.	c #ECB729",
"h.	c #EEB829",
"i.	c #F67A08",
"j.	c #C18325",
"k.	c #ED822D",
"l.	c #BA460E",
"m.	c #C0460A",
"n.	c #DA4D00",
"o.	c #BE500B",
"p.	c #AD5010",
"q.	c #D05E09",
"r.	c #E76704",
"s.	c #F9860C",
"t.	c #E9C532",
"u.	c #F2A21D",
"v.	c #F17508",
"w.	c #A68B36",
"x.	c #AD8932",
"y.	c #F17E22",
"z.	c #ED822E",
"A.	c #C29E82",
"B.	c #E08741",
"C.	c #CF4100",
"D.	c #B4420A",
"E.	c #73381C",
"F.	c #7F3D1A",
"G.	c #955725",
"H.	c #F78D10",
"I.	c #DC7B14",
"J.	c #978F3E",
"K.	c #919143",
"L.	c #BA8529",
"M.	c #E88639",
"N.	c #DC5B07",
"O.	c #B02300",
"P.	c #9B330E",
"Q.	c #67341E",
"R.	c #AC5C1D",
"S.	c #434343",
"T.	c #D57D19",
"U.	c #C88121",
"V.	c #DB945C",
"W.	c #C89B78",
"X.	c #F46B01",
"Y.	c #EA6603",
"Z.	c #B84B0C",
"`.	c #F66B01",
" +	c #B1410F",
".+	c #B02401",
"++	c #9D330E",
"@+	c #964615",
"#+	c #C3590B",
"$+	c #A15A21",
"%+	c #909043",
"&+	c #DC7A14",
"*+	c #C9A68A",
"=+	c #C39F83",
"-+	c #D65B07",
";+	c #CC5608",
">+	c #7C2B16",
",+	c #E06105",
"'+	c #9F2007",
")+	c #BD3805",
"!+	c #C4590B",
"~+	c #CF5E09",
"{+	c #4B2A23",
"]+	c #9F4B13",
"^+	c #B98429",
"/+	c #F17408",
"(+	c #68211A",
"_+	c #5E1C1C",
":+	c #AE460E",
"<+	c #CA4101",
"[+	c #BE3705",
"}+	c #8A4217",
"|+	c #3F2626",
"1+	c #AB8832",
"2+	c #8F8F43",
"3+	c #C9A589",
"4+	c #B8B8B8",
"5+	c #ED832E",
"6+	c #C3A084",
"7+	c #9A3B11",
"8+	c #F16601",
"9+	c #A03E10",
"0+	c #572B21",
"a+	c #DB6207",
"b+	c #572F21",
"c+	c #7D512E",
"d+	c #AB8732",
"e+	c #C4A184",
"f+	c #863115",
"g+	c #A4410F",
"h+	c #601C1C",
"i+	c #641C1C",
"j+	c #B2460E",
"k+	c #F16700",
"l+	c #F56A01",
"m+	c #452724",
"n+	c #724E32",
"o+	c #8E8E43",
"p+	c #AA8632",
"q+	c #B9B9B9",
"r+	c #E18942",
"s+	c #762618",
"t+	c #651C1C",
"u+	c #953613",
"v+	c #F36600",
"w+	c #ED6100",
"x+	c #B7540E",
"y+	c #874217",
"z+	c #BF8125",
"A+	c #E48B45",
"B+	c #D39563",
"C+	c #C4510A",
"D+	c #8B3115",
"E+	c #BA460C",
"F+	c #8B1C0C",
"G+	c #B22C00",
"H+	c #D24D01",
"I+	c #DD5E04",
"J+	c #F26C02",
"K+	c #5A483A",
"L+	c #F07408",
"M+	c #D47B19",
"N+	c #D75B07",
"O+	c #621C1C",
"P+	c #6E211A",
"Q+	c #782618",
"R+	c #B7460E",
"S+	c #701C1C",
"T+	c #7C1C15",
"U+	c #A02204",
"V+	c #B53302",
"W+	c #90340F",
"X+	c #813E18",
"Y+	c #E27810",
"Z+	c #8D8D43",
"`+	c #BCB3AC",
" @	c #B5ADA5",
".@	c #C5510A",
"+@	c #D85B07",
"@@	c #721C1A",
"#@	c #8B1E0E",
"$@	c #B32C00",
"%@	c #AD3706",
"&@	c #DC6005",
"*@	c #664B36",
"=@	c #948B3E",
"-@	c #DB7914",
";@	c #BBB2AB",
">@	c #E26105",
",@	c #A8410F",
"'@	c #7A1D17",
")@	c #DC5401",
"!@	c #CD7D1D",
"~@	c #E9760C",
"{@	c #E48B44",
"]@	c #B7B7B7",
"^@	c #EB6603",
"/@	c #812B16",
"(@	c #F17D21",
"_@	c #D59765",
":@	c #EE720F",
"<@	c #DA935B",
"[@	c #B6B6B6",
"}@	c #BB4B0C",
"|@	c #E46105",
"1@	c #E28A43",
"2@	c #BEAC9E",
"3@	c #D19C71",
"4@	c #EB812C",
"5@	c #CE5608",
"6@	c #8A2B16",
"7@	c #F16F0C",
"8@	c #CF9A6F",
"9@	c #E18841",
"0@	c #E78537",
"a@	c #F67916",
"b@	c #3F1C00",
"c@	c #6F3100",
"  . . + + + @ @ # # $ $ $ % % & & * * * = = - - ; ; ; > > , ' ) ",
"! ~ ~ { { { { ] ^ ^ / / / ( ( _ _ : : : < < [ [ } } } | | 1 2 ) ",
"! ~ ~ { 3 3 { ] ^ ^ / / ( ( ( _ _ : : < < < [ [ } } | | | 1 2 ) ",
"! { { { 3 3 { { { / / / ( ( 4 _ : : : 5 6 7 8 } } } | | 1 1 2 ) ",
"9 { 3 3 3 3 3 3 { / / ( ( 0 a b c c ' d e f g h i | | | 1 1 2 ) ",
"9 { 3 3 3 3 3 3 { / / j k l m n o p q r s t u v w 6 x 1 1 1 2 ) ",
"9 { { { 3 3 { { { y z A B C D D E F G p H I t t t J K ' , L 2 ) ",
"M ] ] { 3 3 { / N p O P C C D D E Q Q R S p K K K K T w p p U ) ",
"M ] ^ { { { { / % V W X Y C D E E Q Q Z Z `  ...w v +.+.@.p p ) ",
"#.^ ^ ^ / / / ( % W $.%.&.X *.E E Q Q Z Z =.=.-.;...H T >.,.p ) ",
"#.^ / / / / '.% ).!.~.{.].].&.^.E Q Q Z =.=././.(._.:.<.>.>.p ) ",
"#./ / / ( % [.}.|.1.2.3.4.{.5.%.6.7.Q Z Z =././.(.(.8.9.p >.p ) ",
"y / / 0.k a.b.c.d.1.2.e.e.3.f.W ].V 6.g.Z =.=./.(.h.i.j.p p k.) ",
"y y z p a.l.l.l.m.n.o.4.p.q.q.r.p p %.].s.t.=./.u.v.w.x.g y.z.) ",
"A.B.p w l.l.l.l.l.C.D.E.F.E.E.E.E.E.q.V G.$.H.s.I.J.K.L.p M.z.) ",
"A.% p p N.b.c.c.c.O.P.e.e.e.e.e.e.e.Q.{.R.S.5.T.K.K.K.U.p V.z.) ",
"A.W.X.Y.Z.`. +c.c..+++e.e.e.e.e.e.@+{.#+$+S.$+U.K.K.%+&+p *+z.) ",
"=+=+-+;+Z.>+,+N.b.'+)+e.e.e.e.Q.!+~+{+]+$+S.5.^+%+%+%+/+p *+z.) ",
"=+4 p (+X.>+_+:+`.<+[+e.e.e.}+{.]+|+|+]+$+S.].1+%+%+2+p 3+4+5+) ",
"6+: p _+7+,+(+_+>+,+8+9+0+f.a+b+|+|+|+#+c+S.].d+2+2+2+p 4+4+z.) ",
"e+< 6 f+_+-+g+_+h+i+j+k+l+a+m+|+|+|+|+~+n+S.p 2+2+o+p+y.q+q+5+) ",
"e+< r+7+_+>+X.s+t+t+t+u+v+w+{.x+y+{+|+~+n+S.p o+o+o+z+A+q+q+5+) ",
"6+< B+Z._+h+C+j+t+t+t+D+E+F+G+H+I+J+~+{.n+K+L+o+o+o+M+V.4+q+5+) ",
"6+: e+N+O+t+P+g Q+t+t+D+R+S+T+U+V+W+X+J+K+n+Y+o+Z+M+y.`+4+4+5+) ",
"6+:  @6 .@P+t+j++@t+t+D+R+S+S+@@#@$@%@&@*@n+Y+=@-@k.;@4+4+4+z.) ",
"6+: :  @r+>@Q+t++@,@t+D+R+S+S+S+S+'@)@p n+$+!@~@{@]@]@]@4+4+z.) ",
"6+: : : < B+g D+Q+^@/@u+H S+S+S+u H (@_@:@V p <@[@]@]@]@]@4+z.) ",
"=+: : : < < e+U }@,@>@D+K S+S+u |@1@| 1 2@2 3@[@[@[@]@]@]@]@z.) ",
"=+: : : : < <  @4@5@^@.@K S+6@`.> | | | 1 1 1 [@[@[@[@]@]@]@k.) ",
"=+_ : : : < < < < - p p K J 7@8@} | | | | 1 1 1 1 [@[@[@[@]@k.) ",
"9@& * * * * = = = = 4@p `.p 0@; ; ; > > > > , , , , <@<@<@<@a@) ",
"b@b@b@b@b@b@b@b@b@b@b@b@c@b@b@b@b@b@b@b@b@b@b@b@b@b@b@b@b@b@b@) "};
