/* XPM */
static char * dmmShelfDisableDMMobject_xpm[] = {
"32 32 138 2",
"  	c #E17E41",
". 	c #D78857",
"+ 	c #EB742B",
"@ 	c #3F1800",
"# 	c #C39B83",
"$ 	c #AFAFAF",
"% 	c #A6A6A6",
"& 	c #9D9D9D",
"* 	c #A3A3A3",
"= 	c #B4AAA4",
"- 	c #A0A0A0",
"; 	c #828282",
"> 	c #7C7C7C",
", 	c #7F7F7F",
"' 	c #8B8B8B",
") 	c #919191",
"! 	c #979797",
"~ 	c #797979",
"{ 	c #565656",
"] 	c #3B3B3B",
"^ 	c #656565",
"/ 	c #767676",
"( 	c #575757",
"_ 	c #515151",
": 	c #545454",
"< 	c #5C5C5C",
"[ 	c #686868",
"} 	c #737373",
"| 	c #858585",
"1 	c #9A9A9A",
"2 	c #6E6E6E",
"3 	c #404040",
"4 	c #363636",
"5 	c #2F2F2F",
"6 	c #555555",
"7 	c #595959",
"8 	c #707070",
"9 	c #5D5D5D",
"0 	c #525252",
"a 	c #333333",
"b 	c #2C2C2C",
"c 	c #4B4B4B",
"d 	c #777777",
"e 	c #626262",
"f 	c #4E4E4E",
"g 	c #7A7A7A",
"h 	c #464646",
"i 	c #585858",
"j 	c #B0AEAC",
"k 	c #606060",
"l 	c #444444",
"m 	c #373737",
"n 	c #303030",
"o 	c #313131",
"p 	c #6F6F6F",
"q 	c #4F4F4F",
"r 	c #383838",
"s 	c #3C3C3C",
"t 	c #6A6A6A",
"u 	c #5F5F5F",
"v 	c #454545",
"w 	c #494949",
"x 	c #8E8E8E",
"y 	c #757575",
"z 	c #2E2E2E",
"A 	c #3E3E3E",
"B 	c #666666",
"C 	c #505050",
"D 	c #676767",
"E 	c #727272",
"F 	c #4C4C4C",
"G 	c #424242",
"H 	c #4A4A4A",
"I 	c #343434",
"J 	c #242424",
"K 	c #787878",
"L 	c #323232",
"M 	c #353535",
"N 	c #2A2A2A",
"O 	c #646464",
"P 	c #6D6D6D",
"Q 	c #A4A4A4",
"R 	c #171717",
"S 	c #2D2D2D",
"T 	c #2B2B2B",
"U 	c #292929",
"V 	c #B1B1B1",
"W 	c #DA8B5A",
"X 	c #202020",
"Y 	c #717171",
"Z 	c #393939",
"` 	c #CBC1BC",
" .	c #BCBCBC",
"..	c #DD8E5E",
"+.	c #0A0A0A",
"@.	c #000000",
"#.	c #212121",
"$.	c #3F3F3F",
"%.	c #3D3D3D",
"&.	c #434343",
"*.	c #5E5E5E",
"=.	c #6B6B6B",
"-.	c #815941",
";.	c #1A1A1A",
">.	c #A27A62",
",.	c #272727",
"'.	c #222222",
").	c #636363",
"!.	c #CAA28A",
"~.	c #0B0B0B",
"{.	c #1F1F1F",
"].	c #6C6C6C",
"^.	c #3A3A3A",
"/.	c #959595",
"(.	c #CCA58D",
"_.	c #989898",
":.	c #1D1D1D",
"<.	c #C5BEBA",
"[.	c #232323",
"}.	c #414141",
"|.	c #282828",
"1.	c #B0B0B0",
"2.	c #7B7B7B",
"3.	c #ACACAC",
"4.	c #181818",
"5.	c #8A8A8A",
"6.	c #A5A5A5",
"7.	c #B4B4B4",
"8.	c #1E1E1E",
"9.	c #868686",
"0.	c #A1A1A1",
"a.	c #929292",
"b.	c #CCC4BF",
"c.	c #999999",
"d.	c #D99469",
"e.	c #E58346",
"f.	c #7F3000",
"g.	c #1F0C00",
"  . . . . . . . . . . . . . . . . . . . . . . . . . . . . . + @ ",
"# $ $ $ $ $ $ $ $ $ $ $ $ $ $ $ $ $ $ $ $ $ $ $ $ $ $ $ $ $ . @ ",
"# $ $ $ $ $ $ $ $ $ $ $ $ $ $ $ $ $ $ $ $ $ $ $ $ $ $ $ $ $ . @ ",
"# $ $ $ $ $ $ $ $ $ $ $ % & * $ = = $ $ $ $ $ $ $ $ $ $ $ $ . @ ",
"# $ $ $ $ $ $ $ $ $ $ - ; > , , , , ; ' ) ! * % $ $ $ $ $ $ . @ ",
"# $ $ $ $ $ $ $ $ = ) ~ { ] ^ / ( _ : < ^ [ } / , | ' ! 1 $ . @ ",
"# $ $ $ $ $ $ $ * | 2 : 3 4 5 6 ~ 7 _ _ _ _ _ _ _ 7 < 8 , = . @ ",
"# $ $ $ $ $ $ 1 > 9 0 0 4 4 a b c d e _ _ _ _ _ _ _ : ~ , $ . @ ",
"# $ $ $ $ = ) / ( 0 0 f a 4 4 b b ] g [ _ _ _ _ _ h i } | $ . @ ",
"# $ $ $ j | > k ( 0 0 l a 4 m n b b o p 2 : _ q r s > 9 ' $ . @ ",
"# $ $ $ $ , g t g > } u 7 0 v a b b b b k / w n b t k 9 x $ . @ ",
"# $ $ $ $ , y { b z A ( ( B 8 , p k 6 3 4 0 8 o C } f D ! $ . @ ",
"# $ $ $ $ , q E F z 5 n 5 n o o G H : t g 8 g p d : f D ! $ . @ ",
"# $ $ $ $ ; I J K F L M a L o o n N N b b 3 H O P f f } - $ . @ ",
"# $ $ $ Q y o R N } G M M 4 4 a o S S T N U U q , : f } * V W @ ",
"# $ $ Q X u o R R r Y Z M 4 m m r a N U U U U 7 , D q ~ `  ...@ ",
"# $ x +.@.q l R R #.c Y A 4 r Z r r n b U U U : w > 6 ,  . ...@ ",
"# K +.@.@.$.c R R U b 6 [ %.Z r r r a o n b U u &.*.=.;  . ...@ ",
"-.@.@.@.@.$.c R ;.b b b k O 4 M M 4 I n o o n p A a , x  . ...@ ",
">.+.@.@.@.,.^ R '.b b b n ^ ).M M M I z z z 5 =.3 z t x  . ...@ ",
"!.! ~.@.@.{.^ R U b b 5 S o p 6 M M M n z z z ].^.A O /. . ...@ ",
"(. ._.~.@.{.=.:.b b z b b b o y C M M 4 4 Z %.y I b y <. . ...@ ",
"(. . .Q [.@., J b S b b b b n l > F G }.a b |.B ;.3 x  . . ...@ ",
"(. . . .1.[., N b b o r %.G }.M A 2.A z b |.|.B ;.E 3. . . ...@ ",
"(. . . . .1.; }.$.l ] 5 ,.:.4.4.4.A y a z |.r ].a 5. . . . ...@ ",
"(. . . . . .x 2.e }.J 4.4.4.4.4.4.4.v 8 a N %.B B 6. . . . ...@ ",
"(. . . . . . .7.6./.; E i r 8.4.4.4.4.i =.b &.].9. . . . . ...@ ",
"(. . . . . . . . . . .1.0.a.; ].0 r 8.4.i k %., 0. . . . . ...@ ",
"(. . . . . . . . . . . . . . .1.& x , ^ 0 ~ p ; b. . . . . ...@ ",
"(. . . . . . . . . . . . . . . . . . .3.c.5.; 6. . . . . . ...@ ",
"d.(.(.(.(.(.(.(.(.(.(.(.(.(.(.(.(.(.(.(.(.(.(.(.(.(.(.(.(.(.e.@ ",
"f.f.f.f.f.f.f.f.f.f.f.f.f.f.f.f.f.f.f.f.f.f.f.f.f.f.f.f.f.f.f.g."};
