/* XPM */
static char * dmmShelfMeshVerify_xpm[] = {
"32 32 163 2",
"  	c #DE7B42",
". 	c #D68C5A",
"+ 	c #EF7329",
"@ 	c #421900",
"# 	c #C59C84",
"$ 	c #ADADAD",
"% 	c #BD9C8C",
"& 	c #CE946B",
"* 	c #B5ADA5",
"= 	c #C5947B",
"- 	c #F76308",
"; 	c #F75A00",
"> 	c #FF6300",
", 	c #EF5A08",
"' 	c #8C3A21",
") 	c #730800",
"! 	c #CE4200",
"~ 	c #E65A08",
"{ 	c #7B3A31",
"] 	c #6B3A3A",
"^ 	c #733A31",
"/ 	c #944229",
"( 	c #AD4A21",
"_ 	c #B54A19",
": 	c #DE5210",
"< 	c #F76B19",
"[ 	c #D68C63",
"} 	c #C55210",
"| 	c #732129",
"1 	c #B57B84",
"2 	c #CEBDC5",
"3 	c #EFEFF7",
"4 	c #E6DEE6",
"5 	c #C5ADB5",
"6 	c #8C6B6B",
"7 	c #8C4229",
"8 	c #CE5210",
"9 	c #845A5A",
"0 	c #BDA5AD",
"a 	c #843A31",
"b 	c #734242",
"c 	c #E6DEEF",
"d 	c #AD8C94",
"e 	c #6B2121",
"f 	c #AD3100",
"g 	c #D65210",
"h 	c #B5A59C",
"i 	c #9C4221",
"j 	c #B5949C",
"k 	c #8C3131",
"l 	c #630000",
"m 	c #5A0000",
"n 	c #631010",
"o 	c #6B3131",
"p 	c #7B1000",
"q 	c #944221",
"r 	c #D64A00",
"s 	c #E6CEC5",
"t 	c #BD7363",
"u 	c #8C1000",
"v 	c #6B0000",
"w 	c #733131",
"x 	c #8C524A",
"y 	c #9C4A21",
"z 	c #E67B3A",
"A 	c #DE5A08",
"B 	c #5A0800",
"C 	c #CE5A21",
"D 	c #DE4A00",
"E 	c #BD3A00",
"F 	c #E67B42",
"G 	c #630800",
"H 	c #A52900",
"I 	c #6B3A31",
"J 	c #DE5208",
"K 	c #9C2100",
"L 	c #A56B73",
"M 	c #841900",
"N 	c #942100",
"O 	c #B55231",
"P 	c #F76B21",
"Q 	c #EF5A00",
"R 	c #5A2110",
"S 	c #4A0800",
"T 	c #520000",
"U 	c #BD9CA5",
"V 	c #CEB5B5",
"W 	c #C54200",
"X 	c #A5A5A5",
"Y 	c #D65A19",
"Z 	c #631900",
"` 	c #310000",
" .	c #521000",
"..	c #E65200",
"+.	c #841000",
"@.	c #9C6B73",
"#.	c #9C2900",
"$.	c #B5B5B5",
"%.	c #DE8C5A",
"&.	c #212121",
"*.	c #BD4A00",
"=.	c #732100",
"-.	c #E64A00",
";.	c #946363",
">.	c #B53A00",
",.	c #C5ADA5",
"'.	c #BDBDBD",
").	c #8C8C8C",
"!.	c #080808",
"~.	c #000000",
"{.	c #9C3A00",
"].	c #8C2900",
"^.	c #420000",
"/.	c #7B0800",
"(.	c #730000",
"_.	c #A56363",
":.	c #733A3A",
"<.	c #7B7B7B",
"[.	c #7B3100",
"}.	c #943100",
"|.	c #7B1010",
"1.	c #9C6363",
"2.	c #842100",
"3.	c #BD5219",
"4.	c #845A42",
"5.	c #C53A00",
"6.	c #8C4242",
"7.	c #D6BDC5",
"8.	c #7B1900",
"9.	c #EF7331",
"0.	c #A57B63",
"a.	c #522100",
"b.	c #CE4A00",
"c.	c #D68C73",
"d.	c #CEA58C",
"e.	c #949494",
"f.	c #CE8473",
"g.	c #E6844A",
"h.	c #3A0000",
"i.	c #A52100",
"j.	c #6B0800",
"k.	c #6B1000",
"l.	c #4A0000",
"m.	c #844242",
"n.	c #B57B73",
"o.	c #F79C73",
"p.	c #BD6B63",
"q.	c #840800",
"r.	c #EFC5B5",
"s.	c #8C1900",
"t.	c #731000",
"u.	c #5A1000",
"v.	c #8C6B73",
"w.	c #EF7321",
"x.	c #BDADB5",
"y.	c #D69C73",
"z.	c #3A0800",
"A.	c #C5AD94",
"B.	c #D6946B",
"C.	c #A53A00",
"D.	c #BDB5AD",
"E.	c #DE8C52",
"F.	c #210800",
"  . . . . . . . . . . . . . . . . . . . . . . . . . . . . . + @ ",
"# $ $ $ $ $ $ $ $ $ $ $ $ $ $ $ $ $ $ $ $ $ $ $ $ $ $ $ $ $ . @ ",
"# $ $ $ $ $ $ $ $ $ $ $ $ $ $ $ $ $ $ $ $ $ $ $ $ $ $ $ $ $ . @ ",
"# $ $ $ $ $ $ $ $ $ $ $ % & # $ * * $ $ $ $ $ $ $ $ $ $ $ $ . @ ",
"# $ $ $ $ $ $ $ $ $ $ = - ; > > > > - +   . # % $ $ $ $ $ $ . @ ",
"# $ $ $ $ $ $ $ $ *   , ' ) ! ~ { ] ^ / ( _ : ~ > < + . [ $ . @ ",
"# $ $ $ $ $ $ $ # < } ^ | 1 2 3 3 4 5 6 ] ] ] ] ] 7 / 8 > * . @ ",
"# $ $ $ $ $ $ [ ; / ] 9 4 3 3 3 3 3 3 3 0 ] ] ] ] ] ^ , > $ . @ ",
"# $ $ $ $ *   ~ a ] b c 3 3 3 2 5 4 3 3 3 d ] ] ] e f g < $ . @ ",
"# $ $ $ h < ; i a ] j 3 3 4 k l m n 2 3 3 c ] o n p ; q + $ . @ ",
"# $ $ $ $ > ; r ; ; s 3 3 t u v m m w 3 3 3 x m m r y q z $ . @ ",
"# $ $ $ $ > A f m B 3 3 3 C D > D E f 3 3 3 F G H g ] _ . $ . @ ",
"# $ $ $ $ > I J K m L L L l l l M N O 3 3 3 P D Q { ] _ . $ . @ ",
"# $ $ $ $ - R S Q K l v v l l l l T U 3 3 V N W } ] ] g = $ . @ ",
"# $ $ $ X Y Z `  ...+.v v v v v l @.3 3 3 w T #.> { ] g # $.%.@ ",
"# $ $ X &.*.Z ` ` =.-.) v v v v 1 3 3 3 ;.T T >.> _ ] , ,.'.%.@ ",
"# $ ).!.~.{.].` ` ^.N -./.v (._.3 3 3 ;.T T T f N ; :.> '.'.%.@ ",
"# <.!.~.~.[.}.` ` T m f ! /.|.4 3 3 1.l l m T E 2.E 3.- '.'.%.@ ",
"4.~.~.~.~.[.}.` ` m m m E 5.6.3 3 7.v l l l l D 8.G > 9.'.'.%.@ ",
"0.!.~.~.~.a.b.` ^.m m m l ! c.3 3 L v m m m m r +.m r 9.'.'.%.@ ",
"d.e.!.~.~.@ b.` T m m l m G F f.L 6.v l m m m r ) p W g.'.'.%.@ ",
"d.'.e.!.~.@ r h.m m m m m m G ..i.v v v j.) p ..k.B ..,.'.'.%.@ ",
"d.'.'.X &.~.> l.m m m m m m m.n.o.p.+.q.G m T b.` 2.9.'.'.'.%.@ ",
"d.'.'.'.$ &.> T m m l ) p M n.3 3 r.p m m T T b.` ..d.'.'.'.%.@ ",
"d.'.'.'.'.$ - M p s.t.u.S h.v.3 3 V ..j.m T t.r Z w.'.'.'.'.%.@ ",
"d.'.'.'.'.'.9.; W 2.S ` ` ` v.3 3 x.].D j.T 8.b.b.y.'.'.'.'.%.@ ",
"d.'.'.'.'.'.'.,.y.g.- ..>.=.z.` ` ` ` >.r m 2.r < '.'.'.'.'.%.@ ",
"d.'.'.'.'.'.'.'.'.'.'.A.B.z - r C.=.z.` >.E 8.> B.'.'.'.'.'.%.@ ",
"d.'.'.'.'.'.'.'.'.'.'.'.'.'.'.A.%.9.> b.C.Q D - D.'.'.'.'.'.%.@ ",
"d.'.'.'.'.'.'.'.'.'.'.'.'.'.'.'.'.'.'.d.E.w.- y.'.'.'.'.'.'.%.@ ",
"B.d.d.d.d.d.d.d.d.d.d.d.d.d.d.d.d.d.d.d.d.d.d.d.d.d.d.d.d.d.g.@ ",
"[.[.[.[.[.[.[.[.[.[.[.[.[.[.[.[.[.[.[.[.[.[.[.[.[.[.[.[.[.[.[.F."};
