/* XPM */
static char * dmmShelfSplinterFromImage_xpm[] = {
"32 32 567 2",
"  	c #BF743A",
". 	c #B87C4D",
"+ 	c #B97C4E",
"@ 	c #B97D4E",
"# 	c #BA7D4F",
"$ 	c #BA7E4F",
"% 	c #CF6513",
"& 	c #000000",
"* 	c #A98B74",
"= 	c #9B9B9B",
"- 	c #8E8E8E",
"; 	c #444444",
"> 	c #B1B1B1",
", 	c #DFDFDF",
"' 	c #E1E1E1",
") 	c #E5E5E5",
"! 	c #E7E7E7",
"~ 	c #E9E9E9",
"{ 	c #EBEBEB",
"] 	c #EDEDED",
"^ 	c #EEEEEE",
"/ 	c #F0F0F0",
"( 	c #676767",
"_ 	c #C86D27",
": 	c #1F24EA",
"< 	c #232CEC",
"[ 	c #343DE1",
"} 	c #4A52D3",
"| 	c #686FC5",
"1 	c #8286B1",
"2 	c #8F91A7",
"3 	c #9395A4",
"4 	c #9496A3",
"5 	c #9596A0",
"6 	c #515257",
"7 	c #B0B0B2",
"8 	c #DDDDDF",
"9 	c #DFDFE1",
"0 	c #E1E1E3",
"a 	c #C3C3C3",
"b 	c #DADADA",
"c 	c #292929",
"d 	c #1119F7",
"e 	c #1C26F7",
"f 	c #2B35F0",
"g 	c #6C76E7",
"h 	c #7E86D7",
"i 	c #797FC7",
"j 	c #7D83BD",
"k 	c #7B80B9",
"l 	c #7D82B6",
"m 	c #8084B4",
"n 	c #4C5079",
"o 	c #9498BE",
"p 	c #C0C3E4",
"q 	c #C7CAE5",
"r 	c #E3E3E5",
"s 	c #29292B",
"t 	c #353537",
"u 	c #7B7B7D",
"v 	c #C86D28",
"w 	c #0A14FD",
"x 	c #4853FC",
"y 	c #505AF8",
"z 	c #242FF2",
"A 	c #5962E7",
"B 	c #818AD8",
"C 	c #7E85CA",
"D 	c #7D83C3",
"E 	c #7D83BF",
"F 	c #7B81B9",
"G 	c #404679",
"H 	c #8E93C2",
"I 	c #B6BBE5",
"J 	c #C0C4E5",
"K 	c #C9CCE6",
"L 	c #929294",
"M 	c #868688",
"N 	c #A3A4AF",
"O 	c #575859",
"P 	c #878787",
"Q 	c #C86E28",
"R 	c #3944FE",
"S 	c #0C17FE",
"T 	c #4752FC",
"U 	c #505BF7",
"V 	c #212AF0",
"W 	c #4750E6",
"X 	c #4C54D8",
"Y 	c #5961CE",
"Z 	c #636AC8",
"` 	c #5F66BA",
" .	c #2A3079",
"..	c #7F86C7",
"+.	c #AAAFE7",
"@.	c #B7BBE7",
"#.	c #8F92B4",
"$.	c #43465E",
"%.	c #717383",
"&.	c #32343F",
"*.	c #5F606B",
"=.	c #D8D8DA",
"-.	c #404040",
";.	c #353535",
">.	c #585858",
",.	c #717171",
"'.	c #ADADAD",
").	c #C96E28",
"!.	c #616BD4",
"~.	c #3944FF",
"{.	c #0D18FE",
"].	c #222DFB",
"^.	c #1B24F6",
"/.	c #505AEE",
"(.	c #6D76CC",
"_.	c #6A72D2",
":.	c #5C64D0",
"<.	c #666DBC",
"[.	c #2F3781",
"}.	c #7F85CA",
"|.	c #A2A8E8",
"1.	c #898FC3",
"2.	c #2D3159",
"3.	c #4C4F6C",
"4.	c #CFD1E6",
"5.	c #D4D6E5",
"6.	c #7D7F8C",
"7.	c #969696",
"8.	c #C7C7C7",
"9.	c #BCBCBC",
"0.	c #8B8B8B",
"a.	c #5B65E1",
"b.	c #4954FF",
"c.	c #1E28FF",
"d.	c #646ED6",
"e.	c #535EFA",
"f.	c #1E28F4",
"g.	c #4D57EB",
"h.	c #606AE0",
"i.	c #545DD5",
"j.	c #7078C6",
"k.	c #38408D",
"l.	c #8A91DB",
"m.	c #9DA4E9",
"n.	c #858BC6",
"o.	c #616694",
"p.	c #4B4E70",
"q.	c #82859D",
"r.	c #D0D2E5",
"s.	c #BCBECF",
"t.	c #4D4D4D",
"u.	c #666666",
"v.	c #C96E29",
"w.	c #1722FF",
"x.	c #131DFF",
"y.	c #5E68E4",
"z.	c #646FD5",
"A.	c #545FF8",
"B.	c #2731F1",
"C.	c #505AE8",
"D.	c #5B64DC",
"E.	c #5C65CD",
"F.	c #2F3894",
"G.	c #8E96EB",
"H.	c #959CE9",
"I.	c #8187C7",
"J.	c #444A7E",
"K.	c #A6AAD0",
"L.	c #2F324E",
"M.	c #4E5167",
"N.	c #44465C",
"O.	c #404041",
"P.	c #CFCFCF",
"Q.	c #949494",
"R.	c #C96F29",
"S.	c #2F39FF",
"T.	c #4651FE",
"U.	c #4E59FB",
"V.	c #242FF7",
"W.	c #848EEE",
"X.	c #7F88E2",
"Y.	c #6A72C7",
"Z.	c #373F8F",
"`.	c #969EEB",
" +	c #9BA3EA",
".+	c #838AC8",
"++	c #484D7D",
"@+	c #B1B5DA",
"#+	c #30324E",
"$+	c #CBCDE4",
"%+	c #CCCEE4",
"&+	c #909092",
"*+	c #B8B8B8",
"=+	c #CA6F29",
"-+	c #0D17FF",
";+	c #202BFD",
">+	c #212BF9",
",+	c #1D28F3",
"'+	c #6F7AE9",
")+	c #646DC6",
"!+	c #4C54A6",
"~+	c #98A0ED",
"{+	c #9EA5ED",
"]+	c #6E75B0",
"^+	c #242958",
"/+	c #383C5F",
"(+	c #4F5169",
"_+	c #CDCFE4",
":+	c #D8D8D8",
"<+	c #DCDCDC",
"[+	c #4B55FF",
"}+	c #1E29FF",
"|+	c #646FD6",
"1+	c #636ED6",
"2+	c #434DF6",
"3+	c #333DED",
"4+	c #525BD3",
"5+	c #424BAB",
"6+	c #939BEF",
"7+	c #9DA4EE",
"8+	c #666DAA",
"9+	c #6A6E9C",
"0+	c #8689A8",
"a+	c #44465D",
"b+	c #CED0E4",
"c+	c #CFD1E3",
"d+	c #E3E3E3",
"e+	c #898989",
"f+	c #CA6F2A",
"g+	c #333EFF",
"h+	c #454FFF",
"i+	c #646ED7",
"j+	c #636ED7",
"k+	c #636ED5",
"l+	c #434EF0",
"m+	c #6670D7",
"n+	c #5962B9",
"o+	c #9BA3F2",
"p+	c #A6ADF0",
"q+	c #64699F",
"r+	c #777BA2",
"s+	c #C4C6E0",
"t+	c #3C3E50",
"u+	c #A6A7B7",
"v+	c #D2D4E3",
"w+	c #CBCBCB",
"x+	c #D0D0D0",
"y+	c #CA702A",
"z+	c #121CFF",
"A+	c #4C57FE",
"B+	c #626DD5",
"C+	c #404BF2",
"D+	c #656FD3",
"E+	c #656EC7",
"F+	c #9DA5F3",
"G+	c #A9B0F3",
"H+	c #494F82",
"I+	c #9599BD",
"J+	c #C5C8E0",
"K+	c #858797",
"L+	c #676876",
"M+	c #D3D5E3",
"N+	c #9C9C9C",
"O+	c #7C7C7C",
"P+	c #CB702A",
"Q+	c #101BFF",
"R+	c #555FEF",
"S+	c #1D28FF",
"T+	c #121DFE",
"U+	c #202BFC",
"V+	c #4E59F8",
"W+	c #3F4AF2",
"X+	c #5964D0",
"Y+	c #656FCA",
"Z+	c #9FA7F6",
"`+	c #ACB3F5",
" @	c #3F4477",
".@	c #9DA1C3",
"+@	c #C6C9E0",
"@@	c #C2C3D3",
"#@	c #323342",
"$@	c #C8C9D7",
"%@	c #B2B2B2",
"&@	c #CDCDCD",
"*@	c #7A7A7A",
"=@	c #939393",
"-@	c #2631FF",
";@	c #4F5AFE",
">@	c #626DD4",
",@	c #414CFC",
"'@	c #1D28F8",
")@	c #202BF0",
"!@	c #1A24CE",
"~@	c #5A63E2",
"{@	c #9199F8",
"]@	c #A8AFF6",
"^@	c #212659",
"/@	c #B8BBDE",
"(@	c #C5C7DE",
"_@	c #CDCFDE",
":@	c #525461",
"<@	c #272836",
"[@	c #4A4B4C",
"}@	c #575757",
"|@	c #A0A0A0",
"1@	c #CB702B",
"2@	c #2D38FF",
"3@	c #0712FF",
"4@	c #626CD5",
"5@	c #3C48F6",
"6@	c #626CEE",
"7@	c #5B65CA",
"8@	c #7D86E2",
"9@	c #A2AAFA",
"0@	c #9EA5E5",
"a@	c #232859",
"b@	c #9397B8",
"c@	c #C6C8DD",
"d@	c #AEB0BF",
"e@	c #323440",
"f@	c #BBBDCA",
"g@	c #6C6C6E",
"h@	c #858585",
"i@	c #B6B6B6",
"j@	c #646464",
"k@	c #CB712B",
"l@	c #0C16FF",
"m@	c #535EED",
"n@	c #616CD4",
"o@	c #626CD4",
"p@	c #3D48F4",
"q@	c #5F6AEA",
"r@	c #535DC3",
"s@	c #8A94EF",
"t@	c #A4ACFB",
"u@	c #B3B9F9",
"v@	c #555A88",
"w@	c #2E314F",
"x@	c #6C6E82",
"y@	c #505160",
"z@	c #878995",
"A@	c #D1D2E0",
"B@	c #838385",
"C@	c #848484",
"D@	c #1C27FF",
"E@	c #5E69D1",
"F@	c #323DFF",
"G@	c #606BD3",
"H@	c #404BF1",
"I@	c #5661DF",
"J@	c #5660C4",
"K@	c #97A1FD",
"L@	c #A5ADFC",
"M@	c #B6BCFA",
"N@	c #606492",
"O@	c #2D304F",
"P@	c #4E5064",
"Q@	c #3A3C4A",
"R@	c #D0D1DE",
"S@	c #545556",
"T@	c #4B4B4B",
"U@	c #BEBEBE",
"V@	c #B4B4B4",
"W@	c #CC712B",
"X@	c #424DFF",
"Y@	c #222DFF",
"Z@	c #5B66E1",
"`@	c #3440ED",
" #	c #5B66D1",
".#	c #616CD0",
"+#	c #A8B0FD",
"@#	c #BBC1FD",
"##	c #C1C6F0",
"$#	c #9699B6",
"%#	c #484A5E",
"&#	c #C5C7D2",
"*#	c #A5A7B3",
"=#	c #3E3E40",
"-#	c #9A9A9A",
";#	c #787878",
">#	c #C9C9C9",
",#	c #3641FF",
"'#	c #5863DF",
")#	c #131EFE",
"!#	c #515CF8",
"~#	c #3641E9",
"{#	c #5661C8",
"]#	c #757FE3",
"^#	c #9BA4FF",
"/#	c #ABB2FE",
"(#	c #BEC4FE",
"_#	c #D2D6FF",
":#	c #DDE0FC",
"<#	c #E6E8FA",
"[#	c #9FA1AE",
"}#	c #454752",
"|#	c #3A3C49",
"1#	c #AEAEB0",
"2#	c #CC712C",
"3#	c #0F18F9",
"4#	c #3C46FC",
"5#	c #1823F6",
"6#	c #3C47EF",
"7#	c #2C36DF",
"8#	c #404BBF",
"9#	c #929DFF",
"0#	c #9CA4FF",
"a#	c #B0B7FF",
"b#	c #C4C9FF",
"c#	c #D4D8FF",
"d#	c #DEE1FC",
"e#	c #E5E7FA",
"f#	c #E7E8F7",
"g#	c #9293A0",
"h#	c #5A5C69",
"i#	c #DADADC",
"j#	c #8F8F8F",
"k#	c #626262",
"l#	c #C0C0C0",
"m#	c #A9A9A9",
"n#	c #CC722C",
"o#	c #3538CB",
"p#	c #0C17FC",
"q#	c #4E59FA",
"r#	c #3D48FA",
"s#	c #3B47F3",
"t#	c #525DED",
"u#	c #222CCF",
"v#	c #303BC7",
"w#	c #858FFF",
"x#	c #9EA7FF",
"y#	c #B7BEFF",
"z#	c #C9CEFF",
"A#	c #D8DCFF",
"B#	c #E1E4FC",
"C#	c #E5E7F9",
"D#	c #E5E6F5",
"E#	c #A7A8B6",
"F#	c #444655",
"G#	c #B9B9BB",
"H#	c #CD722C",
"I#	c #5E59BF",
"J#	c #1B25F5",
"K#	c #616BD0",
"L#	c #606AD0",
"M#	c #2630F6",
"N#	c #5C66EF",
"O#	c #6B76DC",
"P#	c #444FB4",
"Q#	c #6973D4",
"R#	c #9BA4FC",
"S#	c #ADB4FE",
"T#	c #C1C7FE",
"U#	c #D0D4FF",
"V#	c #DDE0FF",
"W#	c #E1E4FA",
"X#	c #E3E5F7",
"Y#	c #F0F0F2",
"Z#	c #ECECEE",
"`#	c #939395",
" $	c #767676",
".$	c #D4D4D4",
"+$	c #6A62B6",
"@$	c #3942ED",
"#$	c #333DF7",
"$$	c #5E69DB",
"%$	c #2A34F0",
"&$	c #707ADB",
"*$	c #6E78D9",
"=$	c #3B44A3",
"-$	c #8089E1",
";$	c #A9B1FF",
">$	c #B9C0FF",
",$	c #D5D9FF",
"'$	c #E0E3FF",
")$	c #E3E5FA",
"!$	c #F4F4F6",
"~$	c #CECDCE",
"{$	c #BCAEAC",
"]$	c #B46664",
"^$	c #CD722D",
"/$	c #AA8F8C",
"($	c #3741E7",
"_$	c #2730EF",
":$	c #3740ED",
"<$	c #454EE8",
"[$	c #616AE3",
"}$	c #5C65DF",
"|$	c #333BAB",
"1$	c #2A2E52",
"2$	c #9697A3",
"3$	c #F9FAFF",
"4$	c #FBFBFF",
"5$	c #FDFDFF",
"6$	c #FBFBFD",
"7$	c #F6F6F8",
"8$	c #F2F2F4",
"9$	c #C4AAAC",
"0$	c #CC0E14",
"a$	c #DC0A0C",
"b$	c #C4C2C4",
"c$	c #A5A5A5",
"d$	c #CD732D",
"e$	c #B89982",
"f$	c #AFAFAF",
"g$	c #B0B0B0",
"h$	c #ABABAB",
"i$	c #7E7E7E",
"j$	c #3E3E3E",
"k$	c #545454",
"l$	c #FFFFFF",
"m$	c #FCFCFC",
"n$	c #F6F6F6",
"o$	c #9C4E4C",
"p$	c #FF0E11",
"q$	c #F42A2C",
"r$	c #EC5254",
"s$	c #DC7E7C",
"t$	c #CCA6A4",
"u$	c #CE732D",
"v$	c #B89A83",
"w$	c #565656",
"x$	c #303030",
"y$	c #FAFAFA",
"z$	c #F4F4F4",
"A$	c #641A1C",
"B$	c #7C0A0C",
"C$	c #AC0A0C",
"D$	c #741A14",
"E$	c #7C3234",
"F$	c #945A54",
"G$	c #A48284",
"H$	c #B4A6A4",
"I$	c #828282",
"J$	c #747474",
"K$	c #393939",
"L$	c #424242",
"M$	c #8C6A6C",
"N$	c #6C3A3C",
"O$	c #6C0E0C",
"P$	c #940A0C",
"Q$	c #A48684",
"R$	c #AC9294",
"S$	c #BCB2B4",
"T$	c #BCBABC",
"U$	c #606060",
"V$	c #CE732E",
"W$	c #B99B84",
"X$	c #B3B3B3",
"Y$	c #929292",
"Z$	c #2E2E2E",
"`$	c #6C4244",
" %	c #555555",
".%	c #CE742E",
"+%	c #C77C42",
"@%	c #C38758",
"#%	c #C48759",
"$%	c #C48859",
"%%	c #C5885A",
"&%	c #C5895A",
"*%	c #C6895B",
"=%	c #C68A5B",
"-%	c #C78A5C",
";%	c #C78B5C",
">%	c #C88B5D",
",%	c #D26817",
"'%	c #351700",
"  . . . . . . . . . . + + + + + + + @ @ @ @ @ @ @ # # # $ $ % & ",
"* = = = = = = = = - ; > , ' ) ) ! ! ! ! ~ ~ ~ { ] ] ^ / / ( _ & ",
": < [ } | 1 2 3 4 5 6 7 8 9 0 ) ! a b ! ~ ! ~ { { ] ^ ^ ^ c _ & ",
"d e f g h i j k l m n o p q 0 r ! s t u a ! ~ ~ { ] ] ^ ^ c v & ",
"w x y z A B C D E F G H I J K L M s N O c P b ~ { { ] ] ^ c Q & ",
"R S T U V W X Y Z `  ...+.@.#.$.%.&.*.=.a -.c ;.>.,.'.] ] c ).& ",
"!.~.{.].^./.(._.:.<.[.}.|.1.2.3.4.5.6.s c c 7.8.9.0.c ] ] c ).& ",
"a.b.c.d.e.f.g.h.i.j.k.l.m.n.o.p.q.r.s.t ! a t.u.9.9.c { ] c v.& ",
"w.w.x.y.z.A.B.C.D.E.F.G.H.I.J.K.L.M.N.O.P.! ~ ,.;.>.Q.{ { c R.& ",
"b.!.S.x.T.U.V.W.X.Y.Z.`. +.+++@+#+$+%+&+;.P *+Q.;.! ~ ~ { c =+& ",
"b.!.!.~.-+;+>+,+'+)+!+~+{+]+^+/+(+_+_+9 :+c P P -.>.P.~ <+c =+& ",
"b.!.!.[+}+|+1+2+3+4+5+6+7+8+9+0+a+b+c+9 d+c ! ! <+e+;.b ~ c f+& ",
"g+!.!.h+}+i+j+k+l+m+n+o+p+q+r+s+t+u+v+9 w+c ! ! ! ~ >.! x+c y+& ",
"w.!.!.~.z+A+j+B+C+D+E+F+G+H+I+J+K+L+M+9 N+-.;.O+P.! >.! '.c P+& ",
"Q+R+!.S+S.T+U+V+W+X+Y+Z+`+ @.@+@@@#@$@9 -.%@&@*@;.>.;.! =@c P+& ",
"-@g+;@z+!.>@,@'@)@!@~@{@]@^@/@(@_@:@<@[@}@' d+) ! c |@! P c 1@& ",
"2@3@3@2@!.B+4@5@6@7@8@9@0@a@b@c@d@e@f@g@h@' d+) ) c i@! j@c k@& ",
"l@m@2@g+!.n@o@p@q@r@s@t@u@v@w@x@y@z@A@B@C@' ' d+) c i@) >.c k@& ",
"D@E@F@g+!.B+G@H@I@J@K@L@M@N@O@P@Q@R@R@S@T@U@' d+V@c ) ) T@c W@& ",
"X@E@Y@w.Z@G@!.`@ #.#K@+#@###$#%#Q@&#*#=#-#;.;#>#V@c d+d+}@c W@& ",
",#'#l@g+)#!#G@~#{#]#^#/#(#_#:#<#[#}#|#1#<+8.c -.-.c d+d+-.c 2#& ",
"3#S+-@E@4#5#6#7#8#9#0#a#b#c#d#e#f#g#h#i#<+j#k#d+l#m#d+d+c c n#& ",
"o#p#q#E@r#s#t#u#v#w#x#y#z#A#B#C#D#E#F#G#<+T@N+' ' ' ' ' c c H#& ",
"I#J#K#L#M#N#O#P#Q#R#S#T#U#V#W#X#Y#Z#`#O. $c .$' ' ' ' U@c c H#& ",
"+$@$#$$$%$&$*$=$-$;$>$z#,$'$)$!$Y#~${$]$T@k#, , , , , %@c c ^$& ",
"/$($_$:$<$[$}$|$1$2$3$4$5$6$7$8$9$]$0$a$b$b$b$b$b$b$b$c$c c d$& ",
"e$f$f$f$g$g$g$h$i$j$k$<+l$m$n$o$0$p$p$p$p$p$q$r$s$t$b$C@c c u$& ",
"v$f$g$g$g$g$> > g$-#w$x$Q.y$z$A$B$C$a$p$D$D$E$F$G$H$b$I$c c u$& ",
"v$g$g$g$> > > %@%@%@h$J$K$L$&@/ M$N$O$P$Q$Q$R$H$S$T$b$U$c c V$& ",
"W$g$> > > > %@%@%@X$X$%@Y$T@Z$0.{ {$M$`$b <+<+<+<+<+<+ %c c .%& ",
"+%@%@%@%#%#%#%$%$%$%%%%%%%%%&%&%&%*%*%*%=%=%=%-%-%-%;%;%;%>%,%& ",
"'%'%'%'%'%'%'%'%'%'%'%'%'%'%'%'%'%'%'%'%'%'%'%'%'%'%'%'%'%'%'%& "};
